<?xml version="1.0" encoding="utf-8"?>
<!-- Generator: Adobe Illustrator 24.2.3, SVG Export Plug-In . SVG Version: 6.00 Build 0)  -->
<svg version="1.1" id="Capa_1" xmlns="http://www.w3.org/2000/svg" xmlns:xlink="http://www.w3.org/1999/xlink" x="0px" y="0px"
	 viewBox="0 0 1103.9 1190.6" style="enable-background:new 0 0 1103.9 1190.6;" xml:space="preserve">
<style type="text/css">
	.st0{fill:#FFDB00;}
</style>
<g>
	<g>
		<path class="st0" d="M487.8,389.9c0.2,0.2,0.4,0.6,0.8,0.9c0.2,0.1,0.3,0,0.5,0c0.8-0.4,1.6-2,1.9-2.9c0.1-0.4,0.9-2.5,2.3-2.6
			c1.2-0.1,1.9,1.5,2.3,2.5c2.2,3.3,6.2,3.1,9.4,3l0.2,0l0.2,0.1c0.7,0.4,1.4,0.9,2.1,1.3c2.8,2,5.4,3.9,11.5-1.2l0.2-0.1
			c5-1.5,9.3-0.4,9.4-0.4c0.1,0,0.9,0.3,1.8-0.3c0.9-0.6,2-2,2.6-5.6c0.4-2.4,0.5-4.1,0.7-5.6c0.2-3.1,0.4-4.5,2.6-6.2
			c1.6-1.2,2.7-1.2,3.8-1.1c1.1,0,2.1,0.1,3.8-1.3c1.2-1,1.8-2.2,2.4-3.5c1-2.2,2.2-4.5,6.4-3.2c5.8,1.8,7.1,1.6,8.1-0.1
			c1.5-2.3,4.9-1.9,9.2-1.3l1.1,0.1c1,0.1,1.7,0.2,2.1,0.2l-2-9.7c-1.5-0.1-5.1-0.3-6.4-2.4c-0.9-1.5-0.5-3.5,1.2-6
			c3.3-4.9,4.5-8,3.9-10.7c-0.5-2.3-2.2-4.5-5.4-6.8c0.3,2.1-0.7,5.6-2.4,7.7c-1.3,1.6-4.8,2.3-8.8,2.3c-4.4,0-9.1-0.8-11.6-2.1
			c-4-2.2-9,0.2-10.2,0.8c-0.1,0.3-0.2,0.6-0.2,0.6l-0.1,0.3l-0.3,0.1c0,0-2,0.9-3.4,5.6c-0.6,2-0.6,3.4-0.7,4.7
			c0,2-0.1,3.5-2.2,5.7c-1.7,1.8-3.9,2.7-6.2,2.7c-2.3,0-4.7-0.9-6.6-2.6c-1.9-2.5-4.8-1.7-6.1-1.2c0.5,1,1,2.3,1.3,3.8
			c1.2,4.7-1.1,8.4-3.5,11.5c-1.1,1.4-2.3,2.2-3.9,3.3c-2.4,1.7-5.6,3.9-10.8,9.3c-2.9,3-5.3,4.8-7.3,5.8c-0.2,0.4-0.7,1.6-0.3,2.6
			c0.3,0.7,1.2,1.1,2.4,1.4C486.4,388.7,487,388.8,487.8,389.9z"/>
		<path class="st0" d="M513,351.9c3.2,2.9,8.1,2.9,10.9-0.1c1.7-1.8,1.7-3,1.8-4.8c0-1.2,0.1-2.9,0.8-5c1.3-4.4,3.1-5.9,3.9-6.3
			c0.3-1.2,1.1-5.8-3.4-7.2l-0.2-0.1l-0.2-0.1c-2.9-3.4-1.4-6,0.8-9c0-1.6,0-3.1,0-4.5c-0.1-4.8-0.2-8.2,3.7-9.4
			c1.2-0.8,2.2-4,2-6.1c0-1-0.3-1.5-0.4-1.5c-0.1,0-0.3,0-0.7,0.2c-0.7,3.1-2.7,5.7-4.8,6c-0.7,0.1-2.1,0.1-3.1-1.7
			c-2.2-3.9-0.6-6,1-7.7c0.8-0.8,0.7-5.5,0.2-8.9c-0.2,0-0.4,0-0.5-0.1c-1.5-0.4-2.1-2.5-2.6-4.7l0-0.1c0-1.1-0.3-1.6-0.6-1.8
			c-0.2-0.1-0.4,0-0.6,0c-0.3,0.2-0.7,0.9-0.6,1.9l0,0.3l-0.2,0.2c-1.3,1.7-2.4,1.4-2.9,1.2c-1.3-0.6-1.8-2.9-1.2-5.4
			c0.1-0.5,0.3-0.8,0.4-1.2c0.5-1.4,0.9-2.7,0.6-3.2c-0.2-0.4-0.9-0.6-1.8-0.7c-2.3-0.3-3.2,1.7-4.6,5.1c-0.4,1-0.9,2.1-1.4,3.2
			c-2.4,4.8-5.4,6.8-12.3,8.7c-1.9,0.2-3.2,0.8-4,1.9c-1.3,1.9-0.7,4.4-0.7,4.4c0,0.1,0.5,2.6,0.1,6.2c3-0.9,3.9,1,4.5,2
			c0.1,0.3,0.3,0.7,0.5,0.7c0.3,0,0.6,0,1,0c1.2-0.1,2.8-0.3,4.6,1.2c1.2,1,1.3,2.8,0.3,4.2c-1,1.3-3,2.2-5,0.8l-0.2-0.1l-0.1-0.2
			c-0.5-1.1-1.4-1.5-1.7-1.3c-0.2,0-0.2,0.4,0,0.9c0.7,2.6,1,4.7-2.2,7.2c-2,1.2-2.9,2.1-3.1,3c-0.2,0.7,0.1,1.6,0.7,2.6
			c0.3,0.6,0.7,1,1,1.5c1.3,1.9,2.4,3.4,0.8,7c-0.4,0.9-0.9,1.4-1.6,1.6c-0.4,0.7,0.7,3.6,1.5,5.5c0.6,1.5,1.2,3,1.5,4.3l0,0.1
			l0,0.1c-0.1,1.8,0.4,3.1,1.4,4c2.3,2,6.7,1.2,6.7,1.2l0.4-0.1l0.2,0.3c0,0.1,0.7,0.9,1.5,2.3C507.3,349.5,510.8,349,513,351.9z"/>
		<path class="st0" d="M453.3,326.5c-1.5,1.8-2.2,3.2-2.1,4.2c0.1,1.5,1.6,2.8,3.8,4.7c0.3,0.2,0.5,0.5,0.7,0.8
			c4.2-3.1,7.5-3.9,9.5-2.4c1.6,0.5,4.1-0.9,4.9-1.5c0.8-0.6,8.1-5.8,11.4-3.5c1.9-0.1,3.8,0.8,5.6,1.6c3.1,1.4,4.5,1.8,5.2,0.2
			c1.2-2.9,0.6-3.8-0.7-5.7c-0.3-0.4-0.7-1-1-1.5c-0.9-1.4-1.1-2.6-0.9-3.7c0.3-1.3,1.4-2.4,3.6-3.8c2.5-2,2.3-3.5,1.7-5.8
			c-0.4-1.5,0.2-2.3,0.9-2.5c1.1-0.4,2.5,0.4,3.3,1.9c1.2,0.7,2.4,0.2,3-0.6c0.5-0.7,0.7-1.8-0.1-2.4c-1.3-1.1-2.4-1-3.6-0.9
			c-0.5,0-0.9,0.1-1.4,0c-0.8-0.1-1.1-0.8-1.4-1.5c-0.6-1.1-1.1-2.1-3.6-1c-1.4,1.7-2.7,2.5-4.1,2.5c-0.1,0-0.3,0-0.4,0
			c-2.2-0.3-3.3-2.7-3.3-2.8l0-0.2l0-0.2c0-1.3-0.1-5.1-1.6-6.5c-0.5,0-1.1,0.1-1.5,0.1c-1.4,0.2-2.8,0.4-4.4-0.8
			c-1.9-0.4-3.2-0.3-3.8,0.4c-0.5,0.6-0.4,1.8,0.4,3.4l0.1,0.1l0,0.2c-0.2,1.9-1.7,3.2-4.1,3.6c-2.7,0.5-6.3-0.3-7.3-2.3
			c-0.3-0.9-0.7-1.4-1.2-1.7c-1.4-0.7-3.9,0-6.6,1c1,0.6,1.7,1.6,1.9,2.9c0.5,2.2-0.5,4.5-2.4,5.5c-1.8,0.7-2.9,1.7-3.4,3
			c-0.7,2.1,0.4,4.8,1.4,6.6c0.4,0.7,0.9,1.3,1.3,1.8c1.3,1.7,1.9,2.7,0.4,6.4L453.3,326.5z"/>
		<path class="st0" d="M659.6,312.2c3.4,0.7,5.9,0.5,7.6-0.6c1.4-0.9,2.2-2.5,2.6-4.7c0.3-1.5,0.4-2.9,0.5-4.1
			c0.4-3.4-1.9-3.9-0.5-6c0.3-1.7-14.4,0-14.2-1.3c0.2-2.8-3.7-6.3-2.2-7.4c1.2-0.9,17.7-6.8,20.4-6.3c-0.7-3.4-12.8-6.4-10.3-8.9
			c1.3-0.9,3.9-3.1,4.4-6.5c1.7,0,1.8-6.1,1.3-6.9c4.2,1.3,5.1-0.1,5.1-0.1c-0.4,0.1-0.7,1.4-1.8-3.2l0-0.1c-0.2-7-4.3-9.8-5.9-10.7
			c-0.5,1.3-1.2,3-2.3,5.3c-1.5,2.4-2.7,3.3-3.8,3c-1.7-0.4-2.2-3.5-2.5-8.6c-0.5-1.8-1.4-1.8-2.1-1.7c-2.1,0.5-4.5,3.5-4.4,4.2
			c1.4,2-1.6,6.8-3.4,9.1l-0.1,0.2l-0.3,0c-2.6,0.4-3.9-0.2-4.6-0.6c-0.3,1-1.1,2-2.2,2.2c-0.1,0-0.3,0.1-0.4,0.1
			c-1.1,0-2.2-0.8-3.3-2.4c-1.9-3-1.9-3-3.6-2.1c-0.4,0.2-0.9,0.5-1.5,0.8c-3.7,2.9-6.4,1.3-8.9-0.2c-1.2-0.7-2.5-1.5-3.9-1.8
			l-0.2-0.1c-3.1-0.4-3.5-0.5-4-2.1c-0.2-0.5-0.4-1.1-0.9-2.1c-2.4-1.8-4.9-0.8-5.7-0.4c-0.2,5.8-8,10.6-12.4,11.6
			c-2,0.4-2.9,1.4-2.8,2c0.1,0.3,0.4,0.5,1,0.5l0.7-0.2c3.2-1.1,3.4-0.9,6,2.3l0.9,1.1c1.4,1.9,1.8,3.5,1.3,4.8
			c-0.4,1-1.5,1.7-2.3,2c1,1.4,1.7,3.6,0.3,6.1c-0.6,1-1.1,1.7-1.6,2.3c-1.2,1.4-2.1,2.5-3.1,8.8l0,0.2l-0.1,0.1
			c-0.6,0.9-1.6,1.3-2.7,1.5c-0.3,0.3-0.7,0.9-0.7,1.4c0.1,0.7,0.9,1.2,1.5,1.6l0.2,0.1l0.1,0.2c1.8,3.3,0.4,5.1-0.1,5.6
			c-0.2,0.1-0.7,0.9-0.5,1.8c0.3,1.2,1.5,2.3,3.8,3.1c3.5,1.4,4,2.5,4.5,4.2c0.2,0.9,0.5,1.9,1.9,3.4c1.5,1.6,2,1.4,2.6,1.1
			c0.9-0.4,1.9-0.6,3.5,1.4c2.2,2.8,5.9,3.2,11.4,1.6l0.2,0c4.6-0.4,5.3,0.9,6.8,4c0.3,0.7,0.7,1.5,1.2,2.4c1.9,2.5,3.7,3.3,5.1,3.8
			c0.8,0.3,1.5,0.6,1.9,1.2c4.3-3.3,8.9-6.4,9.7-7C647.6,320.1,653.4,310.9,659.6,312.2z M617.2,263.5c-0.3,0.1-0.7,0.4-1,0.7
			c-0.5,0.5-1.2,1-1.9,1c-1.1,0-1.7-1.3-2-2.2c-0.4-1.4-0.1-2.3,0.3-2.8c1.2-1.6,4-1.7,4.3-1.7l0.2,0l0.2,0.1
			c1.1,0.6,1.8,1.8,1.7,2.8C619,262.4,618.3,263.2,617.2,263.5z M670.3,302.8c0.4-3.4-1.9-3.9-0.5-6c0.3-1.7-4.7-4.3-14.2-1.3"/>
		<path class="st0" d="M616.9,260c-0.8,0-2.5,0.3-3.1,1.1c-0.3,0.4-0.3,0.9-0.1,1.6c0.4,1.2,0.7,1.3,0.7,1.3c0.2,0,0.7-0.4,1-0.7
			c0.4-0.4,0.9-0.7,1.4-1c0.4-0.1,0.9-0.4,0.9-0.8C617.8,260.9,617.4,260.3,616.9,260z"/>
		<path class="st0" d="M610.2,241.3l0.2,0c2.4,0.2,5.3-1.7,6.5-3.6c0.4-0.6,0.5-1.1,0.4-1.4c-0.2-0.3-0.7-0.5-1.6-0.4
			c-2.9,2.1-5.8,3.8-7.3,2.6c-1.1-0.8-1-2.9,0.4-6.5l0.1-0.3l0.3-0.1c1.4-0.4,3.1-1.5,3.5-2.8c0.1-0.5,0.1-0.9-0.2-1.4l-0.1,0
			c-1.4-0.4-2.7-0.8-3-1.9c-0.2-0.8,0.3-1.8,1.6-2.9c0.3-0.6,0.6-1.1,0.9-1.5c1.1-1.6,1.7-2.6,1.4-4.5l-0.2-1.1l1.1,0.3
			c1,0.3,4.1,0.3,4.4-0.3c0,0,0.1-0.4-1.1-1.4c-2.2-0.6-3.3-3.2-3.7-5.4c-0.4-2.3-0.2-5.6,1.9-7l0.1-0.1c0.5-0.2,0.7-0.5,0.7-0.8
			c-0.1-0.8-1.7-2.2-5-2.8c-4.7-0.9-8.1-9-10.6-15c-3.3,2.1-6.8,3.7-11.8,4.5c-6.3,1-6.4,1.7-7.4,6.3c-0.1,0.4-0.2,0.9-0.3,1.5
			c-1.4,6.4-4,9.3-14,7.6l-0.5-0.2c-8.3-2.6-8.5-2.7-14.2,4.3c-1.6,1.9-2.3,3.8-2.1,5.4c0.4,2.6,3,4.5,4.9,5.8c0.5,0.4,1,0.7,1.3,1
			c2.9,2.4,2.2,9.1,1.5,15.6l-0.1,1.1l-0.4,0.2c-2.3,0.8-5.1,3.8-6.8,7.3c-1.4,2.3-2.4,3.7-3.4,4.6c0.8,2.1,1,4.2,0.8,6.1
			c0.6,0.9,2.2,2.8,3.8,2.8c0.9,0,1.8-0.6,2.6-1.9l0.1-0.1l0.2-0.1c4.5-2.3,9.7-4.8,13.8,0.7c3.9,5.3,5.5,5.9,9.2,3.8l0.1-0.1
			c0.7-0.2,1.4-0.1,2,0.4c1.7,1.5,1.7,6.2,1.5,7.1c-0.1,0.4-0.4,0.9-1,1.8c-1.3,1.9-3.6,5-2,7.3c1.7,2.5,2.2,4.1,1.5,5.1
			c-0.7,1.1-2.6,1-4,0.7c-1.2,0.6-2.2,2-2,3.1c0.1,1,1.2,1.4,2,1.6c1.3,0.2,2.7,0.1,3.8,0c2.3-0.2,4.5-0.5,5.6,2.4
			c5.3,1.7,8.4,1.8,9.6,0.3c1-6.5,2-7.8,3.3-9.3c0.5-0.5,0.9-1.2,1.5-2c1.7-3-0.6-5.2-0.8-5.4l-1-0.9l1.3-0.2c0,0,1.8-0.3,2.3-1.5
			c0.4-1.1-0.4-2.5-1.1-3.5l-0.8-1c-2.2-2.7-2.2-2.7-4.6-1.9l-1,0.3c-1.7,0-2.4-0.9-2.4-1.7c-0.1-1.2,1-2.8,3.8-3.5
			c4-0.9,11.6-5.4,11.3-10.6c0-1.7-0.3-2.8-0.4-3.6c-0.1-0.9-0.3-1.6,0.1-2.1C607.3,241.6,608.1,241.6,610.2,241.3z M605.3,213.1
			c-0.6-1.5,0.8-3.4,0.9-3.6c0.2-0.2,1.2-1.1,2.4-1.1c0.6,0,1.4,0.2,2,1.2c0.8,1,1,2.2,0.5,3.2c-0.5,1-1.7,1.7-3.1,1.7
			c-0.2,0-0.3,0-0.5,0C606.4,214.3,605.7,213.9,605.3,213.1z"/>
		<path class="st0" d="M436.1,80.8c0.9,3.1,2.9,6.6,7.1,8.1l0.2,0.1c1.9,1.3,2,2.3,2,3.2c0,0.7,0,1.3,3.6,2.8
			c6.8,2.7,14.8,3.5,19.1,1.7c4.6-1.9,12.9-2.3,17.4-1.5c1.9-1.2,1.9-5.4,1.8-7l-0.1-0.1l0.1-0.1c0-0.3,0.9-7.2,5.4-11.1
			c2.4-1.6,2-3,0.9-6c-0.4-1-0.8-2.2-1.1-3.5c-0.6-2.9-0.6-6.9,0.4-10.8c-4.4-5.3-7.2-0.6-11.5-1.6c-4.1-4.1-8.2-8.8-14.7-10.5
			c-5.8-1.2-9.4,0.6-15.8-4.1c-12.9-2.9-12.9,9.4-14.1,15.8c-1.2,6.4,3.5,8.8,4.1,18.1C441.5,83.1,439.3,81.1,436.1,80.8z"/>
		<path class="st0" d="M608.1,213.1c0.9,0,1.7-0.3,1.9-0.9c0.3-0.5,0.1-1.2-0.4-1.8c-0.4-0.6-0.7-0.6-0.9-0.6
			c-0.6,0-1.2,0.5-1.5,0.7c-0.4,0.5-0.9,1.7-0.7,2.2c0.1,0.3,0.8,0.4,1.1,0.5C607.8,213.1,608,213.1,608.1,213.1z"/>
		<path class="st0" d="M766.2,299.6c-0.3-0.3-0.5-0.6-0.8-0.9c-4.5,0.6-6.8,0-9.7-5.1c-2-3.7-4.5-5-7.1-6.3
			c-0.9-0.4-1.7-0.8-2.5-1.3l-0.1-0.1l-0.1-0.2c-1.8-3.4-8.8-3.7-8.9-3.7l-0.5,0l0,0c-1.9-0.2-4.2,0.7-6.3,1.5
			c-3.2,1.2-6.2,2.4-7.4-0.1c-0.9-1.5-3.3-2.3-5.8-2c-1.1,0.1-3.8,0.8-4.7,3.5c-0.2,0.9-0.3,1.7-0.5,2.5c-0.6,3.5-1,5.6-5.5,7.8
			c-0.5,0.2-0.9,0.4-1.4,0.5c-8.1-0.1-3.6,4.4-10.2,4.4c-2.4,0-4.8,0.7-4.8,4.2c0,0.2,0,0.4,0,0.5c-0.3,3.8-0.5,6.6-2.7,7.7
			c-0.7,0.3-1,0.9-0.9,1.7c0.1,1,1,2.4,3.3,3.1c4.6,1.5,5,3.6,5,5.8c0.2,2.2,3.4,2.7,6,2.7l0.4,0l0.2,0.3c0.1,0.2,2.9,4.8-0.1,7.6
			c-1.6,1.5-2.5,4.8-1.8,7c0.4,1.4,1.2,2.2,2.5,2.4c0.9,0.2,1.8,0.3,2.5,0.4c2.6,0.3,4,0.6,3.8,3.5c0.2,0.6,0.6,1.1,1.1,1.3
			c0.7,0.2,1.6,0,2.6-0.7c2.2-2.5,4.7-4.3,8.6-4.8c2-0.3,2-2.3,1.9-4.5c0-0.6,0-1,0-1.3c0.1-0.4,3-11.8,8.3-13.4
			c6.9-1.6,8.7-5.2,9.2-6.5l0.1-0.2c1.9-2.9,8.6-8.9,16.2-7.5c0.6,0.1,1.2,0.2,1.8,0.4c3.8,0.8,7.4,1.5,9.6-0.2
			c1.5-1.1,2.3-3.4,2.4-6.7C768.3,302.2,767.2,300.9,766.2,299.6z"/>
		<path class="st0" d="M421.8,389.4c0,0.5,0.2,2.2,3.9,2.8c4,0.7,13.6,2.5,16.5,0.1l0.4-0.3c3-2.3,5.7-4.5,13.9-4.9
			c5.2-0.3,6.6-1.5,8.2-2.8c0.9-0.7,1.9-1.6,3.5-2.3c4.5-1.8,6.5,0.6,7.3,1.7c0.1,0.1,0.3,0.3,0.3,0.4c2.8,1.9,7.2,0,12.3-5.5
			c5.3-5.5,8.6-7.8,11-9.5c1.5-1.1,2.7-1.8,3.6-3c2.3-2.9,4.3-6.3,3.2-10.4c-0.9-3.3-2.4-5.7-3-6.4c-1.3,0.2-5.1,0.5-7.5-1.5
			c-1.3-1.1-2-2.8-2-5c-0.3-1.2-0.8-2.6-1.4-4c-0.9-2.3-1.8-4.4-1.6-5.9c-1.2-0.1-2.7-0.7-4-1.3c-1.8-0.8-3.6-1.6-5.2-1.5l-0.3,0
			l-0.2-0.2c-2-1.8-8,1.9-9.9,3.4c-0.2,0.1-3.7,2.7-6.3,1.6l-0.2-0.1c-1.5-1.1-4.5-0.2-8.3,2.6c0,0-0.1,0-0.1,0
			c0.1,0.5,0.1,0.9,0,1.5c-0.4,2.2-2.2,4.3-4.4,5.2c-3.1,1.2-3.6,3.2-4.5,6.9c-0.8,3.3-4.8,4.4-8,5.4c-0.8,0.2-1.7,0.5-2.3,0.7
			l-0.3,0.1l-0.2-0.1c-0.5-0.2-0.7,0-0.7,0c-0.4,0.4-0.6,1.6-0.6,2.4c0.4,1.5,0.5,4.4-2.1,5.2l-0.1,0c-4.5,0.4-6.4,3.1-6.6,9.7
			l0,0.2l-0.1,0.1c-3.2,5.6-3.2,12.5-3.2,12.5l0,0.2l-0.1,0.2C422.8,387.7,422.5,388.2,421.8,389.4z"/>
		<path class="st0" d="M562.8,317.4L562.8,317.4l0.2,0c3.3,0.5,5.8,0.2,6.3-1c0.5-1-0.4-2.7-2.4-4.6c-4.4-4.3-3.6-23.2,1.3-28.6
			c1.6-1.8,3.5-2,5.4-0.7c0.5-0.8,1.3-1.6,2.3-1.9l0.2-0.1l0.2,0.1c1.8,0.3,2.6,0.2,2.8-0.1c0.1-0.2,0.3-1-1.5-3.6
			c-2.1-3.1,0.6-6.8,2.1-8.9c0.3-0.5,0.7-1,0.8-1.2c0.2-0.8,0-4.9-1.1-5.8c-0.2-0.2-0.4-0.2-0.6-0.1c-4.7,2.6-7.1,0.9-10.9-4.2
			c-3.4-4.6-7.6-2.6-12-0.4c-1.1,1.5-2.4,2.2-3.7,2.3c-1.7,0-3.1-1.3-4.1-2.3c-0.8,4.2-3,8-4.6,10.7c-0.7,1.3-1.4,2.3-1.7,3.1
			c-1.2,3-6.4,7.7-10.6,11.4c-1.1,1-2,1.8-2.8,2.5c-0.7,0.7-1.3,1.2-1.9,1.4c0.3,2.3,0.9,8.7-0.6,10.3c-1.5,1.5-2.6,3-0.8,6
			c0.7,1.2,1.4,1.1,1.7,1c1.4-0.2,3.2-2.4,3.7-5.2l0-0.3l0.2-0.2c0.9-0.6,1.6-0.8,2.3-0.5c0.7,0.3,1.2,1.2,1.3,2.7
			c0.1,2.3-0.8,6.2-2.8,7.3l-0.1,0.1c-2.9,0.9-3,3.1-2.8,8.1c0.1,1.5,0.1,3.1,0.1,4.8l0,0.2l-0.1,0.2c-2.3,3.2-3,4.9-1,7.4
			c1.7,0.5,2.9,1.5,3.6,2.9c0.7,1.3,0.8,2.8,0.8,3.9c2.1-0.9,6.6-2.5,10.5-0.3c4.9,2.5,16.8,2.5,18.7,0.1c1.8-2.3,2.5-6,2-7.2
			c-0.1-0.2-0.2-0.2-0.2-0.2c-1.5-0.1-4.9-2.8-5.1-5.3C557.8,319.9,558.6,318.1,562.8,317.4z"/>
		<path class="st0" d="M809.7,298.6c7.3-0.4,12.9-0.8,18.8-8.9c-0.9-0.7-1.4-1.5-1.9-2.3c-0.9,0.7-2.3,1-3.9,1
			c-3.4,0-7.8-1.4-10.4-2.7c-3.4-1.7-2.9-7.1-2.6-11.1c0.1-1.3,0.2-2.5,0.2-3.4c0-0.5-0.1-1.1-0.1-1.6c-0.1-0.5-0.1-1.2-0.1-1.6
			c-0.2,0.1-0.5,0.4-0.9,0.9l-0.2,0.2l-0.3,0c-2.1,0-3.8-0.7-5-2c-1.2-1.4-1.8-3.5-1.5-6l0.1-0.3c1.1-2,0.6-2.9,0.4-3.2
			c-1.1,0.1-4.5,0.2-6.1-2.4l-0.1-0.1c-0.7-2.6-3.3-2.6-4.1-2.5c-0.5,0.5-1.9,1.8-3.6,1.6c-1.1-0.1-2-0.7-2.7-1.9l-0.1-0.2
			c-0.6-3-1.7-3.5-5.1-5l-0.8-0.3c-3.3-1.5-4.8-5.6-4.5-12.3c0.2-2.7-1.8-5.3-2.6-6.3c-0.3,0.1-0.5,0.2-0.8,0.2
			c-1.2,0-2.6-0.8-4.1-1.8c-3.2,1.9-11.5,0.8-15.3-3l-0.1-0.2c-1.4-3.1-2.5-4.5-3.9-4.9c-0.9-0.2-2,0-3.4,0.6
			c-0.4,0.8-1.8,4.3,2,6.7c3.2,2.4,1.8,4.6,0.6,6.5l-0.4,0.6c-0.3,0.5-0.4,1.4-0.5,2.4c-0.2,2.4-0.4,5.7-5.3,5.7
			c-1.9,0-3,0.7-3.2,1.9c-0.2,1.6,1.1,4,3.4,4.8l0.4,0.2c2.3,0.8,4,1.4,4.4,2.8c0.3,1.2-0.3,2.7-2.1,5.2c-0.8,1.4-0.8,2.7-0.9,3.9
			c0,1.8,0,3.6-2.6,5.6c-3.7,2.9-5.6,7.8-4.5,11.6l1,3.6c1.8,0.1,7.4,0.7,9.4,4.2c0.7,0.4,1.4,0.8,2.2,1.2c2.7,1.3,5.6,2.7,7.7,6.9
			c2.7,4.8,4.7,5,8.7,4.4l0.4-0.1l0.2,0.3c0.4,0.4,0.7,0.8,1,1.3c2.2,2.8,3.8,5,10,0.7c9.2-6.4,15.1-7.9,18.2-4.4
			c2.4,2.6,3.5,6.7,3.2,12C803.6,303.3,807.4,300.3,809.7,298.6z"/>
		<path class="st0" d="M493.9,58.1c-0.7,3.3-0.6,6.7-0.1,9.1c0.2,1.1,0.6,2.2,1,3.3c1,2.6,2.1,5.3-1.3,7.5
			c-3.8,3.3-4.8,9.4-4.9,10.1c0,0.8,0.4,6.5-2.5,8.2c-0.7,1.2,2.4,6.3,5.8,10.4l0.2,0.3l0,0c2.1,2.7,4.3,4.9,7.7,7.1
			c3.1,1.9,2,7.5,1,12.4c-0.3,1.8-0.7,3.4-0.7,4.7c-0.1,2-0.6,3.2-1,4c-0.5,1.2-0.6,1.6,0.7,2.8c1.7,1.6,4.4,4.7,3.8,6.5
			c-0.2,0.4-0.6,1-1.9,1c-2.1,0-3.1,0.6-3.4,4.5l-0.1,0.9c-0.2,3.2-0.4,4-3.9,5.2l-0.2,0c-0.9,0-1.7,0.4-2.2,1.2
			c-1.6,2.4-1.1,7.4,0,9.9c0.5,1.3,1.5,1.5,3.6,1.7c2,0.2,4.7,0.5,8.2,2.4c3.7,2.6,7.5,3.2,10.9,3.7c2,0.3,3.8,0.5,5.2,1.2
			c0.4-1.8,0.7-4.2,0-5.2c-1.4-0.4-2.2-1.4-2.3-2.6c-0.1-1.1,0.7-2.1,2-2.7c-0.3-2.4-0.5-5.3,1.1-7.4c1-1.3,2.7-2,4.8-2.3
			c6.1-0.6,8-1.3,10.6-6.3c2.3-4.5,3.3-9.2,3.5-10.2c-0.2-0.5-0.7-2,0.2-3.5c0.9-1.5,3.1-2.4,6.3-2.4c7.3-0.9,10.2-2.8,10.2-7
			c0-1.2-0.2-3.1-0.5-5c-0.7-5.7-1.4-12.1,1.7-13.6c3.2-1.5,7.1-3.3,7.5-5.6c0.2-1.2,0.2-4.3,0.1-7.1c-2.2-2.4-7.4-8.9-11.5-15.8
			c-4.4-8.2-4.4-8.2-12-7c-12.9-2.9-17.6-3.5-17.6-3.5s-3.5,3.5-8.2,0c-5.8-15.8-12.3-11.7-21.6-10.5
			C494.1,58.4,494,58.2,493.9,58.1z"/>
		<path class="st0" d="M845.2,275.7c0.9-5.4,0.9-4.5,4.5-6.7c5.4-0.4,8.5-2.7,10.3-7.6c4-4,5.8-7.2,9-13c3.1-5.9,0.4-12.1-1.3-16.6
			c0.4-3.1,1.4-8-0.9-7.6c1.3-6.8,0.5-12.1-4.6-17.2c-2.2,2.3-4.7,4.3-6.2,4.6c-2.2,0.3-2.9-1.3-3.5-2.6c-0.4-0.9-0.8-1.9-1.7-2.5
			c-1.4-1-2.5,0-5.1,3.2c-0.4,0.6-0.9,1.1-1.4,1.7c-1,1.1-1.9,1.6-2.8,1.3c-1.8-0.5-2.3-3.6-2.4-4.2l-0.1-0.3l0.2-0.2
			c0-0.1,0.7-1.1-1-2.6c-1.2-1-2.4-1.4-3.2-1.1c-0.9,0.4-1.2,1.5-1.3,2.5c-0.5,3.4-2.3,4.3-4,5.2c-0.8,0.4-1.6,0.8-2.3,1.5
			c1.2,1.8,4.9,7.7,2.8,11.7l-0.1,0.2l-0.1,0.1c-2,1.5-4.1,4.6-3.6,6.3c0.1,0.2,0.3,1,1.9,1.2c2.3-0.3,3.9,0.3,4.5,1.7
			c0.5,1.5-0.4,3.2-2.2,4.5l-0.3,0.1c-3.7,0.6-4.3,2.7-5.3,5.7c-0.2,0.5-0.3,1.1-0.5,1.7c-0.3,0.6-0.6,1-0.8,1.4
			c-1.3,2.5-1.9,3.5-4.7,2.8c-0.6-0.2-0.7,0.1-0.7,0.3c-0.2,1,0.7,3.1,3.1,3.8c3.4,0.9,5,4.2,4.2,8.8c-0.4,2.2,0.5,2.4,2.5,2.8
			c0.6,0.1,1.2,0.3,1.8,0.5l0.2,0.1l0.1,0.2c0.6,1,0.7,2.1,0.3,3.1c-0.7,1.6-2.5,2.5-3.4,2.7c-0.2,0-1.3,0.3-1.7,1.2
			c-0.5,1.1-0.1,2.8,1.1,5c0.5,1.4,0.6,2.7,0.7,3.9c0.2,2.1,0.4,3.9,2.3,5.5c0.1-0.1,0.2-0.2,0.2-0.3
			C838.5,281.1,842.9,279.8,845.2,275.7z"/>
		<path class="st0" d="M742.2,220.9c-2.3,1.6-4.2,2.2-5.7,1.8c-2-0.5-3-2.5-3.8-4.2c-0.2-0.3-0.3-0.7-0.5-1
			c-4.8-1.5-5.2-5.1-5.2-5.2l0-0.1l0-0.1c0,0,0.7-2.8-0.6-4.5c-2.5-2-2.9-4.2-2.4-5.6c0.3-1,1.1-1.7,1.9-1.8c0.7-0.5,1.1-1,1.1-1.5
			c0-0.8-0.9-1.6-1.2-1.8c-0.5-0.3-1-0.4-1.4-0.3c-1.3,0.3-2.3,1.9-2.3,1.9l-0.2,0.3l-6.5,0l0,5.7l-9.8,0c-0.9,0.8-4.9,3.8-8.4,2.2
			l-0.2-0.1l-0.1-0.1c-0.3-0.4-0.7-0.7-1.2-0.7c-1.2-0.1-2.9,1.2-3.4,1.8l-0.2,0.2c-0.2,0-2.7,1.2-5.1,1.2c-1.3,0-2.6-0.3-3.3-1.5
			l-0.1-0.2l0-0.2c0-1.4-0.6-2.4-1.8-2.6c-1.1-0.2-2.2,0.2-2.6,1c-1,2-3.6,2.2-5.1,2.2c0,0.2,0.1,0.3,0.1,0.3c0.4,3.5-1.1,7-3.3,8.2
			l-0.3,0.1c-2.1,0.2-3.4,0.7-4.3,1.7c-1.1,1.3-1.5,3.5-1.1,7c0.3,3,1.2,5.1,1.9,6.7c0.8,1.9,1.5,3.4,0.4,5.2l-0.2,0.2
			c-1.1,0.8-1.7,1.6-1.7,2.4c0,1.4,1.6,2.5,1.6,2.5l0.4,0.3l-0.1,0.5c0,0-0.1,0.4-0.4,1.1c1.7,0.8,6.5,3.9,6.8,11.8
			c0.7,2.7,6.6,2.8,8.9,2.6c0.5-0.2,5.2-2.1,7-1.1c1.1,0.6,1.2,1.5,1.4,3.1c0.7,3.8-4.9,6.4,1.6,10c0.9,0.5,5.1-3.3,5.8-2.1
			c0.8,1.4,3.3,5,0.8,9.8c-1.6,3-0.2,3.3-0.1,7.4c0.6,3.8,1.4,7.7,3.4,8.7c0.8,0.4,1.8,0.3,3.1-0.3c3.9-1.9,4.2-3.4,4.8-6.8
			c0.1-0.8,0.3-1.6,0.5-2.6c0.7-2.5,2.9-4.1,5.8-4.5c3-0.4,5.9,0.7,7.1,2.7c0.7,1.3,2.7,0.7,5.8-0.6c2.1-0.7,4.4-1.6,6.4-1.6
			l-0.9-3.2c-1.2-4.4,0.8-9.8,5-13c2.1-1.6,2.1-2.9,2.1-4.6c0-1.3,0.1-2.9,1.1-4.6c1.5-2,2.1-3.3,1.9-4c-0.2-0.8-1.7-1.3-3.5-1.9
			l-0.5-0.2c-2.7-0.9-4.7-3.8-4.3-6.2c0.2-0.9,0.9-3,4.5-3c3.6,0,3.7-2.1,3.9-4.5c0.1-1.1,0.2-2.2,0.7-3l0.4-0.7
			c1.2-2,1.9-3.1-0.2-4.7c-3.4-2.1-3.5-5-3-6.8C742.9,220.4,742.6,220.6,742.2,220.9z"/>
		<path class="st0" d="M656.9,242.1c0.9,0.1,2,0.7,2.6,2.7l0,0.1c0.3,4.7,0.8,7.2,1.5,7.4c0,0,0.7,0.1,2.3-2.4
			c1.7-3.7,2.5-6.1,2.8-7c-0.6-0.6-1.8-1.8-1.8-3.3c0-1.2,0.7-2.4,2.1-3.5c0.6-1.1,0.3-2-0.6-3.9c-0.7-1.7-1.6-3.9-1.9-7.1
			c-0.4-3.8,0.1-6.3,1.5-7.9c1.1-1.3,2.7-2,5.1-2.2c1.5-0.9,2.8-3.6,2.5-6.6c-0.2-2-1.3-5.5-6.1-6.9l-0.3-0.1l-0.1-0.3
			c-0.6-1-0.6-2.1,0-3.2c1.2-2,4.3-3.2,5.6-3.2c0.5,0,2.2-1.5,2.4-3.4c0.3-2.2-1.3-3.9-4.6-5.1c-1.3-0.2-2.2-1.2-2.3-2.6
			c-0.2-2.1,1.4-4.6,3.3-5.4c1.4-0.4,3.4-3.9,3.2-7.3c-0.1-1.7-0.8-3.9-3.8-4.6c-5.5-1.3-9.2-2-10.7-2.2l0,0.5l-1-0.8
			c-1.7-1.3-10.4-0.6-15.7,1.2c-3.1,1.9-14.8,4.5-21.5,4.5c-0.1,0-0.1,0-0.2,0c-5.7,0-7.3,2.2-7.4,2.3c-0.2,0.4-2.3,4.6-7.6,7.9
			c-0.8,0.5-1.6,1-2.4,1.5c-0.5,0.3-1,0.6-1.5,0.9l0,0.1c2.3,5.4,5.7,13.6,9.7,14.4c3.4,0.6,5.9,2.2,6.1,4c0.1,0.9-0.4,1.8-1.4,2.2
			c-1.2,0.9-1.7,3.1-1.3,5.7c0.4,2.3,1.6,4.1,2.9,4.4l0.2,0.1c0.6,0.5,2.3,1.8,1.6,3.1c-0.7,1.3-3.5,1.3-5.1,1.1
			c0,1.8-0.7,3-1.7,4.4c-0.3,0.5-0.6,1-1,1.6l-0.1,0.1c-1.3,1.2-1.2,1.6-1.2,1.6c0,0.4,1.2,0.7,2,1l0.5,0.1l0.1,0.2
			c0.7,0.8,0.9,1.9,0.6,2.8c-0.5,1.6-2.4,3-4.2,3.5c-1.5,3.9-0.8,4.5-0.7,4.6c0.3,0.2,1.4,0.4,5.9-2.8l0.1-0.1l0.2,0
			c1.5-0.1,2.5,0.3,3,1.1c0.4,0.7,0.3,1.7-0.4,2.8c-1.5,2.2-4.8,4.4-7.8,4.2c-1.1,0.1-2.2,0.2-2.4,0.4c0,0.1,0.1,0.6,0.2,1
			c0.2,0.7,0.3,1.6,0.4,2.9c1.4-0.6,4-1.1,6.6,0.8l0.2,0.2c0.6,1.1,0.9,1.9,1,2.4c0.3,0.9,0.3,0.9,3,1.2l0.2,0
			c1.7,0.4,3.1,1.2,4.4,2c2.5,1.5,4.5,2.7,7.5,0.2l0.1-0.1c0.6-0.3,1.1-0.5,1.6-0.8c2.6-1.3,3.1-0.9,5.3,2.6
			c0.9,1.3,1.8,1.9,2.4,1.8c0.5-0.1,1-0.9,1.1-1.6c0.1-0.3,0.1-0.8,0.6-1c0.4-0.2,0.7,0.1,1,0.3c0.5,0.3,1.4,1,3.7,0.7
			c2.5-3.3,3.7-6.6,3.1-7.3c-0.4-0.6-0.2-1.3,0.4-2.4C651.9,244.3,654.6,241.7,656.9,242.1z"/>
		<path class="st0" d="M796.4,185.2c-0.2-4-0.7-7.3-3.5-7.7c-5.6-1.2-18.5-3.9-22.3-11.4c-2.3-5.3-10.2-8.3-13.3-8.5
			c-0.9,0.5-1.8,1.1-2.8,1.6l-0.1,0c-0.4,0.1-0.9,0.2-1.3,0.2c-1.1,1.9,0.1,4.4,1.1,6.5l0.2,0.5c0.3,0.7,1.1,2.9,0,3.8
			c-0.9,0.7-2.3,0.2-3.4-0.6l-0.2-0.1l0-0.2c-0.3-1.1-1.3-1.9-2.5-1.9l0,0c-1.3,0-3.1,1-3.8,3.6l-0.7,2.6l-0.6-2.7
			c-0.2-0.9-0.6-1.1-0.8-1.2c-1.1-0.5-3.4,0.7-5,1.6c-1.1,0.6-2.2,1.3-3.5,2.2c-2.3,1.4-4.7,3-6.9,3.9c-1.9,0.7-2.8,1.9-2.8,2.7
			c0,0.7,0.5,1.1,0.9,1.3c1.4,0.7,2.1,1.2,2.3,2.1c0.2,0.7-0.1,1.4-0.6,2.4l-0.3,0.5l-0.5-0.1c-1.1-0.4-1.9-0.3-2.3,0
			c-0.4,0.4-0.4,1.2-0.1,2.2l0.1,0.4c0.6,2.2,0.9,3.3,3,6.7c0.4,0.3,1.7,1.3,1.7,2.8c0,1-0.6,1.9-1.8,2.7l-0.2,0.1l-0.2,0
			c-0.3,0-0.6,0.3-0.8,0.8c-0.4,1,0,2.7,2,4.2l0.1,0.1c1.6,2,1.1,4.9,0.9,5.6c0.1,0.5,0.7,3,4.5,4l0.3,0.1l0.1,0.2
			c0.2,0.4,0.4,0.8,0.7,1.3c0.8,1.5,1.5,3,2.9,3.4c1.1,0.3,2.7-0.2,4.6-1.6c3.2-2.2,5.5-3,7.4-2.4c2.1,0.6,3.4,2.6,4.8,5.5
			c3.7,3.5,11.7,4.3,13.8,2.6l0.4-0.3l0.4,0.3c1.1,0.7,3.3,2.2,4.2,1.7c0.5-0.2,0.7-1.1,0.8-2.5c-0.2-5.6,0.9-8.2,4.5-13.4
			c1.7-8.4,0.9-14.7,0.9-14.7l0-0.2l0-0.1c0-0.1,1.4-5.8,10.6-4.1c3.5,0.5,5.8,0.3,6.8-0.7c0.9-0.9,0.8-2.4,0.5-3.9
			C796.4,186.8,796.4,186.1,796.4,185.2z"/>
		<path class="st0" d="M541.4,436.7c6.3-5.4,13.9-4,16.6-5.8c6.3,0.4,9.9,1.4,12.1-2.7c3.4-1.5,6.3-2.6,9.1-3.7
			c-0.5-2.8-1.2-6.1-2.2-7.9c-0.8-1.7-3-1.2-6-0.3c-1.7,0.5-3.3,0.9-4.5,0.6c-1.9-0.5-1.5-3.1-0.8-6.8c-2.1-3.1-4.5-3.9-6-3.6
			c-1.2,0.2-2,1-2.2,2.2c-0.4,1.9-1.4,3.3-2.9,3.8c-1.7,0.6-3.8-0.1-6-2c-2.7-1.2-4.6-1.4-5.7-0.7c-1,0.6-1.7,2-2,4.3
			c-0.4,3.2-1.6,3.9-2.5,4c-0.1,0-0.1,0-0.2,0c-1.4,0-2.7-1.5-3.5-3.9l-0.1-0.4c-0.4-1.1-0.8-2.3-1-2.4c-0.2-0.1-0.9,0.3-1.6,0.7
			l-0.6,0.3c-0.9,0.3-1.9,0.4-2.8,0.4c0.1,0.4,0.2,1,0,1.5c-0.2,0.5-0.6,1.1-1.8,1.3c0,0,0,0-0.1,0c0.2,0.5,0.4,1.1,0.6,1.6
			c0.2,1.1,0.4,1.9,0.6,2.5c0.3,1.1,0.5,1.8,0.1,2.5c-0.4,0.7-1.2,1-2.6,1.4c-0.7,0.2-2.4,0.6-2.4,1c-0.1,0.3,0.2,1.1,2.6,3.3
			c2.8,1.2,4.2,2.9,3.9,4.4c-0.4,1.2-1.8,1.9-3.8,1.8c-0.1,0.4-0.2,0.9-0.3,1.3c-0.2,1.2-0.4,2.4-1.4,2.8c-0.8,0.3-1.9-0.3-3.4-1.8
			c-1.8-1.8-2.3-1.6-2.3-1.6c-0.3,0.1-0.4,1.5-0.5,2c0,0.3-0.1,0.6-0.1,0.9c0,0.2-0.1,0.7-0.6,0.9c-0.5,0.2-1-0.1-1.3-0.5
			c-0.9-0.7-1.5-1.1-2.5-0.1c-0.5,0.5-0.5,1.5-0.5,2.2c0.2,1.9,1.2,4.4,2.3,6.5c1,0.2,2,0.5,2.6,1
			C523.9,452.4,533.7,441.6,541.4,436.7z"/>
		<path class="st0" d="M467.6,448.9c1-0.9,1.9-1.8,2.6-2.8c0.6-1,0.7-1.5,0.6-1.7c-0.1-0.1-0.5-0.6-3.5-0.2c-1.5,0.5-3,0.7-4.5,0.7
			c-9.2,0-16.9-8.1-17.7-9.3c-0.2-0.3-0.1-0.7-0.1-1.3c0.1-1.5,0.3-4.5-3-9.7c-3.5-5.4-2.9-8.2-2.2-11.4c0.2-1,0.4-2.1,0.6-3.3
			c0.4-4.9,2.9-8.8,7.9-12.2c3.1-2.1,2.7-6.7,2.5-8.5c-3.3,0.9-5.1,2.3-7.1,3.8l-0.5,0.3c-1.3,1-3.5,1.4-6.2,1.4
			c-3.3,0-7.3-0.6-11.4-1.3c-2.9-0.5-4.1-1.7-4.7-2.7c-0.3,0.5-0.7,1.1-1.1,1.8c-1.1,1.4-3.1,1.8-5.5,1.4c-2.1-0.4-4.7-1.7-5.4-3.6
			c-0.2-0.9-0.7-2.4-1.8-2.4c-0.1,0-0.1,0-0.1,0c-1.5,0-3.6,2.6-4.6,6.8c-0.6,3.9-2.3,5.3-3.6,5.7c-0.4,0.1-0.8,0.2-1.2,0.2
			c-1.7,0-3.6-1-5.1-2.7l-0.1-0.2c-0.8-1.8-1.8-2.6-2.7-3c1.1,7.5,0,11.4-1.5,13.5c1.5,0.3,3.2,1.2,3.6,3.4c1,1.3,3.2,0.4,4.4-0.3
			c1.6-0.9,3.6,0.4,6.5,2.1l0.3,0.2c2.2,0.1,5.1,1.1,6.7,3.1c0.9,1.2,1.3,2.6,0.9,4c-0.4,4.6-0.8,8.5,2.8,10.3c1.8,0.9,5.9,3.2,6,6
			c0.1,0.8-0.2,2-1.7,3c-2.4,1.6-3.8,3.9-3.6,5.5c0.1,1,1,1.8,2.6,2.3c2.3,1,4.5,3.6,5.6,6.6c0.7,2,0.7,3.8,0,5.1
			c-1.1,2.9-0.5,9.9,3.2,11.9l0.2,0.1l0.1,0.2c1.9,3.2,5.7,5.7,8.9,5.9c1.1,0.1,2.5-0.1,3.5-1.3l0.1-0.1c3.2-2.2,6.2-0.8,8.6,0.4
			c1,0.5,2,1,2.9,1c0.8,0.1,1.7,0.3,2.7,0.5c3.6,0.7,8.9,1.8,10.8-0.4c-1.1-1.6-2.1-3.2-2.8-5c-3-7.6,0.2-15.2,3-18.6
			C464.5,451.9,466.1,450.3,467.6,448.9z"/>
		<path class="st0" d="M579.3,380.4c1.2,0.2,2.3,0.4,3.4,0.5c1.2,0.1,2-0.1,2.4-0.6c0.5-0.8,0.1-2.3-0.2-3c-1.3-0.3-2.8-0.5-4.4-0.9
			l-0.2-0.1c-2-1.4-3.1-3-3.3-4.8c-0.2-2.3,1.3-4,1.8-4.5c0,0,0-0.3,0-0.4c-0.1-0.1-0.5-0.3-1.2-0.3c-2,0-3.1-1.2-3.7-2.2
			c-0.6,0-1.5,0-2.9-0.2l-1.1-0.1c-3.8-0.5-6.8-0.8-7.9,0.7c-1.7,2.6-4,2.4-9.7,0.6c-3.1-1-3.7,0.2-4.7,2.4
			c-0.6,1.3-1.4,2.8-2.8,3.9c-2.1,1.7-3.5,1.7-4.7,1.6c-1,0-1.8-0.1-2.9,0.8c-1.8,1.4-1.8,2.2-2.1,5.2c-0.1,1.4-0.3,3.2-0.7,5.7
			c-0.5,3.3-1.7,5.5-3.3,6.5c-1.5,0.9-2.8,0.5-2.9,0.4c0,0-4-1-8.5,0.4c-3.1,2.6-5.6,3.5-7.5,3.5c-2.2,0-3.9-1.2-5.5-2.3
			c-0.6-0.4-1.2-0.8-1.8-1.2c-1,0-2.2,0.1-3.4,0c-0.3,1.1-0.9,3.9,0.3,6c0.6,1.1,1.7,1.7,3.2,2c7-0.9,13.7-0.9,15.9,4.7
			c1.6,4.1,5.1,7.9,9.9,6.3l0.5-0.3c1.3-0.6,2-1,2.8-0.7c0.7,0.3,1,1.2,1.7,3.2l0.2,0.5c0.7,2,1.7,3,2.3,3c0.5,0,1.1-0.8,1.4-2.9
			c0.3-2.8,1.2-4.5,2.7-5.3c1.6-0.9,3.9-0.7,7,0.7l0.2,0.1c1.8,1.6,3.5,2.3,4.8,1.8c1-0.3,1.7-1.3,2-2.8c0.3-1.7,1.5-3,3.2-3.3
			c1.8-0.3,4.4,0.3,6.6,3.2c0.5-2.6,1.1-5.5,1.1-8.3c0-2.6-0.4-4.8-0.7-6.7c-0.5-3.5-1-6.4,0.8-9.9
			C569.6,378.9,574.8,379.7,579.3,380.4z"/>
		<path class="st0" d="M452.1,496.3c5.8-0.5,7.2-1.4,11.2-8.5c1.1-2.1,2.2-3.8,3.5-5.7c-0.9-1-1.9-2.1-2.8-3.2c-1.2,1.2-3,1.6-5,1.6
			c-2.3,0-4.8-0.5-6.9-1c-1-0.2-1.9-0.4-2.6-0.5c-1-0.1-2.2-0.7-3.3-1.2c-2.3-1.1-4.6-2.2-7.2-0.5c-1,1.2-2.6,1.8-4.5,1.7
			c-3.5-0.2-7.7-2.9-9.8-6.4c-3.8-2.1-4.7-7.9-4.1-11.6c-1.6-1-4.3,1.5-7.3,4.4l-0.3,0.2c-2.8,2.9-6.7,6.8-11.1,3.9
			c-2.2-1.4-3.6-0.5-5.9,1.2c-1.1,0.8-2.3,1.8-3.8,2.3c-2,0.8-2.4,5-2.9,9.5c-0.3,3.4-0.7,7.3-1.9,10.5c-2.8,6.6-13.6,9.3-15.8,9.8
			c-0.2,0.9-1,3-2.5,5.1c1.9,0.9,6.3,3.4,6.5,6.6c0.1,1.9,0.7,3.3,1.7,3.8c0.7,0.4,1.8,0.4,3-0.3c3-1.5,10.3-5.1,14.1-0.3
			c2.9,3.7,6.5,3.5,12,1.8c5-1.5,12.4-1.5,13.9-0.1c0.1,0,0.5-0.2,0.8-0.3c0.8-0.4,1.9-0.9,3-0.4c1,0.6,1.6,1.9,2,4.1
			c1.6,2.9,4,4.8,6.6,5.4c2.3,0.5,4.7,0,6.7-1.5c4.6-3.1,6.5-2.2,9.7-0.7c0.5,0.2,0.9,0.4,1.4,0.7c4.3,1.9,13.7,2.6,16.1,0.1
			c1.1-1.2,2.6-3.4,4-5.4c-0.6-0.1-1.2-0.3-1.9-0.6c-5.8-3.6-9-10.7-13.5-13.9c-3.6-1.4-2.7,3.2,0.5,4c4,3.6-0.5,4.5-4.5,3.6
			C445.8,512.9,446.2,499.4,452.1,496.3z"/>
		<path class="st0" d="M856,141.9c0.3-1.8,0.5-3.4,0.6-5c-1.1,0.3-2.2,0.4-3.3,0.4c-1.4,0-2.7-0.2-3.8-0.7c-3.3-1.3-5.7-4.4-7.5-9.3
			c-2.4-2.1-9.3-1.1-14.9-0.4c-1.8,0.2-3.5,0.5-5.1,0.6c-0.3,0-0.7-0.1-1-0.2c-1.7,0.8-14.4,7.2-21.3,9.8c-3.5,1.3-6,1.8-8.4,2.3
			c-2.6,0.5-5,1.1-8.6,2.5c-3.6,1.5-5.4,2.8-5.8,4.3c-0.4,1.4,0.4,3.2,2.5,5.9c0.3,0.5,1.4,2.1,0.6,3.2c-0.7,0.9-2.6,1.9-11.7-0.9
			c-4-1.8-6.3-0.4-9.4,1.7c3.9,0.9,10.7,4,12.8,9c3.5,6.9,16,9.5,21.4,10.6c4.1,0.6,4.4,5.5,4.6,9c0,0.8,0.1,1.5,0.1,2.1
			c0,0.3,0.1,0.7,0.2,1c1.5-0.4,4.6-1,6.5,0.1c0.9,0.5,1.4,1.2,1.6,2.2c0.2,1.5,0.7,2.2,1.1,2.2c0.4,0,1.2-0.6,1.9-2.4
			c0.8-2.2,2.3-2.4,2.8-2.3c1.8,0.2,3.3,2.5,3.6,5.3c0.1,0.9,0.1,1.9,0.1,2.8c0,3.1,0,6.3,1.8,8.2c1.1,1.5,0.8,3.3,0.4,4.3
			c2.1,0.6,6.7,2.2,8.5,3.7c0.8-0.7,1.7-1.2,2.5-1.6c1.7-0.9,2.9-1.5,3.3-4.2c0.3-2.3,1.3-3.2,2.1-3.5c1.3-0.5,3-0.1,4.6,1.3
			c1.9,1.7,1.8,3.3,1.4,4.1c0.2,1.1,0.7,2.7,1.4,2.9c0.3,0.1,0.8-0.3,1.4-1c0.5-0.6,0.9-1.1,1.4-1.7c2.3-2.9,4.4-5.4,7-3.5
			c1.2,0.9,1.7,2.2,2.2,3.1c0.6,1.4,0.9,2,2,1.9c1.2-0.2,3.3-2.1,5.4-4.1c-7.8-5.6-7-5.8-10.9-13.7c-2.2-8.1,4.9-14.8,6.7-17.9
			c1.8-3.1,5-5.4,3.6,0c-1.4,5.4,5.8,5.4,8.5,2.2c3.6,2.3,4.5,0,4.5-2.7c4.1,0.9,4.5-4.5,4.5-4.5s0,0,0.9-2.7c0-3.2,0-3.6,3.6-5.8
			c3.2-4.9,0-4.9-3.6-4.1c-1.3-1.9-3.6-1.3-4.9-1.6c-3.1,0.1-1.8,3.4-4.5,0c-1.3-5.2-3.5-2.2-3.5-2.2c-3.5,2.9-3.5,2.9-6.4,0
			C854.9,147.2,855.4,146,856,141.9z"/>
		<path class="st0" d="M369.6,480.9c-0.5,0.4-0.9,0.8-1,3.3c-0.2,3.2,0.2,4.2,0.7,5.6c0.3,0.8,0.7,1.7,1,3.2
			c0.7,3.1,1.1,6.9,1.3,8.5c2.7-0.6,12.1-3.2,14.5-8.9c1.1-3,1.5-6.8,1.8-10.2c0.5-5.1,1-9.6,3.7-10.6c1.3-0.5,2.4-1.3,3.4-2.2
			c2.2-1.6,4.4-3.3,7.5-1.3c3.4,2.3,6.6-0.9,9.4-3.7l0.3-0.3c2.5-2.6,5.9-5.9,8.5-4.9c0-0.1,0.1-0.3,0.2-0.5c0.6-1,0.5-2.5-0.1-4.1
			c-0.9-2.5-2.9-4.9-4.8-5.8c-2.5-0.8-3.3-2.3-3.4-3.4c-0.3-2.4,1.9-5.1,4.2-6.7c0.8-0.6,1.2-1.1,1.2-1.8c-0.1-1.4-2.2-3.3-5.3-4.8
			c-4.5-2.2-4-7-3.5-11.6l0-0.2c0.2-1,0-2-0.7-2.8c-1.3-1.7-4-2.7-5.8-2.7l-0.2,0l-0.6-0.4c-2.3-1.5-4.2-2.6-5.1-2.1
			c-2.9,1.6-5.1,1.5-6.3-0.2l-0.1-0.2l0-0.1c-0.3-2.2-2.6-2.6-3.3-2.7c-1.1,1.1-1.8,1.8-2.2,2.2c-0.7,0.8-0.9,0.9-1.7,0.9
			c-0.2,0-0.5,0-1,0.1c-1.6,0.3-1.7,0.5-2.2,3.2c-0.1,0.5-0.2,1-0.4,1.7l0,0.1c-0.9,4-2.2,9.5-7.2,9.3c-0.7,0-1.2-0.1-1.7-0.1
			c-2.7-0.2-2.7-0.2-4.1,3.7c-0.7,2-2,3.6-3.3,5.1c-2.1,2.6-4,4.9-2.6,8.3c0.7,1.6,1.1,3,1.5,4.2c0.9,3,1.2,3.7,3.7,3.4
			c2-0.2,3.3,0,4.1,0.9c1.1,1,1,2.7,0.9,4.1c-0.2,2.3,0.5,3.7,2.3,4.5l0.2,0.1c1.1,1.3,1.6,3.5,1.2,5.6c-0.3,2-1.3,3.6-2.8,4.4
			c-1.7,0.9-1.6,1.4-1.3,3c0.2,0.9,0.3,2,0.3,3.5C370.7,479.7,370.2,480.3,369.6,480.9z"/>
		<path class="st0" d="M767.5,325.1c12.3-5.3,22.3-11.7,29.6-17c0.5-5.4-0.4-9.7-2.8-12.1c-2.5-2.9-8.1-1.3-16.4,4.6
			c-3,2.1-5.2,2.8-6.9,2.6c-0.2,3.6-1.2,6.1-2.9,7.5c-2.7,2.1-6.7,1.3-10.7,0.5c-0.6-0.1-1.2-0.2-1.8-0.4
			c-6.5-1.2-12.8,3.8-14.7,6.8c-0.6,1.7-2.7,5.6-10.1,7.4c-3.7,1.1-6.6,9.4-7.4,12.5c0,0.1,0,0.5,0,0.9c0.2,1.8,0.4,5.5-3,5.9
			c-3.5,0.4-5.6,2-7.7,4.3c0,0.6,0,2.5,1.8,4.8c0.5-0.5,0.9-0.9,1.3-1.3c4,0,7.2-0.5,11.2-3.2C734.3,346.2,750.1,334,767.5,325.1z"
			/>
		<path class="st0" d="M637.9,336.8c-2.4-3.5-1.9-6.7-1.9-7.3c0-0.4-0.2-0.6-1.4-1.1c-1.4-0.6-3.5-1.4-5.7-4.3
			c-0.5-1-0.9-1.8-1.3-2.5c-1.5-3-1.8-3.6-5.4-3.3c-3.8,1.1-9.4,2.2-12.8-2c-1.1-1.4-1.4-1.2-1.9-1c-1,0.4-2.1,0.7-4.1-1.5
			c-1.6-1.7-2-3-2.2-4c-0.3-1.3-0.6-2-3.6-3.2c-2.8-1-4.3-2.4-4.7-4.1c-0.3-1.5,0.4-2.6,0.8-3.1c0.3-0.3,1.2-1.4,0-3.8
			c-1.2-0.7-1.9-1.5-2-2.5c-0.1-0.5,0-1,0.3-1.4c-2.2,0-4.8-0.7-7.2-1.5l-0.3-0.1l-0.1-0.3c-0.7-2.1-1.8-2.1-4.3-1.8
			c-1.2,0.1-2.6,0.3-4.1,0c-2.6-0.4-3.1-2.1-3.2-2.7c-0.1-0.5,0-1,0.1-1.4c-1.4-1-2.6-0.9-3.7,0.3c-4.3,4.8-5.3,23-1.4,26.7
			c3.2,3.1,3.3,5.1,2.7,6.2c-0.9,1.7-3.6,2.3-7.7,1.7c-1.8,0.3-3.8,1-3.8,2.5c0.1,1.9,3,4.1,3.8,4.1c0.4,0,0.8,0.2,1.1,0.6l0.3-0.5
			c4.1,2.7,6.2,5.3,6.8,8.2c0.8,3.9-1.5,7.9-4.2,11.7c-0.9,1.3-1.9,3.3-1.2,4.6c1,1.7,4.5,1.8,5.7,1.7l0.6,0l2.2,10.6
			c0.4,0.3,0.6,0.7,0.5,1.1c0.5,0.7,1.3,1.6,2.6,1.6c1.2,0,2,0.3,2.4,1c0.1,0.2,0.2,0.5,0.2,0.7c4.3-0.5,8.9-1.2,9.8-1.9
			c0.2-1,0.8-1.4,1.2-1.6c1.3-0.5,3.2,0.7,3.9,1.2c2.2-0.2,5.7-1,6.4-2.2c0.1-0.2,0.2-0.5-0.1-1.1c-2.1-1-3.7-1.4-5-1.8
			c-1.9-0.5-3.2-0.8-4.3-2.5c-0.8-1.1-0.8-2.3-0.2-3.3c0.9-1.4,3.1-2.2,5.3-2c2.5-0.8,3.5-2.7,3.5-2.8c0-0.1,1.2-2.2,3.3-2.7
			c1.1-0.3,2.3,0,3.4,0.8c0.4,0.1,0.9,0.2,1.4,0.3c4.5,0.9,8.4,1.6,8.2,6.6c0.2,2.6,1,4.4,2.2,5.1c0.8,0.5,1.8,0.5,2.9,0
			c2.5-0.9,3.8-1,5.7-1.1c0.8,0,1.7-0.1,2.9-0.2c4.8-2.7,5.5-5.1,5.5-5.1c0.1-0.4,1.1-3.1,3-3.9c-0.7-1.9-1-3.3-1.1-3.4l0-0.2l0-0.2
			C637.9,344.7,639.1,340.1,637.9,336.8z"/>
		<path class="st0" d="M658.1,349.4c-0.8,1.8-1.2,4.5-0.2,6.4c0.6,1.2,1.6,1.9,3,2.2c3,0.5,3.2,2.3,3.4,3.2c0,0.2,0,0.3,0.1,0.4
			c0.1,0.3,0.8,1.5,1.5,1.6c0.7,0.1,1.3-1,1.7-1.7c1.2-3,1.9-4,2.8-3.9c0.9,0.1,1.2,1.1,1.4,2.7c0.7,0.5,1,0.6,1.5,0.6
			c0.8,0.1,1.4,0.3,2.3,1.6l0.1,0.1l0,0.2c0.4,5.1,1.2,5.4,1.2,5.4s0.3,0,0.9-0.8c1.2-1.7,2.1-2.3,2.8-2c0.3,0.1,0.4,0.3,0.5,0.5
			c0.9-0.9,2.4-2.1,4.2-2.5l0.1,0l0.1,0c3.7,0.2,7.7-1.1,8.3-4.6c0.2-2,0.8-3.3,1.8-4.1c0.6-0.4,1.3-0.6,2.1-0.6
			c1.7-3.5,5.5-6.1,9.3-6.6c0-0.1-0.1-0.2-0.2-0.4l0-0.1l0-0.1c0.1-1.8,0-1.9-2.6-2.2c-0.7-0.1-1.6-0.2-2.6-0.4
			c-1.7-0.4-3-1.6-3.5-3.4c-0.8-2.7,0.2-6.5,2.2-8.3c1.9-1.7,0.6-4.6,0-5.6c-5.4-0.1-6.8-2.2-7-4c0-1.8,0-3.3-4-4.6
			c-3-0.9-4.1-2.8-4.3-4.3c-0.1-1.3,0.6-2.4,1.7-3c1.5-0.7,1.7-3.1,1.9-6.5c0.1-0.8,0.1-1.6,0.2-2.5c0-1.4-0.6-1.8-0.8-1.9
			c-1.5-0.8-5,0.7-6.9,1.9c-2,1.3-7.4,0.6-9.4,0.2c0,0,0,0.4-0.1,0.6c-0.1,1.2-0.3,2.7-0.5,4.2c-0.4,2.6-1.5,4.5-3.1,5.6
			c-2,1.4-5,1.6-8.7,0.8c-5.5-1.2-11.3,8.6-11.4,8.7l-0.2,0.2c0,0-2.4,1.7-5.4,3.8c0.4,1,1.7,3.3,4.4,2.6l0.2-0.1l0.2,0.1
			c1.8,0.7,2.9,3.6,3.1,4c0,0,0.9,1.4,3.2,0.7l0.7-0.2l0.1,0.7c0.3,1.1,0.4,2.2,0.5,3.2c0.3,2.9,0.5,5.2,3.2,6.4
			c1.5,1,2.1,1.7,2.2,2.6c0.1,1-0.6,1.8-1.5,2.7L658.1,349.4z"/>
		<path class="st0" d="M604.8,400c-0.1,1.9-0.3,3.7-1.5,4.5c-0.6,0.4-1.5,0.5-2.4,0.2c-2.8-0.9-5-1-5.6-0.3
			c-0.5,0.5-0.2,1.4,0.1,2.1c1.1,2.7,2.5,3.2,4.3,3.8c0.7,0.2,1.5,0.5,2.4,0.9c3.4-0.3,5.8-2.9,5.8-2.9l0.1-0.1l0.2,0
			c0,0,4.1-1.5,4.7-5.1l0.1-0.5c0.6-3.9,1.4-8.4,8-8.9c2-0.1,3.7-0.1,5.2,0c3.5,0.1,5.2,0.1,6.1-1.6c1.7-3,6.7-8.1,10.9-7.3l0-0.1
			c0.5-1.1,1-2.1,1.3-3.1c1.8-4.7,2-15.6,1.8-16.4c-0.1-0.3-0.1-0.7-0.2-1.3c-0.1-1.6-0.3-4.7-1.5-6c-2.5-2.1-4.2-5.3-5.3-8
			c-1.1,0.5-1.9,2.3-2.2,3c0,0-0.7,2.9-6.3,6l-0.3,0.1c-1.2,0.1-2.2,0.2-3,0.3c-1.9,0.1-3.1,0.1-5.3,1.1c-1.6,0.6-3,0.5-4.1-0.2
			c-1.6-1-2.6-3.1-2.9-6.3c0.2-3.8-2.2-4.4-7.1-5.3c-0.5-0.1-1-0.2-1.6-0.3l-0.3-0.1c-0.9-0.7-1.7-0.9-2.5-0.7c-1.5,0.3-2.4,2-2.4,2
			s-1.3,2.5-4.4,3.4l-0.2,0.1l-0.2,0c-1.9-0.3-3.5,0.5-4.1,1.3c-0.4,0.6-0.3,1.2,0.2,1.9c0.9,1.2,1.8,1.5,3.6,2
			c1.4,0.4,3.1,0.8,5.4,1.9l0.2,0.1l0.1,0.1c0.7,1.1,0.5,2.1,0.3,2.6c-1.2,2.4-7.1,2.9-7.8,3l-0.3,0l-0.2-0.2
			c-0.8-0.6-2.2-1.4-2.8-1.2c-0.2,0.1-0.3,0.3-0.4,0.7l0,0.1l-0.1,0.1c-1.2,1.5-8.7,2.4-11.4,2.6c-0.4,0.4-1.4,1.7-1.3,3.4
			c0.1,1.3,1,2.5,2.6,3.7c1.6,0.3,3.1,0.6,4.6,0.9c4.8,0.9,8,1.5,8.9,3.2c0.3,0.6,0.3,1.4-0.1,2.3l-0.2,0.2
			c-1.2,1.2-2.5,1.6-3.5,1.9c-1.2,0.3-1.2,0.4-1,1c0.6,2.2,4,3.1,7.2,3.1l0.3,0l0.2,0.2c2,1.7,0.5,5.1,0.2,5.8
			c-0.1,1.9,0.2,4,0.8,4.3c0.2,0.1,0.7-0.1,1.5-0.8c0.9-2.3,2.6-2.9,3.9-2.6c1,0.3,1.9,1.4,1.4,3.1
			C604.9,398.3,604.8,399.2,604.8,400z"/>
		<path class="st0" d="M483.4,390.4c-1.6-0.3-2.6-1-3.1-2c-0.4-0.9-0.3-1.8-0.2-2.6c-2.2,0.6-3.9,0.2-5-0.7
			c-0.3-0.2-0.5-0.4-0.7-0.7c-0.8-1-2.2-2.8-5.7-1.3c-1.4,0.6-2.3,1.4-3.1,2.1c-1.7,1.5-3.3,2.8-9,3.1c-1.8,0.1-3.4,0.3-4.7,0.6
			c0.3,1.9,0.8,7.3-3.1,9.9c-4.6,3.2-6.9,6.7-7.3,11.2c-0.1,1.3-0.3,2.5-0.6,3.5c-0.7,3.1-1.2,5.5,2,10.4c3.5,5.5,3.3,8.9,3.2,10.5
			c0,0.2,0,0.5,0,0.6c0,0,9.5,11.1,20.1,8.1c-0.3-2.1,0.4-5.3,1.9-7.2c0.9-1.1,2-1.6,3.2-1.5c0.8,0,1.4-0.2,2.1-0.8
			c1.7-1.6,3.1-5.3,3.2-9.1c0.2-4.2,1.1-5.5,2.4-7.6c0.3-0.4,0.6-0.9,0.9-1.5c0.9-1.4,0.5-2.6,0.1-3.8c-0.4-1.1-0.8-2.3-0.1-3.6
			c0.6-1,1.3-1.7,2-2.4c0.8-0.7,1.5-1.4,1.9-2.6c-0.2-0.5-0.4-0.9-0.6-1.3c-0.7-1.5-1.4-2.8,0-5.1
			C484.4,395.2,483.8,391.9,483.4,390.4z"/>
		<path class="st0" d="M593.1,136.4c0.5,1.9,2.3,4.3,4.7,5.1c5.9,2.9,4.7,8.4,4.5,9.2c0,0.9-0.1,9.7,1.5,13.8c0.6,1.7,5.7,4.7,9,6.4
			c0.8-0.9,3.1-2.5,8.2-2.5c0.1,0,0.1,0,0.2,0c6.4,0,18.1-2.6,20.9-4.4l0.2-0.1c4.4-1.5,12.6-2.6,16-1.5c0.2-1.7,0.7-3.6,2.3-4.9
			c0.8-0.7,1.8-1.1,3.1-1.3c-2.7-2.1-4.9-6.6-6.5-13.7c-1.6-6.9-2.1-6.9-3.5-7c-0.8-0.1-1.9-0.1-3.5-0.9c-1.4-0.9-2.5-2.1-3.6-3.2
			c-2.4-2.3-4.4-4.4-7.6-3.7c-5.1,1.4-10.9-1-11.2-1.2l-0.2-0.1c0,0-1.3-1.2-5-1.6c-6,0.2-10-2.6-11.3-3.7c-0.7,0.5-1.5,1.1-2.5,1.6
			l-0.1,0.1c-6,1.7-11.9,7.8-15.3,11.6l0,0C592.9,134.9,592.9,135.6,593.1,136.4z"/>
		<path class="st0" d="M720.6,140.7c-0.9,0-1.8-0.5-2.9-1.3c-0.3-0.2-0.7-0.4-1.1-0.7c-3-1.8-18.7-0.2-25.1,0.6
			c-1,3.5-8.6,8.5-18.5,14.7c-2.2,1.3-4.2,2.6-5.7,3.6l-0.2,0.1l-0.2,0l0,0l0,0c-2.4-0.3-4.3,0-5.4,0.9c-1,0.8-1.6,2.3-1.8,4.4
			c1.4,0.3,5.1,1,10.9,2.3c3,0.7,4.7,2.7,4.8,5.8c0.2,3.5-1.9,7.8-4.1,8.6c-1.3,0.5-2.5,2.5-2.4,4c0.1,0.8,0.5,1.3,1.3,1.5
			c5.5,1.9,5.9,4.9,5.6,6.6c-0.4,2.3-2.4,4.5-3.8,4.5c-1,0-3.5,1-4.4,2.5c-0.3,0.5-0.3,1.1-0.1,1.6c3.3,1,5.5,3.2,6.4,6.1
			c1.2,0,3.5-0.2,4.2-1.5c0.7-1.4,2.5-2.1,4.1-1.7c1.3,0.3,2.7,1.4,2.8,3.6c1.4,1.6,5.1,0.4,6.6-0.3c0.5-0.4,2.4-2.2,4.3-2.1
			c0.8,0.1,1.5,0.4,2.1,1c3.1,1.4,7-2.1,7-2.2l0.2-0.2l9,0l0-5.7l7,0c0.5-0.6,1.5-1.8,2.9-2.2c0.2,0,0.5-0.1,0.7-0.1
			c-1.5-2.6-1.8-3.8-2.4-5.7l-0.1-0.4c-0.5-2.1,0-3.1,0.5-3.6c0.7-0.7,1.7-0.8,3.1-0.5c0.2-0.4,0.3-0.7,0.2-0.9
			c-0.1-0.4-0.9-0.8-1.6-1.3c-1.1-0.5-1.7-1.5-1.6-2.5c0.1-1.6,1.5-3.1,3.7-3.9c2.1-0.9,4.4-2.4,6.7-3.8c1.3-0.8,2.4-1.6,3.5-2.2
			c2.1-1.2,4.6-2.4,6.2-1.7c0.3,0.2,0.6,0.3,0.8,0.5c1.1-2.3,3.1-3.1,4.6-3.1l0,0c1.8,0,3.2,1,3.7,2.6c0.8,0.5,1.5,0.6,1.6,0.5
			c0.1-0.1,0.3-0.6-0.3-2.2l-0.2-0.5c-1-2-2.3-4.8-1.4-7.2c-3.5-0.5-6.7-3.7-9.9-7c-1.6-1.6-3.3-3.3-5.1-4.7
			c-4.4-3.7-15.2-7-15.3-7.1l0-0.1C721,140.6,720.8,140.7,720.6,140.7z"/>
		<path class="st0" d="M388.1,393.1c1,0,3.6,0.5,5.3,4.1c1.6,1.7,3.5,2.5,4.9,2c1.4-0.4,2.3-2,2.7-4.7c1.2-4.7,3.6-7.9,6-7.9
			c0,0,0,0,0.1,0c0.8,0,2.4,0.4,3.1,3.3c0.4,1.1,2.3,2.3,4.3,2.7c1.8,0.4,3.4,0,4.2-0.9c1.8-2.7,2.7-4.1,3-4.6
			c0-1.2,0.3-7.5,3.4-12.9c0.3-7.1,2.6-10.3,7.7-10.8c2-0.7,1.1-3.5,1.1-3.6l0-0.2c0-0.3-0.1-2.7,1.1-3.6c0.3-0.3,0.9-0.5,1.8-0.3
			c0.6-0.2,1.4-0.4,2.2-0.7c2.8-0.8,6.4-1.8,7-4.4c0.9-3.9,1.7-6.4,5.4-7.9c1.8-0.7,3.3-2.5,3.6-4.2c0.1-0.7,0.1-1.6-0.6-2.3
			c-2.5-2.1-4.1-3.6-4.3-5.6c-0.1-1.5,0.6-3.1,2.4-5.2c1.3-3.1,0.8-3.6-0.2-5c-0.4-0.5-0.9-1.1-1.4-2c-1.2-2.1-2.4-5.1-1.5-7.8
			c0.6-1.6,2-2.9,4.1-3.7c1.4-0.8,1.9-2.7,1.6-4c-0.1-0.7-0.6-2.2-2.6-2.5c-1.4,0.5-2.9,0.9-4.4,1.3c-6.1,1.2-11-5.3-15.7-11.7
			c-0.7-0.9-1.3-1.8-2-2.7c-5.3-5.2-5.3-14.4-5-17.7c-0.8,0.4-1.6,0.7-2.3,0.9l-0.3,0l-0.2-0.1c-1.1-0.5-2-0.7-2.7-0.3
			c-1.1,0.5-1.6,1.9-1.7,2.3c0.1,0.6,0.2,2.2-0.7,3.3c-0.3,0.4-1,0.9-2.1,0.9c-3.5,0-7.4,3.9-7.4,7.4c0,2.3-0.6,4-1.8,5.1
			c-1.3,1.1-3.2,1.5-5.9,1.2c-6.4,0-9.5,3.7-10.2,12.4l-0.1,0.3c-0.9,1.6-2.2,2.6-3.9,3.1c-0.7,0.2-1.5,0.3-2.3,0.3
			c-1.7,0-3.5-0.4-5.1-0.9c0.4,1.2,0.8,2.5,1.1,4c0,0.4-0.1,0.8-0.2,1.1c2.3,1.9,4.6,4.4,5.1,7.1c1.1,4.4,2.9,9.5,7.9,9.8
			c5.2,0.2,7.1,0,7.1,0l0.3-0.1l0.2,0.2c0,0,2.8,2.9,0.5,6.6c1.1,1,1.9,2.6,2,4.3c0.1,1.9-0.6,3.7-2.3,4.9c-1.3,1-1.5,2.3-1.6,3.6
			c-0.2,1.7-0.4,3.6-3.3,4.1c-1.9,0.4-3.7,0.3-5.1,0.3c-2.2,0-3.3,0-3.6,0.8c-0.6,2-0.9,3.2,0.6,5.5l0.1,0.1c1,2.9,0.5,5.6-1.7,8.5
			c-2.6,3.3-3.6,5.9-0.6,8.4c3,1.1,5.1,3.2,5.8,5.6c0.5,1.7,0,3.4-1.2,4.8C387.1,388.1,386.7,390.9,388.1,393.1z"/>
		<path class="st0" d="M816.4,205.3c-2-2.3-2.1-5.7-2-9c0-0.9,0-1.9-0.1-2.7c-0.2-2.3-1.4-3.9-2.4-4.1c-0.7-0.1-1.2,0.9-1.4,1.4
			c-0.9,2.2-2.1,3.4-3.4,3.2c-1.1-0.1-1.9-1.4-2.2-3.4c-0.1-0.5-0.5-1-1-1.3c-1.5-0.9-4.4-0.3-5.8,0.1c0,1-0.3,2-1.1,2.7
			c-1.4,1.3-3.8,1.7-7.9,1.1c-7.4-1.3-8.9,2.3-9.1,3c0.1,1.1,0.7,7.2-0.9,15.2l-0.1,0.2c-0.6,0.8-1,1.5-1.5,2.2
			c2.7-0.4,8.2-0.7,11.4,2c0.5,0.5,0.9,0.9,1.2,1.2c1.1,1.2,1.1,1.2,2.6,1l1.1-0.1l0.2,0.2c1.2,1,1.5,2.4,1.7,3.6
			c0.4,1.9,0.7,3.4,3.9,3.8c3.1,0.3,6.4-0.7,8.7-2.8c1.4-1.2,2.2-2.7,2.2-4l0-0.2l0.1-0.2c1.2-2.1,3-2.3,4.1-2
			c1-1.7,2.8-5.1,1.6-6.9l-0.6-0.2l0.4-0.7C816.4,208.8,817.5,206.7,816.4,205.3z"/>
		<path class="st0" d="M815.4,218.3l-0.5-0.2c-0.2-0.1-1.7-0.7-2.8,1.2c-0.1,1.6-1,3.3-2.6,4.8c-2.3,2-5.4,3.2-8.5,3.2
			c-0.5,0-0.9,0-1.3-0.1c-4.2-0.5-4.7-2.9-5.1-4.9c-0.2-1-0.4-2-1.1-2.7l-0.5,0.1c-2,0.3-2.3,0.2-3.8-1.4c-0.3-0.3-0.6-0.7-1.1-1.1
			c-3.3-2.8-10-1.8-11.4-1.5c-1.6,2.8-2.1,5.2-2,9c-0.1,1.3-0.3,2.3-0.7,2.9c0.9,1.1,3.1,4,2.9,7.2c-0.3,6,0.9,9.8,3.6,11l0.8,0.3
			c3.4,1.5,5.2,2.3,5.9,5.8c0.5,0.7,1,1.1,1.6,1.2c1.1,0.1,2.3-1,2.6-1.4l0.1-0.2l0.2,0c1.6-0.3,4.8,0.1,5.8,3.3
			c1.5,2.2,5,1.6,5,1.6l0.3,0l0.2,0.2c0.1,0.1,2.3,1.5,0.3,5c-0.2,2.1,0.2,3.7,1.2,4.8c0.8,0.9,2.1,1.5,3.6,1.5
			c0.9-0.9,1.6-1.4,2.2-1.2c0.8,0.3,0.8,1.3,0.9,2.9c0,0.5,0,1,0.1,1.6c0.1,0.9,0,2.2-0.2,3.6c-0.3,3.6-0.8,8.5,1.8,9.8
			c4.3,2.1,11.3,3.7,13.2,1.5c-0.3-0.9-0.3-1.9-0.4-2.8c-0.1-1.1-0.2-2.3-0.6-3.5c-1.4-2.4-1.8-4.5-1.1-6.1c0.6-1.2,1.8-1.8,2.7-2
			c0.7-0.1,2-0.9,2.4-1.9c0.2-0.5,0.2-1-0.1-1.6c-0.5-0.1-0.9-0.2-1.4-0.3c-2-0.4-4.1-0.9-3.5-4.4c0.3-2.3,0.4-6.3-3.3-7.3
			c-3.1-0.9-4.4-3.8-4-5.4c0.3-1,1.2-1.6,2.4-1.2c1.8,0.4,1.9,0.3,3.2-2.2c0.2-0.4,0.4-0.8,0.7-1.3c0.1-0.4,0.3-1,0.5-1.5
			c1-3.1,1.8-5.8,6.2-6.6c1.4-0.9,1.9-2.1,1.6-2.8c-0.3-0.8-1.5-1.1-3.1-0.9l-0.1,0l-0.1,0c-2.2-0.2-2.9-1.3-3.2-2.2
			c-0.7-2.5,1.9-6.1,4-7.7c1.5-3.1-1.5-8.1-2.7-9.9l0,0l-0.5-0.7c-0.6-0.9-4.5-2.5-7.6-3.5c0.6,3.2-2.4,7.4-2.5,7.6L815.4,218.3z"/>
		<path class="st0" d="M426.5,269.2c-0.2,1.9-0.8,12.1,4.6,17.6c0.7,1,1.4,1.9,2.1,2.8c4.5,6,9.1,12.3,14.4,11.2
			c1.8-0.4,3.7-1,5.4-1.6c3.4-1.2,6.4-2.3,8.5-1.2c0.9,0.5,1.5,1.2,1.9,2.4c0.6,1.1,3.4,1.9,5.8,1.4c1-0.2,2.7-0.7,2.9-2.3
			c-0.9-2-1-3.6-0.2-4.6c0.9-1.1,2.7-1.4,5.3-0.9l0.3,0.1c1.2,0.9,2.1,0.8,3.5,0.7c0.6-0.1,1.2-0.2,2-0.2l0.2,0l0.2,0.2
			c2.2,1.8,2.2,6.6,2.2,7.6c0.2,0.4,1,1.7,2.2,1.9c1.2,0.1,2.4-1,3.2-2c0.6-3.8-0.1-6.5-0.1-6.5c0-0.2-0.7-3.2,0.9-5.6
			c1-1.4,2.6-2.3,4.9-2.4c6.5-1.7,9.1-3.5,11.3-7.9c0.6-1.1,1-2.1,1.4-3.2c1.4-3.3,2.6-6.4,6-6c1.5,0.2,2.4,0.6,2.8,1.4
			c0.7,1.1,0.2,2.6-0.5,4.5c-0.1,0.3-0.3,0.7-0.4,1.1c-0.5,2,0,3.5,0.5,3.8c0.3,0.1,0.7-0.1,1.1-0.6c0-1.3,0.4-2.3,1.3-2.9
			c0.6-0.4,1.3-0.4,1.9-0.1c0.8,0.4,1.3,1.5,1.3,2.9c0.3,1.2,0.8,3.4,1.6,3.7c0.5,0.2,1.4-0.3,2.4-1.4c0.8-0.7,1.8-1.6,2.9-2.6
			c3.9-3.5,9.2-8.2,10.2-10.9c0.3-0.8,0.9-1.9,1.7-3.3c2.5-4.4,6.3-11,4.1-17.4c-0.2,0.1-0.5,0.1-0.7,0.1c0,0,0,0-0.1,0
			c-1.8-0.1-3-2.5-4.3-5.4c-0.4-0.8-0.7-1.6-1.1-2.3c-2-4.2-3.6-7.5-3-11.5c0.4-2.8,0-7.8-7.5-9.3c-5.6-1.1-7.7-5.9-8.5-8.5
			c-0.4,0.5-0.8,1-1.2,1.4c-2.4,2.1-7.6,11.7-8.2,12.7c-0.2,1-1.2,4.9-3,5.4c-0.1,0-0.3,0.1-0.4,0.1c-0.4,0-0.9-0.2-1.4-0.7
			c-2.3-2.3-7.4-1-7.4-1c-0.5,0.1-11,2.6-15-0.1l-0.2-0.2l0-0.2c-1-3.5-2.2-4.7-3-5.1c-0.7-0.3-1.3-0.1-1.3-0.1
			c-0.1,0.1-5.7,4-9.8,2.4c-3.7-1.5-5.3-1.6-8.5-0.8l-0.3,0.1c-3.4,0.8-7.7,1.9-11.9-2.3c-3.2-3.5-7.5-0.8-8.5-0.1
			c-0.3,1.4-0.4,2.8-0.2,4.1c0.7,3.8-0.2,6.7-2.8,9c-1,0.9-2.1,1.4-3,1.8c-1.6,0.7-3,1.3-4.9,4.1c-0.8,1.1-2,1.9-3.4,2.3
			c-2,1.4-3,4.2-2.6,5.5c0.1,0.5,0.5,0.7,1,0.6c2-0.2,3.9,0.8,4.7,2.4c0.7,1.5,0.4,3.2-1,4.8l-0.1,0.1l-0.2,0
			c-0.9,0.4-1.2,1.5-1.1,2.4c0.1,0.9,0.5,2,1.3,2.2l0.2,0.1c0.8,0.6,1.1,1.4,0.9,2.3C429.7,266.7,428.2,268.1,426.5,269.2z
			 M500.6,270.2c1.5-1,2.7-1.4,3.7-1.4c0.8,0,2.6,0.3,2.8,3.4l0.1,0.6l-0.6,0.1c-1.3,0.3-1.7,2.4-1.7,2.4c0,0.2-1,3.5-3.5,3.5
			c-0.5,0-1-0.1-1.6-0.4c-1.1-0.7-1.7-1.6-1.9-2.7C497.7,273.1,500.5,270.3,500.6,270.2z"/>
		<path class="st0" d="M500.5,277.3c0.3,0.1,0.6,0.2,0.9,0.2c1.4,0,2.2-2.5,2.2-2.5c0,0,0.4-2.4,2.2-3.2c-0.3-1.7-1.2-1.7-1.5-1.7
			c-0.5,0-1.4,0.2-2.8,1.1c-0.5,0.6-2.3,2.7-2.1,4.4C499.5,276.2,499.9,276.8,500.5,277.3z"/>
		<path class="st0" d="M447.5,194.6c-1.5,5.6-3.5,15.7-4.5,21.1c-0.4,1.8-0.6,3-0.7,3.3c0,0.2-0.2,0.5-0.3,0.9
			c-0.1,0.5-0.3,1.1-0.5,1.8c2.4-1.3,6.1-2.1,9,1c3.6,3.6,7.2,2.7,10.6,1.9l0.3-0.1c3.7-0.9,5.6-0.6,9.3,0.9
			c3.4,1.3,8.5-2.3,8.6-2.3c0.2-0.1,1.1-0.6,2.4,0c1.6,0.7,2.8,2.6,3.7,5.7c3,1.8,10.9,0.5,13.7-0.3c0.3,0,5.9-1.5,8.7,1.3
			c0.3,0.4,0.5,0.3,0.6,0.3c0.8-0.3,1.7-2.8,2.1-4.5l0.1-0.2c0.2-0.4,5.8-10.8,8.5-13.2c2.4-2.1,3.8-6.8,5.1-11.5l0.2-0.6
			c0.8-2.6,0.4-3.5-0.2-4.9c-0.5-1.2-1-2.6-1.3-5.3c-0.1-0.7-0.1-1.5-0.2-2.2c-0.4-5-0.8-9.2-3.5-10.5c-1.2-0.6-2.9-0.8-4.8-1.1
			c-3.3-0.4-7.5-1-11.4-3.9c-3.1-1.7-5.5-2-7.6-2.2c-2.1-0.2-3.8-0.4-4.7-2.5c-1.2-2.8-1.7-8.4,0.1-11.2c0.8-1.1,1.9-1.8,3.3-1.8
			c2.6-0.9,2.6-1.1,2.8-3.9l0.1-0.9c0.3-3.7,1.1-5.8,4.7-5.8c0.1,0,0.5,0,0.6-0.2c0.3-0.6-0.9-2.8-3.3-5c-2-1.8-1.8-2.8-1.1-4.3
			c0.3-0.8,0.8-1.9,0.9-3.6c0-1.3,0.4-3,0.7-4.8c0.8-4.3,1.8-9.6-0.5-11.1c-3.3-2-5.4-4.2-7.5-6.7l-2.8,8c-1.8,5.4-4.4,5.9-6.4,6.4
			c-1.6,0.4-2.6,0.6-3,3c-0.7,3.8-3,6-5.7,8.6c-2,1.8-4.1,3.9-6,6.9c-2.9,4.7-0.3,7.4,3.5,11.6c1.6,1.6,3.3,3.5,4.9,5.8
			c3.5,4.9,1.9,7.4,1.1,8.2c-0.8,0.8-2,1.2-3.4,1.2c-2.1,0-4.7-0.9-7.1-2.7c-4.4-3.1-6.9-3.5-8.9-3.9c-1.1-0.2-2-0.4-3-0.9
			c-0.8,1.4-0.5,3.5-0.3,6.3c0.2,1.9,0.5,4.1,0.5,6.6c0,4.3-1.9,8.2-3.9,12.4C449.7,188.8,448.4,191.6,447.5,194.6z"/>
		<path class="st0" d="M518.8,168.4c0,0.6,0.6,1.1,1.5,1.3l0.2,0.1l0.2,0.2c1.5,1.7,0.6,5.7,0.3,7.1c2.3,2.1,2.7,6.2,3,10.8
			c0.1,0.7,0.1,1.5,0.2,2.2c0.2,2.5,0.8,3.8,1.2,4.9c0.6,1.5,1.1,2.7,0.2,5.7l-0.2,0.6c-0.9,3.2-1.9,6.5-3.2,9.1
			c0.2,1.2,1.7,7.6,7.8,8.7c6.3,1.3,9.4,5.2,8.6,10.8c-0.5,3.6,0.9,6.6,2.9,10.8c0.4,0.7,0.7,1.5,1.1,2.3c1,2.2,2.1,4.6,3.1,4.6
			c1,0.1,2.3-1.5,4.2-4.7c1.8-3.6,4.6-6.6,7.1-7.8l0-0.4c0.6-5.8,1.4-12.4-0.9-14.3c-0.4-0.3-0.8-0.6-1.3-1c-2.1-1.6-5-3.6-5.4-6.8
			c-0.3-2,0.6-4.1,2.4-6.4c6.1-7.5,6.9-7.4,15.6-4.6l0.3,0.1c9,1.5,11.1-0.7,12.4-6.6c0.2-0.5,0.2-1,0.3-1.5
			c1.1-5.2,1.6-6.3,8.5-7.3c6.1-0.9,9.7-3.3,13.9-6c0.8-0.5,1.6-1,2.4-1.5c4-2.5,6.1-5.5,6.8-6.8c-2.2-1.1-8.7-4.5-9.6-7
			c-1.8-4.5-1.6-14-1.5-14.4l0-0.2c0-0.2,1.5-5.1-3.7-7.7c-2.9-1-4.9-3.8-5.5-6c-0.1-0.2-0.1-0.4-0.1-0.5c-1.9,1.7-4.7,2.5-8.2,2.5
			c-3.5,0-7.6-0.8-12.2-2.4l-0.2-0.1c-6.4-5.3-3.3-9.1-0.5-12.5c0.5-0.6,1-1.2,1.5-1.9c2.5-3.4,1-5-2.4-8.6c-0.3-0.3-0.7-0.7-1.1-1
			c-2.8-2-3.6-4.9-3.8-7c-1.5,1.5-3.9,2.8-6.9,4.2c-2.3,1.1-1.5,7.5-1,12.2c0.3,2,0.5,3.8,0.5,5.1c0,6.1-5.5,7.6-11.4,8.3
			c-2.8,0.1-4.6,0.7-5.3,1.8c-0.6,1.1,0,2.4,0,2.4l0.1,0.2l0,0.2c0,0.2-0.9,5.6-3.7,10.8c-2.8,5.4-5,6.4-11.6,7.1
			c-1.8,0.2-3.1,0.8-3.9,1.7c-1.4,1.8-1.1,4.6-0.8,6.8l0.1,0.5l-0.5,0.3C519.4,167.1,518.8,167.8,518.8,168.4z"/>
		<path class="st0" d="M445.6,151.5c-2.7,0.5-3.9,2.2-3.8,3.3c0.1,1,1.3,1.5,3,1.5c1.5-0.7,2.6-1.6,3.5-2.5c1.7-1.6,3.3-3.1,6.6-0.9
			c1.5,1,2.4,2.1,2.5,3.3c0.1,1.5-0.9,2.6-1.7,3.4c0.7,0.3,1.4,0.5,2.4,0.6c2,0.4,4.8,0.8,9.4,4.1c4,2.8,7.5,2.9,8.8,1.6
			c1.2-1.2,0.7-3.6-1.2-6.4c-1.5-2.2-3.3-4.1-4.8-5.7c-4-4.2-7.2-7.6-3.7-13.2c2-3.2,4.3-5.3,6.3-7.2c2.6-2.5,4.7-4.5,5.3-7.9
			c0.6-3.3,2.4-3.7,4-4.1c1.9-0.4,3.9-0.9,5.5-5.5l3-8.9c-1.8-2.2-6.2-7.9-5.9-10.8c-4.8-0.7-12.3,0-16.1,1.5c-1.7,0.7-4,1-6.4,1
			c-4.2,0-9.1-1-13.7-2.7c-0.3-0.1-0.6-0.3-0.9-0.4c0.1,1.8-0.1,5-2.7,7.2c-2.9,2.8-5.1,9.5-3.4,12l0.2,0.3l-0.1,0.3
			c-0.3,0.9-0.8,1.8-1.2,2.6c-1,1.9-2.1,4.2-1.5,5.3c0.2,0.5,0.7,0.8,1.5,1l0.2,0l0.1,0.1c0.8,0.7,1.1,1.4,1.1,2.2
			c0,1.3-1.1,2.4-2.5,3.8c-0.2,0.2-0.5,0.5-0.8,0.7c-0.9,0.9-1.3,1.7-1.2,2.2c0.1,0.7,0.9,1.5,2.6,2.5c1,0.6,2.2,1,3.2,1.4
			c2.6,0.8,5.2,1.8,4.5,5.2c-0.3,1.4,0.2,2.7,0.6,3.9c0.4,1.3,0.9,2.5,0.2,3.5C447.9,150.9,447,151.3,445.6,151.5z"/>
		<path class="st0" d="M713.6,354.2c-1.5-2-2-3.7-2.1-4.8c-0.7,0.3-1.2,0.4-1.7,0.4c-0.4,0-0.7-0.1-1-0.2c-0.4-0.2-0.7-0.4-1.1-0.7
			c-3.6,0.1-7.5,2.9-9,6.3l-0.2,0.5l-0.5-0.1c-0.7-0.1-1.2,0-1.6,0.3c-0.6,0.5-1.1,1.6-1.3,3.2c-0.7,4.2-5.3,5.9-9.6,5.7
			c-2.4,0.6-4,2.8-4.2,3c-0.3,0.6-0.5,1.6-0.2,1.9c0.2,0.2,0.7,0.2,1.5,0c0.5-0.2,2.3-0.9,3.1,0.1c0.7,0.7,0.5,2.1-0.6,4
			c-1.1,2.1-1.1,5.7-0.4,7.6c0.3,0.6,0.6,1,0.9,1.1c0.3,0.1,0.6,0.2,0.8,0.3c1.7,0.5,2.8,0.9,2.6,3.9c0.3,0.8,1.8,2,3.6,2.5
			c1.8-2.7,2.9-5.6,3.1-7.6c2.3-1.8,5.4-4.5,6.7-13C703.5,361.7,709.6,357.4,713.6,354.2z"/>
		<path class="st0" d="M687.6,386.9L687.6,386.9l0-0.2c0.2-2.2-0.2-2.2-1.6-2.6c-0.2-0.1-0.5-0.2-0.8-0.3c-0.7-0.2-1.3-0.8-1.7-1.9
			c-0.8-2.2-0.9-6.3,0.4-8.7c1.1-2,0.8-2.5,0.8-2.5s-0.3-0.2-1.7,0.3c-1.4,0.3-2.4,0.1-2.9-0.5c-0.8-1-0.2-2.7,0-3.2
			c0,0,0-0.3,0-0.4c-0.2,0.1-0.6,0.5-1.2,1.4c-0.3,0.4-1.2,1.6-2.3,1.3c-1.2-0.3-1.9-2.2-2.2-6.4c-0.5-0.8-0.8-0.8-1.2-0.9
			c-0.5,0-1.3-0.1-2.4-1.1l-0.2-0.2l0-0.2c-0.1-0.9-0.2-1.3-0.3-1.6c-0.2,0.3-0.7,1-1.4,2.8c-0.8,1.8-1.9,2.6-3.1,2.5
			c-1.5-0.1-2.5-1.9-2.7-2.6c0-0.1,0-0.3-0.1-0.5c-0.1-0.9-0.3-1.8-2.3-2.1c-1.8-0.3-3.2-1.4-4-2.9c-1.2-2.5-0.7-5.7,0.3-7.7
			l0.1-0.1l0.5-0.5c0.7-0.7,1.2-1.3,1.2-1.7c-0.1-0.3-0.3-0.7-1.6-1.6c-3.2-1.4-3.5-4.3-3.9-7.4c-0.1-0.8-0.1-1.6-0.3-2.4
			c-2.3,0.4-3.7-0.9-4.1-1.6c-0.3-0.8-1.2-2.6-2.2-3.2c-3,0.7-4.8-1.4-5.7-3.2c-1.2,0.9-2.5,1.8-3.7,2.8c-0.1,0.7-0.2,3.4,1.7,6.2
			l0.1,0.1c1.3,3.4,0.3,7.9,0.1,8.8c0.3,1.2,2.3,8.3,6.4,11.8c1.6,1.8,1.8,5,1.9,6.9c0,0.5,0,0.9,0.1,1.1c0.2,1,0,12.4-1.8,17.2
			c-0.4,1-0.8,2.1-1.3,3.2c-1.6,3.7-3.3,7.5-1.1,9.1c3.2,2.3,4.6,2.6,7.9,2.6c2.5,0.1,5,3.1,6.5,5.4c5.1,1.2,17.9-3.7,26.3-5.8
			c2.8-0.7,5.6-3.2,7.7-6.1C689.8,389.6,687.9,388.2,687.6,386.9z"/>
		<path class="st0" d="M606,411.3c-1.1,0.6-2.5,1.1-4.1,1.2l-0.2,0l-0.2-0.1c-0.8-0.4-1.5-0.7-2.3-0.9c-1.9-0.7-3.7-1.2-5.2-4.6
			c-0.7-1.5-0.6-2.7,0.1-3.5c1.3-1.5,4.5-0.9,7-0.1c0.6,0.1,1,0.1,1.3,0c0.6-0.5,0.8-2.1,0.9-3.5c0.1-0.9,0.2-1.8,0.3-2.6
			c0.2-0.8,0-1.3-0.5-1.5c-0.7-0.2-1.7,0.3-2.2,1.9l-0.1,0.2c-1.2,1.2-2.2,1.6-3.1,1.2c-1.8-0.8-1.7-4.9-1.6-5.7l0.1-0.3
			c0,0,1.4-2.9,0.3-4.2c-3.5,0-7.4-1.1-8.2-4c-0.5-2,0.8-2.4,2-2.7c0.8-0.2,1.9-0.6,2.9-1.4c0.2-0.5,0.1-0.8,0-0.9
			c-0.5-1-3.3-1.6-6.7-2.3c0.3,1,0.5,2.4-0.2,3.5c-0.6,0.9-1.9,1.4-3.6,1.2c-1.1-0.1-2.3-0.3-3.5-0.4c-4.5-0.7-8.8-1.4-10.7,2.3
			c-1.6,3.1-1.2,5.7-0.7,9.1c0.3,2,0.7,4.2,0.7,6.9c0,3.3-0.7,6.7-1.3,9.5c-0.5,2.7-1.2,5.8-0.4,6c0.9,0.2,2.4-0.2,3.8-0.6
			c2.7-0.8,6.2-1.8,7.6,1c0.9,1.9,1.7,5.1,2.2,8c5.2-1.9,10.1-3.3,17-5.2c2.7-0.1,5.6-0.4,8.4-0.8
			C605.8,415.5,605.9,412.8,606,411.3z"/>
		<path class="st0" d="M511.3,440.5c-0.1-1.4,0.2-2.5,0.8-3.2c1.8-1.9,3.4-0.8,4.1-0.2c0-0.1,0-0.1,0-0.1c0.1-1.3,0.2-2.9,1.3-3.3
			c0.9-0.4,2.1,0.2,3.8,2c1.6,1.6,2.1,1.5,2.1,1.5c0.2-0.1,0.3-1.1,0.4-1.7c0.1-0.7,0.2-1.6,0.6-2.2l0.2-0.4l0.4,0.1
			c1.8,0.2,2.8-0.3,2.9-0.7c0.2-0.5-0.6-1.8-3.2-2.9l-0.2-0.1c-2.5-2.3-3.4-3.6-3.1-4.7c0.3-1.1,1.7-1.6,3.4-2.1
			c0.4-0.1,1.6-0.4,1.7-0.7c0.1-0.2,0-0.8-0.2-1.5c-0.2-0.7-0.4-1.5-0.5-2.5c-0.4-1.1-0.7-1.7-0.9-1.9c-0.3-0.2-0.5-0.4-0.6-0.6
			l-0.2-0.7l0.7-0.2c0.3-0.1,0.6,0,0.8,0.3c0.2,0,0.4,0,0.6,0c0.5-0.1,0.7-0.3,0.8-0.5c0.1-0.4,0-0.9-0.2-1.2
			c-3.1-0.7-5.8-3.2-7.4-7.4c-1.8-4.5-7.1-4.8-14.6-3.8l-0.1,0l-0.1,0c-2-0.3-3.3-1.2-4.2-2.7c-1.4-2.3-0.8-5.4-0.5-6.8
			c-2.2-0.3-4.2-1.3-5.7-3.5l-0.1-0.1c-0.6-1.6-1-1.7-1-1.7c-0.2,0-0.8,0.8-1,1.6c-0.1,0.3-1,3-2.6,3.7c-0.5,0.2-1.1,0.2-1.7,0
			l-0.2-0.1c-0.6-0.5-0.9-0.9-1.1-1.2c-0.3-0.5-0.4-0.6-1.9-0.3c0.4,1.5,1.1,5-0.3,7.2c-1,1.6-0.6,2.3,0.1,3.7
			c0.2,0.5,0.5,1,0.7,1.6l0.1,0.2l-0.1,0.2c-0.4,1.6-1.4,2.6-2.3,3.4c-0.6,0.6-1.2,1.2-1.7,2c-0.4,0.7-0.2,1.4,0.2,2.5
			c0.4,1.3,1,2.9-0.2,5c-0.3,0.6-0.7,1.1-1,1.6c-1.3,1.9-2,3-2.2,6.9c-0.2,3.5-1.4,7.9-3.7,10c-1,0.8-2,1.2-3.1,1.1
			c-0.8,0-1.5,0.3-2.1,1.1c-1.3,1.6-1.8,4.4-1.6,6.1c2.3-0.3,3.7-0.1,4.2,0.8c0.8,1.1-0.3,2.7-0.6,3.2c-0.8,1.1-1.7,2.1-2.8,3
			c-1.5,1.4-3,2.8-3.9,5l-0.1,0.2c-2.7,3.1-5.6,10.2-2.8,17.3c1.3,3.3,3.7,6.3,5.9,8.7c3-4.1,7.3-8.8,15-17.5
			c10.4-12.5,23.4-17.3,30.7-16.9C512.3,444.6,511.5,442.3,511.3,440.5z"/>
		<path class="st0" d="M471.9,521.8c-1.4,2.2-3.1,4.7-4.4,6.1c-3,3.2-13.4,2-17.6,0.2c-0.5-0.3-1-0.5-1.5-0.7
			c-3.1-1.5-4.4-2.1-8.3,0.6c-1.8,1.3-3.8,1.9-5.8,1.9c-0.7,0-1.3,0-2-0.2c-3.1-0.6-5.8-2.9-7.6-6.1l-0.1-0.2
			c-0.3-2.4-1-3.1-1.3-3.2c-0.5-0.2-1.1,0.1-1.8,0.4c-0.7,0.3-1.7,0.8-2.4,0.1c-0.8-0.8-7.4-1.2-12.6,0.4c-5,1.5-9.7,2.5-13.5-2.3
			c-2.8-3.5-7.8-1.7-12.4,0.6c-1.7,0.8-3.2,0.9-4.3,0.2c-1.3-0.7-2.1-2.5-2.3-4.9c-0.1-2.4-4-4.7-6-5.6c-1.2,1.3-2.7,2.4-4.8,3.1
			c-1.8,0.6-3.2,0.8-4.4,1.1c-3.1,0.7-4.3,0.9-5.4,4.2c0,0.2,0,0.4-0.1,0.6c0.9,0.2,2.5,0.6,3.2,2.2c1.4,0.4,2.8,0.1,4.2-0.2
			c1.6-0.3,3.2-0.6,4.6,0.2l0.2,0.1l0.1,0.3c0.2,0.9,0.3,1.8,0.3,2.6c0.1,1.2,0.1,2.3,0.8,2.9c0.7,0.6,2,0.7,4,0.5
			c3.9-0.5,5.1,1.1,5.5,2.1c0.7,2-0.6,4.7-2.3,5.7c-0.7,0.4-3,2.1-3.2,4.3c-0.1,1.5,0.8,3,2.6,4.5c1,0.8,1.8,1.6,2.6,2.3
			c3.2,3,4.9,4.6,13.1,3.1c4.3-1.1,6.7,1.8,7.4,3.9c0.9,0.1,2.7,0.5,3.4,1.6c0.3,0.4,0.5,1.2,0.1,2.2c-0.4,0.9-0.9,2.8,0,4.7
			c0.6,1.5,2,2.7,4.1,3.4l0.2,0.2c1.2,1.2,3.7,1.8,6.2,2.4c1,0.3,2.1,0.6,3,0.8c1.3-2.3,2.4-4.7,3.4-7.2
			c4.5-10.9,6.3-11.6,13.9-13.8c9.4-4.9,11.2-0.4,13.9-0.4c1.3,4-5.8,7.2-10.3,8.1c-4.5,0-8.1,3.1-4.1,5.4
			c6.7,1.8,10.8,0.4,12.1-3.6c1.8-5.4,8.5-11.2,21.6-20.6c13.9-8.1,11.7-14.8,11.7-14.8S474.6,522,471.9,521.8z"/>
		<path class="st0" d="M651.2,398.2L651.2,398.2c-3.4,0-5.1-0.3-8.6-2.8c-2.7-2-1.5-5.7,0.1-9.4c-3.4-0.3-7.7,4-9.2,6.7
			c-1.4,2.5-3.9,2.4-7.4,2.3c-1.5,0-3.2-0.1-5.1,0c-5.5,0.4-6,3.8-6.7,7.7l-0.1,0.5c-0.7,4-4.6,5.7-5.5,6.1
			c-0.2,0.2-0.6,0.6-1.3,1.1c-0.1,1-0.4,4.4-0.2,7.4c7-1.1,13.9-2.9,18.5-5.3c3.1,0.4,9-2.2,17.9-6.7c7.2-3,7.6-0.8,12.8-3
			C655,400.6,653,398.3,651.2,398.2z"/>
		<path class="st0" d="M689,259l-12.1,1.5l-5.8,0.9v5.7l-3.5,4.1l-1.9,2.8l7.1,3.8c0,0,1.6,2,1.8,2.3s0.5,3,0.5,3L672,284l-11.3,3.1
			l-6.3,1.8l1.8,5.3l5.5-1h5.2l3.4,1l1.1,2.4l0.6,4.3l3.8,0.6l4.5-0.7l4.3-2.2l3.7,0.4l1.6,0.3l4.9-0.3c0,0,1.9-0.7,2.3-1.1
			c0.4-0.4,2.6-3.4,2.6-3.4l-1.6-8.7l-1.2-5.7c0,0,1.3-5.4,2.2-6c0.9-0.6-1.2-4.1-1.2-4.1l-4.4,1.5h-3.8l-1.3-3L689,259z"/>
	</g>
	<g>
		<path class="st0" d="M566.2,102.8c0,0.1-0.8,5.5,3.3,8.3l0.1,0.1c0.4,0.4,0.7,0.8,1.1,1.1c3.5,3.6,5.7,6,2.5,10.3
			c-0.5,0.7-1,1.3-1.5,1.9c-2.8,3.4-5,6.1,0.2,10.6c8.7,3,15.8,3,18.9,0.1c0.4-0.5,0.9-1,1.4-1.6l0,0c3.5-3.9,9.6-10.1,15.9-12
			c6.9-3.9,7.9-9.2,7.9-11.9c0-2.4,0.9-7.8,1.6-11.8c-11.3,0.3-13.3-4.4-24.4-9.9c-12.8-4.9-21.9,1.5-26.7,7.2
			C566.4,98,566.5,101.4,566.2,102.8z"/>
		<g>
			<path class="st0" d="M678.1,109.7c0.3,0,0.8,0.1,1.4,0.4c1.5,0.9,4.4,3.3,6.3,5.8c-0.3-3.7-0.3-10.2,2.1-13.8
				c3.3-4.9,5.5-10.8,5.3-14.4c-0.1-2.2-2-6.2-3.3-8.8c-0.4,0.1-0.9,0.2-1.3,0.3c-18.1-7.7-25.2,1.1-32.8,8.8
				c-1.8,1.3-3.4,2.4-4.9,3.3C657.8,97.5,675.8,109,678.1,109.7z"/>
			<path class="st0" d="M617.4,109.7c0,2.5-0.7,6.8-5.1,10.7c1.3,1.1,4.9,3.4,10.2,3.2c3.8,0.4,5.4,1.5,5.8,1.9
				c0.8,0.3,5.9,2.2,10.2,1c3.9-0.8,6.5,1.7,8.9,4.1c1,1,2.1,2.2,3.3,2.9c1.2,0.6,2.2,0.7,2.9,0.7c2.4,0.2,3.1,0.9,4.8,8
				c2,9,4.7,13.4,8.4,14c1.5-1,3.5-2.2,5.5-3.5c7.1-4.4,17.8-11.1,18-14.2c0-5.1-0.8-11.2-2.4-12.4c-0.2-0.2-0.4-0.2-0.6-0.2
				c-1.3,0.4-2-0.3-2.2-0.7c-0.7-1.4,0.5-4,1.5-5.2c-0.5-3.2-7.1-8.8-8.3-9c-0.2,0-0.4,0-0.6-0.1c-2.7-0.9-21-12.5-28-18.9
				c-7.2,4-12.6,3.8-26.1,5.2c-1.7,0.2-3.2,0.4-4.6,0.5C618.2,101.8,617.4,107.3,617.4,109.7z"/>
			<path class="st0" d="M694.5,87.7c0.2,3.9-2,10.1-5.5,15.2c-3.1,4.5-1.7,14.7-1.6,15.4c0.3,0.7,0.5,1.3,0.6,1.9l0,0.3l-0.2,0.2
				c-0.9,0.8-1.9,3.2-1.5,3.8c0.1,0.2,0.5,0.1,0.7,0c0.6-0.2,1.2,0,1.8,0.4c2.5,2,2.8,10.2,2.9,12.8c4.3-0.6,21.9-2.6,25.7-0.4
				c0.4,0.3,0.8,0.5,1.1,0.7c2.4,1.6,2.6,1.7,5-1.4c3.3-4.3,17.3-16.7,24.3-16.7c1.5,0,2.8,0.1,3.8,0.1c3.5,0.2,4,0.1,4.7-1.7
				c0-1.6,0-3.3,0-5c-0.1-5.4-0.2-11,2.1-14.2c1.8-2.5,2.5-4.7,2-6.7c-0.5-2.1-2.4-3.8-5.5-5.3c-5.9-2.7-7.4-7.1-4.6-13.2
				c0.8-1.7,0.7-3.4-0.2-5c-1.5-2.4-4.8-4.1-9.2-4.4c-6.9,0.8-16.5,0.4-23.8-0.2c0.1,1.1,0,1.9-0.3,1.9c-1.8,0-3.5-0.6-11.1,3.5
				c-6.9,3.7-7.1,6.9-14.3,8.8C692.6,81.3,694.4,85.3,694.5,87.7z"/>
			<path class="st0" d="M740.6,63.3c1-0.5,10.2-5.5,11.5-10.9c0.5-2.6,7.2-2.4,9.2-2.3c0.1,0,5.6,0.8,9.6-2.2c1.6-1.2,2.8-2.9,3.6-5
				c-2.4,0-4.8-1.6-8.5-2.2c-5.9,0-14.1-1.7-24.6-5.4c-10.5-3.7-8.8-1.6-13.5,0.1c-5.8-0.6-7.6,0.6-11.1,7.6
				c-2.5,5.1-0.5,15.1,0.2,20.2C724.1,63.7,733.8,64.1,740.6,63.3z"/>
			<path class="st0" d="M771.6,48.9c-4.5,3.4-10.3,2.6-10.5,2.5c-3.5-0.2-7.6,0.3-7.7,1.3c-1.1,4.8-7.3,9-10.5,10.9
				c3.9,0.7,6.8,2.4,8.3,4.8c1.1,1.9,1.2,4.1,0.3,6.2c-1.7,3.7-2.7,8.4,3.9,11.4c3.5,1.7,5.6,3.8,6.3,6.2c0.6,2.3-0.2,5-2.2,7.8
				c-2.1,2.8-2,8.2-1.9,13.3c0,1.7,0,3.5,0,5.1c0.1,0.3,0.5,1.6,1.6,1.9c1.1,0.3,2.7-0.4,4.5-2.2c6.2-7,8.2-7.5,14-6.8
				c0.6,0.1,1.2,0.2,1.9,0.3c4.2,0.5,10.6,1.4,11.5-0.2c0.8-1.9,3.1-3.1,6.1-3.2c3.4-0.1,7.6,1.4,9.5,5.1c6,8.4,11.1,12.8,15.4,13.1
				c1.4-0.1,3.1-0.3,4.9-0.6c6.6-0.9,13.5-1.9,16.2,0.8l0.1,0.3c1.6,4.6,3.8,7.4,6.8,8.6c2,0.8,4.2,0.8,6.8,0.1
				c1-10.8-0.9-14.6-4.8-17.6c0.6-8.2-4.1-8.8-10.5-11.7c-5.9-5.3-3-5.9-6.5-11.1c-5.3-11.1-3.5-53.3-3.5-59.7
				c-0.6-6.5-4.1-12.3-3.5-6.5c0.6,5.9,0.6,8.2-2.9,12.3c-4.1,0.6-2.9-9.3-2.9-9.3s-1.1-5.3-11.7-10c-12.9-3.5-21.7,4.1-28.7,15.2
				c-2.3,3.3-4.1,4.9-5.7,5.5C775.1,45.2,773.7,47.4,771.6,48.9z M826.8,69.8c3,1.5,2.8,3.9,1.8,6.3c-0.9,3.9-2.6,3.4-3.9,0
				C822.7,70.6,826.8,69.8,826.8,69.8z"/>
			<path class="st0" d="M782.2,141c3.7-1.5,6.2-2.1,8.8-2.6c2.3-0.5,4.8-1,8.2-2.3c5.9-2.2,16.1-7.2,19.8-9.1
				c-4.1-1.6-8.5-5.9-13.6-13c-1.6-3.3-5.4-4.5-8.3-4.5c-2.4,0.1-4.3,1-4.9,2.5c-1.4,2.4-7.3,1.6-12.9,0.9c-0.7-0.1-1.3-0.2-1.9-0.3
				c-5.1-0.6-6.7-0.5-12.9,6.4c-2.3,2.2-4.2,3.1-5.8,2.6c-0.9-0.3-1.5-0.9-1.9-1.5c-1,1.5-2.5,1.5-5.4,1.4c-1-0.1-2.3-0.1-3.8-0.1
				c-6.4,0-20.3,12.3-23.3,16.2c-0.7,0.9-1.3,1.6-1.8,2.1c2.9,0.9,10.9,3.8,14.7,7c1.8,1.4,3.5,3.1,5.2,4.8
				c3.8,3.8,7.4,7.5,11.4,6.5c1.6-0.8,2.8-1.6,4.1-2.5c3.2-2.2,6-4.1,10.8-2c8.8,2.7,10,1.5,10.2,1.3c0.1-0.2,0-0.7-0.6-1.6
				c-2.4-3.1-3.2-5.2-2.7-7.1C776.1,144.2,778.1,142.7,782.2,141z"/>
		</g>
		<path class="st0" d="M187.4,1126.4c-1.6-2.3-3.3-5.7,1.1-8.8c3.3-2.4,3.7-5.6,4.1-9.4l0.1-0.6c0.1-0.5-0.1-0.9-0.4-1.2
			c-1.3-1.2-5.4-0.8-6.6-0.5c-0.2,0.1-6,1.2-7.3-2.4l-0.1-0.3l0-0.2c0.4-1.1,0.3-2.1-0.2-2.8c-0.8-1.4-2.7-1.8-3.1-1.9
			c-0.8,0.1-5.7,0.8-11.1,0c-3.8-0.6-5.4-2.2-6-3.4c-0.7-1.3-0.6-3,0.1-4.5c0.9-1.8,0.4-4.1,0.1-5.1c-0.9,0-2.7-0.2-3.9-1.9
			l-0.1-0.2l0-0.2c0.2-2.7-1.6-4.3-2.6-4.9c-1.5,1.9-4.2,2.4-6.3,2.4c-1.7,0-3.1-0.3-3.2-0.4l-0.5-0.1l-0.1-0.5c0-0.1-0.3-3-0.1-6.2
			c0.2-2.8,0.3-8-1.5-11.1c-0.1-0.3-0.3-0.3-0.5-0.3h0c-1,0-2.7,1.4-4.4,3.2c4.5,6.6,1.1,22.4,1.1,22.4s-7.2,7.6-11.2,16.1
			c-4.1,8.5,8.9,29.6,20.6,47.1c11.6,17.5,21.1,20.6,28.7,21.1c3.6-1.3,12.1-20.6,15.2-27.8c4.5,0,8.5-0.4,9-9.3
			C193.9,1131.7,188.4,1127.9,187.4,1126.4z"/>
		<path class="st0" d="M108.8,715.1c-0.5,2.1-0.9,3.7-1.3,5c3.1,0.7,7.2,2.2,7.7,5.4c1.6,8.7,3.3,19,2.7,21.7
			c-0.1,0.5-2.9,12.8,6.4,18.8c5,3.2,8.2,4,10.5,4.6c1.7,0.4,3.1,0.8,4.4,2c1.2,1,1.9,2.3,2.6,3.5c1.3,2.2,2.6,4.4,6.9,5.8
			c6.8,2.2,29,5.2,36.8,3.1c5.9-1.5,6.1-3.2,6.2-6.1c0.1-0.7,0.1-1.5,0.2-2.3l0-0.2l0.1-0.1c2.4-2.8,3.9-5.1,1.7-8.6
			c-1-1.6-3-3-5.2-4.4c-3.1-2-6.5-4.4-7.7-7.8c-1.9-5.9-1.1-7.4,1.8-11.1l0-0.2c1.3-6.3,2.3-10.9,12.3-9.8c0.1-1.6,1.4-3,2.8-4.6
			c0.8-1,1.8-2.1,2.5-3.2c0.4-0.7,0.3-0.9,0.3-0.9c-0.2-0.2-1.5-0.2-2.9,0.2c-0.3,0.6-0.9,1.5-2,1.7c-1,0.2-2.1-0.5-3.1-1.8
			c-0.9-1.4-1.8-2.3-2.6-3.2c-1.3-1.6-2.7-3.2-5.1-6.7c-1.8-3.2-4.5-4.7-6.9-5.3c-1.5,0.6-4.2,2-8,5.4c-6.3,5-8.1-4-7.6-10.8
			c0.4-5.4,0.4-9.4-3.1-13.9c-12.6-9-30.1-4-41.3-0.9C107,693.1,108.8,702.5,108.8,715.1z"/>
		<path class="st0" d="M72.5,655.7c5.6,4.2,5.6,5.6,7,14.4c1.8,9.3,2.8,7,9.7,8.4c7,1.4,11.7,5.6,20.9,4.2
			c9.3-1.4,11.7-5.6,13.1-11.6c1.4-6,6.5-3.7,2.8-9.8c-3.7-6-12.1-3.7-20.5-11.2c-7.4-7.9-7.3-14.4-7.3-14.4s-4.3-7.5-7.1,0
			c-1.4,7.9-1,13.9-1,13.9s-1.4,5.1-6.9,0.4c-5.6-4.6-11.9-6.5-13.1-3.2C70.2,646.9,66.5,651.6,72.5,655.7z"/>
		<path class="st0" d="M107.3,834.9c3.6,0.7,3.4,5,2.7,10.3c2.8-0.5,5.6-1.2,6.9-1.7c1.7-0.6,3.4-2,5.3-3.5c1.8-1.5,3.9-3.2,6.4-4.3
			l0.3-0.1c3.2-0.2,5.7-2.2,7.6-3.8l0.7-0.5c1.7-1.3,4.6-0.8,6.1-0.4l-0.1-2.4c-0.4-3.2,0.5-4.3,1.3-5.3c0.7-0.9,1.5-1.8,1.4-4.6
			c-1.1-5.8-2.3-14.3-2.2-14.8c0-0.4,0.6-8.9-2-14.4c-1.1-1.5-1.5-3.2-1.2-4.8c0.4-2.1,1.9-3.6,2.7-4.3c-1.3-1.2-2-2.5-2.7-3.7
			c-0.7-1.1-1.3-2.2-2.3-3.1c-1.1-1-2.3-1.2-3.9-1.7c-2.4-0.6-5.7-1.5-10.9-4.8c-10.1-6.5-7.1-19.6-7-20.2
			c0.6-2.7-1.9-16.5-2.7-21.1c-0.4-2.5-3.8-3.7-6.8-4.4c-1.4,4.1-2.8,5-6.5,9.9c-3.6,2.2-4.5,5.8-4.5,13c0.5,9.4-4.1,9.9-9.9,7.6
			c-16.2-5.8-21.1,12.1-23.4,23.3c-6.3-2.2-8.5,3.6-8.5,3.6s-0.5,9-2.3,19.3c-6.3,8.1,0.9,11.7,7.2,17.5c3.1,7.2,4,7.2,13,7.6
			c7.6,4.5,8.5,8.1,18.9,7.7C99.7,836.2,101.1,836.2,107.3,834.9z"/>
		<path class="st0" d="M136,922.4c0.4-1.2,4.2-2.7,7-0.9c6-3.8,14.1-9.6,14.5-12.1c-0.9-6.6-1.2-14-1.4-18.4
			c-0.1-1.7-0.1-2.9-0.2-3.4c-0.1-0.4-0.5-1.3-0.9-2.2c-1.6-3.3-4.2-8.8,0.1-12.1c1-0.7,1.8-1.4,2.6-2c3.3-2.4,4.6-3.3,4.6-6.5
			c0-0.4,0-0.7,0-1.2c-0.1-4.2-0.3-10.6,9.9-13.5c-0.8-0.8-2.4-2-5.1-1.9c-3.9,0.2-8.1-4.1-12.1-8.2c-1-1-2-2.1-3-2.9
			c-3.2-3-5.8-4.1-7.1-4.4l0,0.1l-1-0.3c-1.2-0.4-4.5-1.2-5.9-0.1l-0.7,0.6c-2,1.6-4.8,3.8-8.3,4.1c-2.2,1.1-4.2,2.6-6,4.1
			c-1.9,1.6-3.7,3-5.6,3.7c-1.5,0.6-4.6,1.3-7.6,1.9c-0.2,1.6-0.5,3.2-0.7,4.9c-2.2,3.6-2.7,13-2.7,13s-3.6,4-6.3,8.1
			c-2.3,4-3.2,6.7-5.8,8.5c1.3,5.8-2.7,7.2-3.1,13c-0.5,5.8,10.7,16.1,18.8,27.3C113.6,926.8,135.6,923.7,136,922.4z"/>
		<path class="st0" d="M130.4,1024.3c2.9,0.8,7.4,1.2,14.4,0.6l0.5-0.1c0.3,0,0.7,0,1-0.1c2.9-0.3,7.8-0.9,12.2,2.2
			c4.5,3.2,5.3,2.5,8.2,0l0.2-0.1l0.2,0c2.7-0.2,5.4-4,7.3-6.9l0.6-0.9c1-1.4,0.6-1.9-0.3-3.2c-0.7-0.9-1.7-2.2-2.2-4.1
			c-0.7-3,0.8-4.8,2.5-6.7c1.1-1.3,2.3-2.6,2.9-4.4c0.8-2.2-0.3-3.2-1.4-4.4c-1-0.9-2.1-2.1-1.3-3.8l0.6-0.9
			c1.7-2.6,2.7-4.2,1.5-5.7c-1.9-2.4-2.2-3.9-2.2-8.7c0-3.6-2.2-6.2-3-7c-0.9,0.4-1.9,0.7-2.8,0.7c-3.7,0.2-8.1-0.1-9.2-4.3
			c-0.6-2.3-5.1-3-6.9-3.1c-0.5,0.2-0.9,0.3-1.4,0.3c-0.6,0-1.1-0.1-1.7-0.4c-1.4-0.6-2.6-2.1-3.5-3.5c-1.5,1.6-3.4,4.9-0.4,10.1
			c4.4,7.6,1.3,13-5.9,14.8c-7.6,0-7.2,4.4-7.2,4.4s-1.4,18.4-1.4,31.4C131.7,1021.9,131.2,1023.1,130.4,1024.3z"/>
		<g>
			<path class="st0" d="M372.3,265.7c0,0-1.3,8.1,2.7,9c0.4,2.7,2.2,8.1,3.1,17.1c-3,4-1.8,7.5-0.2,12.3c2.3,0.9,5.2,1.6,7.5,1
				c1.3-0.3,2.4-1.1,3-2.3c0.6-6.3,2.5-13.5,11.6-13.5c2.3,0.3,4,0,5-0.8c0.9-0.8,1.3-2.1,1.3-4.1c0-4.4,4.4-8.8,8.7-8.8
				c0.5,0,0.8-0.1,1-0.4c0.5-0.6,0.4-2,0.3-2.4l0-0.1l0-0.1c0-0.1,0.6-2.4,2.5-3.3c1-0.5,2.3-0.4,3.6,0.2c2.5-0.7,5.7-2.8,6-4.3
				c0.1-0.2,0.1-0.5-0.3-0.9c-1.2-0.4-2.1-1.7-2.2-3.4c0-1.6,0.6-3,1.8-3.6c0.9-1.1,1.2-2.2,0.7-3.1c-0.5-1.1-1.9-1.8-3.4-1.7
				c-1.1,0.1-2-0.5-2.4-1.5c-0.5-1.5,0.2-3.8,1.5-5.5c-0.6,0-1.2,0.1-1.8,0.1c-4.4,0-9.5-1.5-12.2-2.7c-3.4-1.5-4.1-3.4-4.9-5.5
				c-0.6-1.4-1.1-2.9-2.5-4.7c-3.1-2.4-3.2-4.4-3.4-7.1c0-0.7-0.1-1.6-0.2-2.5c-0.5-3.2-4.2-3.1-9.4-2.4l-0.5,0.1
				c-3,0.4-7.5-0.2-10.5-0.6c-0.2,0.4-0.5,0.8-0.7,1.2c-6.3,9.4-9,21.1-8.1,31C364.7,259.8,372.3,265.7,372.3,265.7z"/>
			<path class="st0" d="M395.7,161.1c2.7,1.4,1.8,23.3-0.5,35.5c-2.4,6.1-10.7,14.4-15.6,22.2c2.9,0.4,6.9,0.9,9.5,0.6l0.5-0.1
				c4.6-0.5,10.3-1.3,10.9,3.5c0.1,1,0.2,1.9,0.2,2.6c0.2,2.6,0.3,4.1,3,6.1l0.1,0.1c1.5,2,2.2,3.7,2.7,5.2c0.8,2.1,1.3,3.4,4.2,4.7
				c4.9,2.2,15.3,4.5,18.2,0.3c2.1-3,3.9-3.9,5.5-4.6c0.9-0.4,1.8-0.8,2.7-1.6c2.2-2,3-4.5,2.4-7.7c-0.5-2.8,0.6-6.6,1.2-8.4
				c0.1-0.3,0.2-0.6,0.2-0.8c0.1-0.3,0.3-1.5,0.6-3.3c1.1-5.5,3.1-15.6,4.6-21.2c0.8-3.1,2.2-6,3.5-8.7c1.9-4,3.7-7.9,3.7-11.8
				c0-2.5-0.2-4.6-0.4-6.4c-0.3-3.2-0.6-5.5,0.5-7.3l-0.1,0l0.6-0.6c0.1-0.1,0.2-0.2,0.4-0.3c0.7-0.7,1.7-1.6,1.7-2.6
				c-0.1-0.7-0.7-1.5-1.9-2.3c-2.3-1.5-3.2-0.8-4.9,0.8c-1,0.9-2.2,2-4,2.8l-0.2,0c-3.1,0.2-4.4-1.3-4.5-2.6c-0.2-1.9,1.6-4.2,5-4.7
				c1-0.2,1.6-0.4,1.8-0.8c0.3-0.5,0-1.4-0.4-2.4c-0.4-1.3-1-2.9-0.7-4.6c0.4-2.1-0.9-2.7-3.6-3.6c-1.1-0.4-2.4-0.8-3.5-1.5
				c-2.1-1.2-3.1-2.3-3.2-3.5c-0.1-1,0.4-2.1,1.7-3.4c0.3-0.3,0.5-0.5,0.8-0.8c1.1-1.1,2.1-2,2.1-2.8c0-0.4-0.2-0.7-0.6-1.1
				c-1.1-0.3-1.8-0.9-2.2-1.7c-0.8-1.7,0.4-4.1,1.5-6.4c0.4-0.7,0.8-1.5,1-2.2c-1.9-3.3,0.4-10.2,3.8-13.5c2.7-2.3,2.4-5.9,2.2-6.9
				c-2-1.1-2.2-1.9-2.1-2.9c0-0.6,0-1.1-1.3-2c-5.3-2-7.4-6.7-8.2-10.4c-11.2-9.6-28-3.6-28-3.6s-7,1.2-10.5,4.7
				c-0.6,3.5-0.6,7-3,18.1c-2.3,11.1,4.7,21.1,11.1,26.9c-1.2,5.3,2.3,10,2.3,10c7,6.5-5.7,7.8-15.5,11.9
				C382.7,152.6,389,159.8,395.7,161.1z"/>
			<path class="st0" d="M326.5,378.2c8.9,4.9,10.7,4.5,11.2,9c-1.3,2.2-2.4,5.4-3,8.5c4,0,8.7,1.7,13.8,5c12.2,4,18.8-0.4,23.6-3.6
				c0.9-0.7,1.8-1.3,2.7-1.7l0.2-0.1l0.2,0c3.8,0.2,8.8-0.3,11.6-1.8c-1.6-2.6-1-6,1.6-9c0.9-1,1.2-2.3,0.8-3.6
				c-0.5-2-2.5-3.8-5.1-4.8l-0.2-0.1c-4.6-3.8-1.3-8.2,0.3-10.4c1.9-2.5,2.4-4.7,1.5-7.1c-1.7-2.7-1.4-4.3-0.7-6.6
				c0.5-1.9,2.6-1.8,4.9-1.7c1.5,0,3.1,0,4.8-0.3c2-0.4,2.1-1.4,2.3-3c0.2-1.3,0.4-3.1,2.2-4.5c1.6-1.2,1.8-2.7,1.8-3.8
				c-0.1-1.7-1.1-3.1-1.9-3.6l-0.7-0.4l0.5-0.6c1.9-2.5,0.8-4.5,0.3-5.2c-0.7,0-2.8,0.2-6.9,0c-5.9-0.3-8.1-6.3-9.2-10.8
				c-0.4-2.2-2.4-4.5-4.5-6.2c-1.4,1.6-4.2,1.9-5.8,0c-9.4-9.4-13.5,13.5-13.5,13.5s-5.8,8.5-13.5,11.7c-10.8,3.6-7.6,9-3.6,15.3
				c0,6.7-4.9,10.8-7.6,10.8c-5.4-4.9-6.7-4.1-9,2.3C321.1,368.9,317.5,373.3,326.5,378.2z"/>
			<path class="st0" d="M278.2,499.1c5.9,3.6,14.9,7.5,18.2,7.7c3.6,0.2,6.2,3.7,8.7,7c0.9,1.2,1.8,2.4,2.8,3.5
				c3.3,3.7,6.2,3.2,11.2,2.3l1.4-0.2c5.6-0.6,6.6-0.6,8.4,5.1c0.4,1.1,1,1.8,2.1,2c3,0.8,8-2.3,9.8-4.1c2.7-2.7,5.1-4.7,8.5-2.1
				l0.1,0.1c1.4,1.8,1.9,1.8,1.9,1.8c0.6-0.2,0.9-3.7,1-5l0.1-0.2c1.4-4.1,3.3-4.5,6.4-5.2c1.2-0.2,2.6-0.5,4.3-1.1
				c5.5-1.8,7.2-7.8,7.4-8.6c-0.1-0.8-0.5-5.4-1.3-9c-0.3-1.4-0.6-2.3-0.9-3c-0.6-1.5-1.1-2.7-0.9-6.1c0.1-2.8,0.7-3.6,1.4-4.2
				c0.4-0.4,0.7-0.7,0.8-2.3c0.1-1.3-0.1-2.3-0.3-3.1c-0.3-1.7-0.5-3,2-4.4c1.5-0.8,2-2.5,2.1-3.4c0.3-1.6-0.1-3.4-0.9-4.4
				c-2.2-1-3.2-2.9-2.9-5.7c0.1-1.4,0.1-2.5-0.5-3.1c-0.5-0.5-1.5-0.6-3-0.5c-3.6,0.4-4.2-1.4-5.1-4.4c-0.3-1.1-0.8-2.4-1.4-4
				c-1.7-4.2,0.6-7,2.8-9.7c1.2-1.5,2.5-3,3.1-4.7c1.7-4.6,2.2-4.9,5.5-4.6c0.4,0,1,0.1,1.6,0.1c3.9,0.2,4.9-4.4,5.8-8.2l0-0.1
				c0.2-0.6,0.3-1.1,0.4-1.7c0.5-2.7,0.8-3.9,3.3-4.2c0.6-0.1,1-0.1,1.2-0.1c0,0,0.1,0,0.1,0c0.1,0,0.1,0,0.1,0c0,0,0.2-0.3,0.5-0.5
				c0.5-0.5,1.2-1.2,2.5-2.4c1.3-1.2,3.2-4.7,1.8-13.9c-0.1,0-0.2,0-0.2,0c-3.3,2.1-9.3,2.4-12.6,2.3c-0.7,0.5-1.6,1-2.4,1.5
				c-3.6,2.4-8.2,5.5-15.2,5.5c-2.8,0-6-0.5-9.7-1.7l-0.1-0.1c-5-3.2-9.7-4.9-13.4-4.8c-0.7,3.9-0.6,7.8,0.6,9.9
				c4,7.6-1.8,12.6-9,20.6c-9.4,4.9-4.5,11.7-4.5,11.7s6.7,4.5,7.2,9c-2.7,5-6.3,4.5-5.4,12.6c-1.4,3.6-9.5,12.6-9.5,12.6
				s-11.6,0-16.6,2.2c-7.2,6.3-18.9,8.1-18.9,8.1s-10.8,2.2-6.7,6.3C279.1,491.8,278.6,497.2,278.2,499.1z"/>
		</g>
		<g>
			<path class="st0" d="M410.3,568.4c-2.5-0.7-5.2-1.3-6.7-2.7c-2.4-0.9-4-2.3-4.8-4.1c-0.8-1.7-0.8-3.7,0-5.7c0.2-0.5,0.1-0.8,0-1
				c-0.4-0.6-2-1-2.8-1l-0.5,0l-0.1-0.4c0-0.2-1.4-4.5-6-3.4c-9,1.5-11-0.4-14.3-3.5c-0.7-0.7-1.5-1.5-2.5-2.3
				c-2.2-1.8-3.2-3.6-3-5.6c0.2-2.8,2.7-4.6,3.8-5.4c1.2-0.7,2.2-2.8,1.8-4.1c-0.5-1.5-2.8-1.4-4-1.3c-2.4,0.3-4,0.1-5-0.7
				c-1.1-0.9-1.2-2.4-1.3-3.8c0-0.6-0.1-1.4-0.2-2c-1-0.4-2.1-0.1-3.5,0.1c-1.5,0.3-3.3,0.7-5.1,0.1l-0.3-0.1l-0.1-0.3
				c-0.5-1.2-1.6-1.6-2.3-1.7c-0.3,2.3-0.7,3.8-1.7,4.1c-0.9,0.3-1.9-0.4-3.2-2.1c-2.3-1.7-3.7-1-6.7,2c-1.7,1.7-6.2,4.6-9.8,4.6
				c-0.4,0-0.9,0-1.3-0.2c-1.5-0.3-2.5-1.4-3-2.9c-1.5-4.7-1.7-4.7-6.9-4.1l-1.3,0.2c-1.3,0.2-2.4,0.4-3.5,0.5
				c0.2,1.9,0.5,6.5-2,8.1c-0.1,0.2-0.1,0.5-0.1,0.7c0.4,1.3,2.5,2.8,3.2,3.2l0.3,0.2l0,0.4c0,0.1,0.2,2.8,3.2,4.4
				c2.1,1.1,3.7,1,4.5,0.6c0.4-0.2,0.6-0.6,0.6-1.1c0-0.6,0.4-1.2,1.1-1.6c1.2-0.7,3.4-0.8,5,0.3c1.2,0.7,1.9,2,1.7,3.4
				c-0.1,2,0.8,2.4,2.6,3.2c1.3,0.6,3,1.4,4.7,3.2c3.7,4.1,4.1,4.8,5.1,7.7c0.3,0.8,0.8,1,1.7,1.3c0.6,0.1,1.1,0.3,1.6,0.8
				c0.6,0.7,0.5,1.7,0.3,2.4l-0.1,0.5c-0.9,3.6-1.7,6-3.2,6.3c-0.6,0.1-1.3-0.2-1.9-0.9c-0.6-0.7-1-1.5-1.5-2.2
				c-0.4-0.8-1.1-1.9-1.4-2c0,0-0.3,0.3-0.6,1.4l-0.1,0.3c-0.5,1.6-0.8,2.7-1.5,3.4c0.2,1.7,0.9,8.6-1.3,11.3
				c-0.5,0.6-0.7,1.3-0.5,1.8c0.2,1.1,1.4,2.2,3.5,3.5c4.4,2.5,1.9,11.1,1.5,12.5c0.2,0.7,1.5,4.8,10.1,12l0.1,0.2
				c1.4,2.7,2.5,9.1,2.5,9.4l0,0.1l-2.5,16.7l-0.2,3.9l7,0l4.4,5.2c3.2-3.7,4.6-7.3,5.9-11.3c6.7-6.7,12.1-10.3,22.7-28.3
				c8.5-15.5,15.7-24.4,20.8-33.4C412.1,568.9,411.2,568.7,410.3,568.4z"/>
			<path class="st0" d="M173.4,699.4c-0.3,5.2,2.4,8,4.3,9.3c2.8,0.5,6.3,2,8.6,6.1c2.3,3.4,3.6,5,4.9,6.5c0.8,0.9,1.6,1.9,2.6,3.3
				c0.7,0.9,1.3,1.4,1.8,1.3c0.6-0.1,1-0.9,1.1-1.1l0.1-0.3l0.3-0.1c0.8-0.3,3.7-1,4.6,0.2c0.5,0.6,0.4,1.4-0.3,2.4
				c-0.7,1.3-1.7,2.4-2.6,3.5c-1.5,1.6-2.7,3.1-2.4,4.3c0.4,2.2,3.3,4.7,6.2,5.3c0.4,0.1,0.9,0.2,1.5,0.3c3.6,0.7,8.9,1.7,11.7,4.4
				c4.1,0.6,13.5,1.5,13.6,1.5c0.1,0,10.4,0.8,13.5-4.4c3.3-5.5,13.2-11.7,18.3-11.8c-0.1-0.5-0.1-1-0.2-1.5
				c-0.2-2.1,0.4-3.3,1.1-4.6c0.6-1.2,1.2-2.4,1.5-4.5c0.3-3.1-2.2-4.4-6.4-6.4c-1-0.5-2.1-1-3.1-1.5c-4-2.1-5.5-3.1-5.6-4.3
				c0-0.7,0.4-1.1,0.7-1.5c-0.5-2.6-1.4-4.4-1.8-5.1c0,0-0.1,0-0.1,0c-0.7,0-1.4-0.3-2.1-0.8c-2.4-2-3.4-7.1-3.4-7.8
				c-0.1-0.7-2.3-5.1-4.3-5.8c-4.3,0.6-8-0.9-8.4-2.2c-0.2-0.5-2.9-2.6-7.9-3c-4.8-1.1-8.8-6.5-11.1-10.2c-3.9,1.8-9.2,1.9-9.2,1.9
				s-8.1-0.9-10.3,1.8c-0.5,3.6-0.9,6.7-6.8,10.8C170.2,688.2,173.8,691.3,173.4,699.4z"/>
			<path class="st0" d="M207.3,1068.2c-1-3-4.1-4.3-5.8-4.8l0,0l-6.1-1.5c-4.7-1.1-7.5-0.3-9.8,2.9l-0.2,0.2l-0.3,0
				c-2.8,0.6-6.1,1.7-7.6,5.7c-0.6,1.6-1.5,2.6-2.7,2.9c-1.9,0.4-4-1.2-5.4-2.4c-6.2-0.9-6.6-2.5-7-6.1l-0.1-0.8
				c-1.1-1.6-1.6-1.6-1.6-1.6c-0.2,0-0.6,0.7-1,1.2c-0.5,0.7-0.9,1.5-1.7,2.2c-1.9,1.7-4.2,4.4-5.6,9.9c-0.1,0.3-0.2,0.6-0.3,0.9
				c1.1,0.7,3.3,2.6,3.2,5.9c1.1,1.5,3,1.1,3,1.1l0.5-0.1l0.2,0.5c0,0.2,1.4,3.7,0,6.6c-0.6,1.2-0.6,2.3-0.1,3.3
				c0.7,1.3,2.4,2.3,5,2.6c5.6,0.9,10.7,0,10.8,0h0.1l0.1,0c0.1,0,2.9,0.5,4.1,2.6c0.7,1,0.8,2.3,0.5,3.7c1.1,2.3,5.6,1.4,5.7,1.4
				c0.6-0.1,5.8-1,7.8,0.8c0.7,0.6,0.9,1.4,0.8,2.3l0,0.6c-0.4,3.8-0.9,7.7-4.7,10.4c-3.3,2.3-2.3,4.7-0.7,6.9
				c0.7,1.1,5.3,4.4,9.9,7.5c1-9.2,3-20.1,3.5-29.1c0.4-7.2,5.4-7.2,10.3-5.4c6.7,3.1,8.5,0.4,9-5.8c1.9-6.1,1.7-11,1.6-15.1
				C216,1077,208.8,1072.4,207.3,1068.2z"/>
			<path class="st0" d="M349.5,965.5c0.4-6.3,0-7.6-4.9-9.9c-5.4-8.1-18.4-10.8-27.8-11.3c-1.5-0.4-3-1.1-4.5-2
				c-3.1,4.2-6.7,8.3-9.4,9.1c-1.9,0.6-4,0.8-6.2,0.8c-5.1,0-10.6-1.4-14.5-3.1c-3.9-2.3-9.3-4-13.4-5.1l0,0.1
				c0.1,1.3-1.3,2.6-3,4.1c-0.8,0.7-1.7,1.5-2.5,2.3c-2.6,2.7-3.1,5.1,1.9,10c3.2,3.1,2.4,5.9,1.5,9.4c-0.5,2-1.1,4.2-1.2,6.9
				c1.1-0.1,2.5,0.2,3.3,1.9c0.2,0.3,0.6,0.6,1,0.6c1.2,0.1,2.8-1.1,3.3-1.6c0,0,1.8-2,4.1-2.1c1.2-0.1,2.3,0.4,3.3,1.4
				c2.1,2.1,2.8,2.1,4.2,2.2c0.6,0,1.2,0,2.1,0.2c0.9,0.1,1.1-0.2,1.6-1.3c0.4-1.1,1.1-2.7,3.6-2.4c1.4,0.2,2.8-0.3,4-0.7
				c1.3-0.5,2.4-0.9,3.4-0.4c0.5,0.3,0.9,0.7,1.2,1.4c0.4,0.4,0.8,0.7,1.3,0.7c1,0.1,2.1-0.9,2.1-0.9l0.2-0.2l0.3,0
				c0.1,0,1.6,0,2.3,1.1c0.6,0.9,0.5,2.2-0.4,3.8c-0.4,1-1,1.9-1.5,2.8c-1,1.7-2,3.3-1.6,4.2c0.1,0.4,0.5,0.7,1.2,0.9
				c0.8,0.3,1.6,0.5,2.4,0.7c2.6,0.6,4.8,1.1,5,5.2c0.1,1.9,0.8,3.7,1.6,5.2c0.1-0.1,0.2-0.2,0.2-0.4c6.7,0.9,18-2.2,19.7-7.2
				c0.4-3.6,4.9-2.3,10.3-7.6c2.7-4.9,6.3-5.8,11.7-10.3C358.5,969.1,352.7,968.2,349.5,965.5z"/>
			<path class="st0" d="M358.6,638.3l-7.8,0l0.3-5.4l2.5-16.6c-0.2-0.8-1.2-6.3-2.4-8.8c-8.1-6.9-9.9-11-10.3-12.4
				c-0.4-0.1-0.6,0.1-0.7,0.2c-0.8,0.6-0.9,2.3-0.9,2.9l0,0.2L335,604c-0.4,1-4.5,10.5-12.4,11.4l-0.1,0h-0.1
				c-7-0.8-8.5,4.1-8.5,4.2c0,0.3-1.4,8.5-7.2,14.2l-0.2,0.2c-0.2,0-0.2,0-0.4,0.1c0.1,2,0.5,9.3,0,14.4c-0.5,6.2-3.2,8.1-6.2,9.7
				c-2.3,1.2-5,4.9-5.5,11.3c-0.5,6.3-0.9,10-2.1,11.3c0,0,0,0.1,0.1,0.1c2.1,2.1,5.4,5.2,2.9,7.9c-0.6,0.7-2.1,2.4-1.8,3.2
				c0.2,0.5,1.1,1,2.6,1.2c0.8,0.1,1.5,0.2,2.1,0.4c3.3,0.5,5.3,0.8,8,4.6c1.8,2.4,3.4,2,3.4,2l0.4-0.1l0.3,0.3l6.7,7.5
				c0.6-0.8,1.2-1.8,2-3.4c2.3-11.2,11.2-21.5,13.9-28.7c5.4-1.8,8.5-2.7,11.7-10.8c3.6-10.8,8.1-13.4,14.4-18.8c1.4-1,2.5-2,3.5-3
				L358.6,638.3z"/>
			<path class="st0" d="M134,1064c1.7-1.8,3.8-3.6,5.4-3.4c0.6,0,1.2,0.4,1.5,1c1.9,3.4,1.9,8.9,1.6,11.8c-0.2,2.3,0,4.5,0.1,5.4
				c1.7,0.3,7.6,0.9,8.5-3.1c1.5-6,4.1-9,6-10.7c0.6-0.5,1-1.2,1.4-1.9c0.6-1,1.1-1.9,2.1-1.9c0.9,0,1.7,0.7,2.9,2.3l0.1,0.1
				l0.1,1.1c0.3,3.2,0.4,4.2,6.1,5l0.2,0l0.1,0.1c1.9,1.8,3.4,2.5,4.4,2.3c0.7-0.2,1.2-0.8,1.7-2c1.7-4.5,5.3-5.8,8.3-6.5
				c2.6-3.4,5.9-4.4,11.1-3.2l3.4,0.8c-1.1-2.8-3.7-10-2.9-15.8c-1.3-4.6-3-5.2-3-5.2l-0.2-0.1l-0.2-0.1c-0.1-0.2-2.6-3.9-1.6-7.2
				c0.5-1.6,1.8-2.9,3.7-3.7l0.1,0c0.4-0.2,0.5-2.5,0.2-4.8c-1-0.2-2.3-0.8-3.8-1.9l-0.2-0.1c-4.4-6.1-11.9-5.8-14.4-5.4
				c0.3,0.8,0.2,1.7-0.7,2.9l-0.6,0.9c-2.2,3.1-4.9,7-8.2,7.4c-1.7,1.4-2.9,2.3-4.4,2.3c-1.3,0-2.9-0.7-5.2-2.4
				c-3.9-2.8-8.3-2.3-11.2-2c-0.4,0.1-0.8,0.1-1.1,0.1l-0.5,0c-6.7,0.6-11.8,0.3-15.3-0.8c-3.7,4.9-10.3,8.1-10.3,8.1s0,0-0.5,1.4
				c-0.4,1.3-4,14.8-1.8,21.1c2.3,6.3,8.1,3.1,16.6,7.6C133.8,1063.8,133.9,1063.9,134,1064z"/>
			<path class="st0" d="M310.5,994.4c-0.2-3-1.4-3.3-4-4c-0.8-0.2-1.6-0.4-2.5-0.7c-1.1-0.3-1.8-0.9-2.1-1.7
				c-0.5-1.5,0.6-3.3,1.7-5.4c0.6-0.8,1.1-1.7,1.5-2.6c0.6-1.2,0.7-2.1,0.4-2.5c-0.2-0.4-0.6-0.5-0.9-0.5c-0.5,0.4-1.6,1.2-2.9,1.1
				c-0.9,0-1.7-0.4-2.4-1.2l-0.1-0.2c-0.2-0.4-0.3-0.7-0.6-0.8c-0.5-0.2-1.3,0.1-2.3,0.5c-1.3,0.4-2.9,1-4.7,0.8
				c-1.4-0.2-1.8,0.5-2.2,1.6c-0.4,1-1,2.5-3,2.1c-0.8-0.1-1.4-0.1-2-0.2c-1.7-0.1-2.7-0.2-5.1-2.5c-0.7-0.7-1.4-1-2.3-1
				c-1.8,0.1-3.2,1.7-3.2,1.8c-0.3,0.2-2.4,2.2-4.4,2c-0.8-0.1-1.5-0.5-2-1.3c-0.6-1.2-1.6-1.3-2.2-1.2l0,0.1l-0.6,0.1
				c-2.3,0.3-3.8,4.8-4.1,6.4c0,0.2-1.2,6.5-4,9.5l-0.2,0.1c-0.2,0.1-0.3,0.1-0.5,0.2c-0.2,3.9-3.4,5.4-3.5,5.4l-0.3,0.2l-0.3-0.2
				c-0.1,0-1.8-1-3.9,0c-0.2,0.1-0.5,0.2-0.8,0.2c-0.2,1.7-1,7.2-3.3,9.5c-1.5,1.5-2.1,2.5-2,3.4c0.1,0.9,0.7,1.8,2,2.7
				c1.2,1,2.5,1.7,3.7,2.3c2.3,1.2,4.4,2.4,5.2,4.7c0.9,2.8,4.9,2.7,4.9,2.7l0.4,0l3.3,4.9c4.4-2.2,7.8-3.3,7.8-3.3
				s7.6-1.4,12.5-3.1c4.5-4,8.6-5,15.3-3.6c6.3-1.3,8.5-6.3,8.5-12.5c4.4-0.8,4.5-3,7-7.3C311.6,999.1,310.6,996.9,310.5,994.4z"/>
			<path class="st0" d="M257.4,1027.2c-1.2,0-4.8-0.4-5.9-3.6c-0.6-1.9-2.5-2.9-4.6-4c-1.3-0.7-2.7-1.4-3.9-2.4
				c-1.6-1.3-2.4-2.5-2.4-3.8c-0.1-1.7,1.2-3.2,2.4-4.4c1.7-1.7,2.6-6.1,2.9-8.4c-2-0.2-4.2-1.6-6.6-3.2c-0.5-0.3-1.1-0.7-1.7-1.1
				c-3.2-2-6.8-0.5-7.7-0.1c-0.8,1.6-3,4.1-6.1,3.1c-3.4-1.4-4.9,0.2-8.5,4l-0.2,0.2c-2.5,2.7-1.7,7.7-0.8,13.6
				c0.3,2.4,0.7,4.8,0.9,7.2c0,2.8-1.6,4.8-4.6,5.5c-0.7,0.2-1.5,0.3-2.3,0.3c-3.1,0-6.4-1.2-7.6-3.6c-0.9-1.8-1.6-1.8-3-1.9
				c-0.3,0-0.7,0-1.1-0.1c0.3,2.1,0.4,5.5-1.3,5.9c-1.6,0.7-2.5,1.6-2.9,2.8c-0.7,2.3,0.9,5.2,1.3,5.8c0.8,0.3,2.5,1.6,3.8,6.2
				l0,0.2l0,0.1c-1,6.2,2.4,14.5,3.2,16.2c1.4,0.3,6.5,1.6,7.9,6c1.1,3.4,7.8,7.9,14.1,8.6c0-2,0.1-3.8,0.7-5.5
				c0.5-7.2,6.3-11.6,10.8-13c4.4,5.4,6.7,3.1,5.8,0c-1.4-6.7,2.3-10.3,7.2-17c3.4-4.1,8.5-7.3,13-9.6L257.4,1027.2z"/>
			<path class="st0" d="M144.1,922.3L144.1,922.3c-0.9,5,6.7,11.7,6.7,11.7s-0.4,1-0.8,2.7c3.7-2.8,8.8-5.7,13.5-4.9
				c7.6,1.3,16.5,0.3,18.1-3.6c1.4-3.3,4.8-4.7,8.2-6.1c1.2-0.5,2.3-0.9,3.3-1.4c3.1-1.6,11.2-9.3,12.5-13.7c0.2-0.7,0.2-1.3,0-1.7
				c-0.4-0.4-0.7-0.7-1-1.2l-0.1-0.2c-1.3-3.7-3.3-6.3-5.6-9.4c-1.1-1.4-2.2-2.9-3.3-4.6c-3.2-4.8-2.8-10.4,1-15.4
				c0.9-1.5-3.7-9.9-8.9-17.1c-1.4-0.3-3.1-1.2-4.8-3.6c-3.5-4.7-9.3-2.9-9.3-2.9l-0.5,0.2l0,0c-9.6,2.6-9.5,8.2-9.4,12.3
				c0,0.4,0,0.9,0,1.2c0,3.8-1.7,5.1-5,7.6c-0.8,0.6-1.7,1.2-2.6,1.9c-3.5,2.7-1.2,7.4,0.4,10.5c0.5,1.1,1,2,1,2.6
				c0.1,0.6,0.1,1.8,0.2,3.5c0.2,4.4,0.4,11.8,1.4,18.4l0,0.1l0,0.1C158.5,912.9,148.6,919.5,144.1,922.3z"/>
			<path class="st0" d="M263.6,916.5c0.1-3.2-9.3-6.3-15.6-7.7c-0.2,2.6-0.6,4.8-1.7,5.7c-2.1,2.1-8.4,3-17.2,4.2
				c-1.5,0.2-3.1,0.4-4.7,0.6c-9.8,1.5-12.6,6.2-16.6,13.8c-3.9,7.5-18.1,14.4-18.7,14.6L189,948c-0.1,0-10.8,2-15.4,4.8
				c-8.4,9-11.4,8.8-13.3,7.3c0-0.1-0.1-0.1-0.2-0.2c-0.8-0.3-2.6-0.9-4.2-0.1c-0.8,0.4-1.4,1.2-1.9,2.3c2,0.2,6.5,1,7.3,4.1
				c0.7,2.6,3.1,3.6,7.9,3.3c1.4,0,3-0.9,4.7-1.7c3.4-1.7,7.2-3.6,11.1-0.8l0.4,0.3c5,3.5,6.2,4.4,13.5,6.1l0.2,0.1l0.2,0.1
				c2.4,2.4,2.1,5,1.5,6.2c0.1,0.7,0.5,2.1,1.4,2.3c0.8,0.3,2.1-0.4,3.6-2l0.7-0.7c4.8-5,5.2-5.4,9.8-4.9c2.2,0.2,3.7-0.1,4.6-1
				c0.8-0.8,1.1-2.3,0.8-4.3c-0.4-3-3.1-5.1-4.8-5.3c-0.9-0.1-1,0.4-1.1,0.5l-0.1,0.2c-1.5,1.5-4.8,2.3-6.9,1.1
				c-0.9-0.5-2.3-1.9-1.4-4.9c1.9-6.6,5.2-9,11.3-7.9c1.5,0.2,2.9,0.6,4.3,1c4.5,1.2,8.1,2.1,11.3-1c4.8-4.8,8.7-4.9,12.3-4.2
				c2,0.4,8-1.8,12.1-4.8c2.1-1.6,3.4-3.1,3.6-4.4c-0.5-1.7-0.7-4-1-7.2c-0.4-4.8,0.4-7.4,1.2-10
				C262.8,920.6,263.4,918.9,263.6,916.5z"/>
			<path class="st0" d="M282.3,743.2l0,3.6c0,0.1-0.1,0.9-0.8,1.4c-0.8,0.4-2,0.2-3.6-0.8l-0.2-0.1c-2.8-3.7-9.9-8.4-12.3-9.5
				c-2.1-1-3.3-3.6-3.9-6.2c-4.5-0.3-14.3,5.8-17.4,11.1c-0.5,0.8-1.2,1.5-2,2.2c0.1,1.1,0.6,5.1,5.4,5.8c0.6-0.1,1.1,0.1,1.5,0.5
				c1.4,1.3,1.2,5,1.2,5.4c-0.1,3.5,0.4,8.9,1.7,9.7c0.8,0.4,1.4,1,1.9,1.6c1.2,1.2,2,2.1,4.9,0.6c4.8-2.3,6.5-0.6,9.4,2.2l0.6,0.6
				c1,0.9,2.3,2,3.6,3c1.1-0.9,3.2-2.8,4.1-5.7c7.7-1.3,8.1-6.7,7.2-11.7c-0.3-1.7,0-2.6,0.6-3.5c-0.4-0.9-0.6-1.9-0.9-3.1
				C283.5,745.3,282.8,743.7,282.3,743.2z"/>
			<path class="st0" d="M193,778.8c-0.1,1.4-0.2,2.7-0.9,3.8c0.4,0.9,1.7,3.6,5.2,3l0,0c2.8,0,3.6,4.5,3.7,5c0,0,0.3,1.1,1.3,1.7
				c0.9,0.5,2,0.5,3.4,0l0.2-0.1l0.2,0.1c2.5,0.6,5.1,4,5.8,4.9c1.3,0.1,6.1,0.7,7,3.6c0.7,1.5,2.5,2.6,3.9,2.3
				c1.7-0.3,2.8-2.3,3-5.5c0.1-1,0.2-1.8,0.2-2.7c0.4-5.4,0.6-9.3,2.7-10.9c0.9-0.7,2-1,3.5-0.7c2.7,0.5,4.1,1.5,5,2.1
				c0.9,0.6,1,0.7,1.6,0.2l0.8-0.6c1.4-1.1,4.2-3.3,4.6-3.9c0.2-1.3,3-6.8,7.9-6.8c1.2,0.2,1.8-0.7,2-1.2c0.6-1.2,0.5-2.8-0.2-3.5
				l0,0c-0.5-0.3-0.8-0.7-1.2-1c-0.5-0.5-1-1-1.6-1.3c-2.5-1.5-2.4-9.4-2.4-10.9c0.1-1.4-0.1-3.7-0.7-4.4c-0.1-0.1-0.2-0.2-0.5-0.1
				l-0.1,0l-0.1,0c-5-0.7-6.2-4.4-6.5-6.3c-3.2,1.9-7.5,2.1-9.8,2.1c-1,0-1.7,0-1.8,0c-0.4,0-9.9-0.9-13.9-1.6l-0.2-0.1l-0.2-0.2
				c-2.3-2.5-7.8-3.5-11.1-4.2c-0.6-0.1-1.1-0.2-1.6-0.3c-3.2-0.7-6.3-3.3-7.1-5.9c-9.1-1.1-9.8,2.4-11.1,8.7l-0.1,0.5l-0.1,0.1
				c-2.8,3.6-3.4,4.6-1.7,10c1,3,4,5.1,7.1,7.1c2.3,1.6,4.5,3,5.6,4.8c2.8,4.5,0.3,7.6-1.7,10.1C193.1,777.6,193.1,778.2,193,778.8z
				"/>
			<path class="st0" d="M214.2,1002.4c3.7-3.9,5.8-6.1,9.9-4.4c2.9,0.9,4.4-2.4,4.5-2.5l0.1-0.2l0.2-0.1c0.2-0.1,4.9-2.6,9.2,0.1
				c0.6,0.3,1.2,0.7,1.7,1c3.1,1.9,5.7,3.6,7.5,2.8c2.2-1,4-0.5,4.8-0.1c0.6-0.4,2.2-1.6,2.5-3.9c-0.4-0.1-0.7-0.2-1-0.4
				c-2.4-1.8-2.5-8-1.9-11.8c0.2-1.5,0.1-2.6-0.5-2.8c-0.9-0.3-2.6,0.7-3.1,1.4c-1,1.6-6.3,4.2-11.5,2.1c-1.7-0.7-2.6-1.6-2.9-2.9
				c-0.2-1.1,0.2-2.2,0.7-3c-1.3-0.1-2.9-0.8-3.4-2.5c-1.7-3.5-6.9-2.8-8.3-2.5c-0.2,0.7-0.5,1.3-1,1.8c-1.1,1.2-3,1.7-5.6,1.4
				c-4-0.4-4-0.4-8.7,4.5l-0.6,0.7c-1.6,1.6-3,2.5-4.2,2.5c-0.3,0-0.6-0.1-0.8-0.2c-2-0.6-2.3-3.5-2.3-3.5l0-0.3l0.1-0.2
				c0.1-0.1,1.2-2.2-1.1-4.6c-7.4-1.8-8.8-2.8-13.7-6.3l-0.4-0.3c-3.2-2.3-6.4-0.6-9.6,1c-0.4,0.2-0.7,0.4-1.1,0.5
				c1.1,1.2,3,3.9,3.1,7.6c0,4.8,0.3,5.9,1.9,7.9c1.9,2.4,0.2,4.9-1.5,7.4l-0.6,0.8c-0.3,0.7,0,1.2,1.1,2.2c1.1,1.2,2.7,2.7,1.7,5.7
				c-0.7,2.1-2,3.6-3.1,4.9c-1.6,1.8-2.8,3.2-2.2,5.5c0.4,1.7,1.2,2.8,1.9,3.6c0.1,0.2,0.3,0.3,0.4,0.5c2.1-0.3,11-1.2,16.1,5.8
				c2.5,1.8,4.1,1.8,5.5,1.8c1.5,0,2.7,0,4.1,2.6c1.1,2.1,5.2,3.4,8.5,2.7c1.3-0.4,3.5-1.3,3.5-4.1c-0.1-2.3-0.6-4.7-0.9-7.1
				c-0.9-6-1.8-11.6,1.1-14.7L214.2,1002.4z"/>
			<path class="st0" d="M144.5,828.3l0.2,2.9c1.2,0.3,4.4,1.2,8.1,4.8c1,0.9,2,1.9,3,2.9c3.6,3.7,7.8,8,11.1,7.9
				c3.9-0.2,5.9,1.9,6.6,2.8c1.6-0.4,6.9-1.1,10.4,3.5c1.6,2.2,3.3,3.3,5,3.2c1.5-0.1,2.9-1.2,4-3.1c1.4-2.5,1.7-6.3,0.9-9.1
				c-0.4-1.1-1.1-2.6-2.5-3.4c-2.4-0.2-3.5-1.5-4.1-2.5c-1.2-2.1-0.8-5,0.1-6.7l0.4-0.7c1.2-2.5,2.4-4.8,2.1-7.9
				c-0.3-2.6,1.7-6.1,4.4-7.5c2.2-1.2,4.7-0.9,6.8,0.9c2.4,1.9,4.9,1.5,8.3-1.5c1.6-1.4,2.8-2.4,4.1-2.3c1,0.1,1.9,0.8,2.9,2.4
				l0.1,0.2c0.2,0.5,0.8,0.6,1.2,0.6l0-14.7l0.1,0c-0.9-1.9-4.6-2.4-6-2.5l-0.3,0l-0.2-0.3c-0.7-1.1-3-4-5-4.6
				c-1.7,0.5-3.1,0.5-4.3-0.2c-1.6-0.8-2-2.5-2-2.5c-0.2-1.1-0.9-4-2.3-4l0,0c-3.3,0.6-5.4-1.4-6.3-3.1c-1,0.9-2.7,1.7-5.4,2.4
				c-1.9,0.5-4.6,0.6-7.7,0.6c-10.1,0-24.6-2.1-29.9-3.8c-1.6-0.5-2.8-1.2-3.8-1.9c-0.7,0.5-2.1,1.9-2.5,3.7c-0.3,1.3,0.1,2.6,1,3.9
				c2.8,5.8,2.2,14.7,2.1,15.1c0,0.5,1.1,8.5,2.2,14.6c0.2,3.4-0.8,4.6-1.7,5.6C144.8,824.9,144.2,825.7,144.5,828.3z"/>
			<path class="st0" d="M264.1,547.8c5.8-0.5,5.8,5.8,6.3,15.7c0.9,4,1.9,7.2,1.9,9.9c5,1.8,10.9,4,13.4,5c4,1.7,4.1,1.6,4.8,0.4
				l0.3-0.3c2.6-2.1,10.1-6.4,13.6-8c1.9-0.8,4-1.5,5.5-0.5c1,0.7,1.4,2.4,1.1,5c-0.7,5.5,2.5,12.5,5,15.4c0.1,0.2,0.2,0.3,0.3,0.4
				c0-0.5,0.1-1.2,0.2-1.9c0.1-2.1,0.3-5,1.5-7.7c2.7-5.3,5.3-14.9,5.4-14.9l0.1-0.5l7.9,0c6.6,0,6.7-0.1,7.9-4.1l0.1-0.4
				c0.3-1.1,0.8-2.2,1.7-2.4c1.1-0.1,1.8,1.1,2.8,2.6c0.4,0.7,0.9,1.4,1.4,2c0.3,0.3,0.5,0.5,0.6,0.4c0.8-0.2,1.7-3.7,2.1-5.4
				l0.1-0.4c0.1-0.6,0.1-1,0-1.1c-0.1-0.2-0.5-0.3-0.9-0.4c-0.9-0.2-2.1-0.5-2.7-2.1c-0.9-2.6-1.2-3.2-4.8-7.2
				c-1.4-1.6-2.9-2.3-4.3-2.9c-1.8-0.8-3.5-1.6-3.3-4.5c0.1-1-0.3-1.8-1.1-2.3c-1.1-0.7-2.9-0.7-3.7-0.2c-0.1,0.1-0.3,0.2-0.3,0.4
				c0,0.9-0.5,1.8-1.3,2.3c-1.4,0.8-3.5,0.6-5.7-0.5c-3-1.6-3.7-4.2-3.9-5.1c-0.9-0.6-3.1-2.1-3.6-3.8c-0.2-0.7-0.1-1.3,0.2-1.9
				l0.1-0.1l0.1-0.1c1.9-1,1.8-5,1.5-7c-2.7,0.1-5.1-0.6-7.5-3.4c-1-1.1-1.9-2.4-2.8-3.6c-2.5-3.2-4.7-6.4-7.7-6.5
				c-3.6-0.2-12.7-4.2-18.8-7.8c-0.9,1.1-2.5,3.8,0.9,6.2c13.9,6.7,1.8,20.2,1.8,20.2s-7.2,9.4-11.2,8.5c-1.8-6.7-7.6-8.5-9.9-1.4
				C256.9,541.1,260.5,546.9,264.1,547.8z"/>
			<path class="st0" d="M291.6,681.8c-0.2-0.2-0.5-0.4-0.7-0.7l0,0c-0.4-0.4-3.2-0.4-6.5,1.6c-1.5,1.5-3.3,2.1-5.1,2.1
				c-3.6,0-7.3-2.2-8.9-3.2c-0.4,1.1-1.2,3.2-2.5,5.5c-2.1,4.1-7.2,6.4-12.8,6c-3.5-0.3-3.9,0.7-4.8,3.1c-0.4,1.1-1,2.4-1.9,3.9
				c0.4,0.8,1.5,2.9,2.1,5.9l0.1,0.4l-0.3,0.2c-0.4,0.3-0.5,0.5-0.5,0.5c0,0.7,3.3,2.5,4.9,3.3c1,0.5,2.1,1,3,1.5
				c4.1,1.9,7.6,3.5,7.2,7.7c-0.2,2.4-1,3.8-1.6,5c-0.6,1.2-1.1,2.1-0.9,3.8c0.5,4.3,1.8,7.2,3.7,8c2.3,1,9.6,5.8,12.7,9.8
				c1.6,0.9,2.1,0.7,2.2,0.7c0.1,0,0.1-0.2,0.1-0.2l0-4.9l0.4-0.2c0.3-0.1,0.9-0.2,1.5,0.2c1.3,0.9,2,3.6,1.9,8.3
				c0.1,0.7,0.3,1.4,0.5,2c0.9-1.2,2-2.8,2.4-6.1c1.8-8.1,11.6-16.6,21.1-28.7c4.2-6.2,6-7.1,7.5-8.6l-6.6-7.3
				c-0.8,0-2.6-0.1-4.5-2.6c-2.4-3.3-4-3.6-7.1-4.1c-0.6-0.1-1.4-0.2-2.2-0.4c-2.1-0.4-3.3-1.1-3.6-2.1c-0.5-1.5,0.7-3,2.1-4.6
				C295.9,686.2,294,684.1,291.6,681.8z"/>
			<path class="st0" d="M337.7,566.5c-1.2,0.6-3.1,0.7-6.4,0.7l-6.8,0c-0.6,2.1-2.9,9.9-5.3,14.7c-1,2.4-1.3,5.2-1.4,7.2
				c-0.1,1.9-0.2,3-1,3.3c-0.1,0-0.2,0-0.3,0c-0.5,0-1.1-0.5-1.5-1c-2.7-3.1-6-10.5-5.3-16.4c0.3-2,0-3.3-0.6-3.8
				c-0.6-0.5-2-0.3-4,0.7c-3.4,1.5-10.7,5.7-13.2,7.7l-0.1,0.1c-1.3,1.9-2.1,1.9-6.5,0c-2.4-1-8-3.1-12.9-4.8
				c-0.2,1.8-1,3.4-2.7,4.9c-8.1,2.7-8.5,4-3.6,9c4.3,4,5.5,7.1,5.1,9.7c2.7,0.6,6.2,1.1,7.9,0.6c2.7-0.7,5.3-1.1,7.1,0.3
				c1.1,1,1.7,2.6,1.6,4.8c0,1.2-0.2,2.5-0.3,3.9c-0.5,5.2-1,11.7,2.3,12.7c3.8,1.1,4.5,2.3,5.2,3.5c0.1,0.2,0.3,0.5,0.5,0.7
				c3.9-0.7,4.7-2.2,4.7-2.2l1.4-2.8l-0.1,3.1c-0.1,2.1,0.2,7.8,2.4,9.4c0.6,0.5,1.4,0.6,2.4,0.3c5.3-5.4,6.7-13.4,6.7-13.4
				c0-0.1,1.8-6.2,9.9-5.3c7.3-0.9,11.2-10.5,11.3-10.6l0.1-0.1l3.9-5.4c0-0.7,0.2-2.8,1.5-3.7c0.3-0.3,0.9-0.5,1.6-0.4
				c0.8-2.8,1.9-8.9-1-10.5c-2.5-1.5-3.8-2.9-4.1-4.3c-0.2-1,0.1-2,0.8-2.9C338.1,574.2,338,569.2,337.7,566.5z"/>
			<path class="st0" d="M255.9,629.7c2.3,2.3,2.2,5.1,1.9,9.2c0,0.8-0.1,1.6-0.1,2.5l-0.1,0.9c-0.2,5.4-0.8,19.7,3.1,22
				c5,3.1,8.1,7.7,8.1,12.1c0.2,2.8,1.5,3.7,1.5,3.7c0.1,0.1,8.8,6.4,13.1,1.7l0.2-0.1c3-1.8,6.3-2.5,7.8-1.7
				c1-0.7,1.5-7.3,1.7-10.5c0.4-5.8,2.8-10.6,6.2-12.4c2.9-1.5,5.1-3.1,5.5-8.7c0.5-4.9,0.1-12,0-14c-0.7,0-1.4-0.3-2.1-0.7
				c-2.3-1.7-2.8-6.4-2.9-8.9c-0.9,0.6-2.4,1.3-4.8,1.7l-0.4,0l-0.2-0.3c-0.4-0.4-0.6-0.8-0.8-1.2c-0.6-1-1.1-1.9-4.5-2.9
				c-4.3-1.2-3.7-8-3.2-14.1c0.1-1.4,0.2-2.7,0.3-3.8c0.1-1.8-0.3-3.1-1.1-3.7c-1.3-1-3.7-0.6-5.9-0.1c-2,0.5-5.8,0-8.7-0.6
				c-1.4,3.7-6,6.1-8.3,7.8c-3.6,2.7,0.4,3.1-4.9,12.1c-1.3,1.5-2.6,2.8-4.1,4.1C253.9,626,254.8,628.5,255.9,629.7z"/>
			<path class="st0" d="M150.8,962.1c0.6,0.3,1.3,0.3,1.9,0.1c0.5-1.7,1.5-2.9,2.7-3.6c2.1-1,4.4-0.2,5.1,0c0.3,0.1,0.5,0.3,0.7,0.4
				c0.7,0.6,2.7,2.1,11.5-7.3l0.1-0.1c4.6-2.9,14.7-4.8,15.8-5c1.1-0.5,14.5-7.2,18-14c3.5-6.9,6.6-12.8,17.5-14.5
				c1.7-0.3,3.2-0.5,4.8-0.7c7.9-1.1,14.7-2.1,16.4-3.8c1.4-1.4,1.4-6.7,1.5-9.6c0-0.4,0-0.7,0-1l-0.2,0c-0.5,0.1-13.5,2-19-0.3
				l-0.2-0.1c-2.2-2-4.5-2.9-6.2-2.5c-1.1,0.2-2,1.1-2.6,2.5c-1.1,2.5-3.8,4.4-6.9,4.8c-0.3,0.1-0.6,0.1-0.9,0.1
				c-1.4,0-2.7-0.4-3.9-1.1c0,0.3-0.1,0.6-0.2,0.9c-1.4,4.8-9.7,12.7-13.1,14.5c-1.1,0.6-2.3,1.1-3.5,1.5c-3.1,1.2-6.3,2.5-7.5,5.3
				c-2,4.8-11.3,5.8-19.6,4.5c-4.8-0.8-10.3,2.8-13.8,5.7c-0.7,3.2-1.4,7.6-0.9,11.8c2.2,7.2-0.5,8.1-0.5,8.1s-0.1,0.1-0.4,0.3
				C148.5,960.3,149.5,961.6,150.8,962.1z"/>
			<path class="st0" d="M275.6,885.8c-0.5-5.3,0.7-9.9,0.4-16.7c-0.3-5.9-3.1-13.1-6.3-20.6c-3-1.5-6.2-3.2-7.8-4.4
				c-3-2.6-6.2-1.2-6.4-1.2c-0.2,0.2-3.1,1.9-5.2,1c-1-0.4-1.6-1.3-1.9-2.6c-0.5-3.2-2.2-4.2-3-4.4c-0.9,1.5-2.1,3.2-3.5,5
				c0,0,0,0,0,0.1c6.2,3.1,6.7,17,6.7,17.6l0,0.3l-0.2,0.2c-0.2,0.2-4.1,4.3-1.3,11.5c4,5.1,10.3,16.5,11.8,19.2
				C260.9,889.7,267.6,886.4,275.6,885.8z"/>
			<path class="st0" d="M229,840.8c1.3,0.2,2.5,0.7,3.6,1.2c2.8,1.1,5.3,2.1,8.3-1c2.1-2.5,3.4-4.8,4.7-6.9c1.2-2.1,2.3-4,3.8-5.5
				l0.8-0.8c0.8-0.8,1.6-1.6,1.6-1.9c0-0.2-0.5-0.7-2.3-1.6c-3.2-1.7-6.6-4.5-8.1-7.4c-0.2,0.6-0.4,1.2-0.6,1.6
				c-1.6,2.6-5.3,1.8-5.4,1.7c-5-0.5-13.6-1-15.4-0.1c-0.5,0.5-1.1,0.9-1.7,1.1l0.2,0.2c0,0-1,1.3,0.1,3.1c1.1,2.5,3.7,8.5,3.5,11.6
				C221.9,839.2,226.4,840.3,229,840.8z"/>
			<path class="st0" d="M236.6,786.6c-0.8-0.6-2.1-1.5-4.4-1.9c-1-0.2-1.8-0.1-2.4,0.4c-1.6,1.2-1.9,5.1-2.2,9.9
				c0,0.9-0.1,1.8-0.2,2.7c-0.4,5.2-2.8,6.5-4.1,6.7c-0.2,0-0.5,0.1-0.7,0.1c-1.3,0-2.7-0.7-3.7-1.7l0,14l-0.5,0.1
				c-0.9,0.2-2.7,0.2-3.2-1.4c-0.8-1.1-1.4-1.7-1.9-1.8c-0.7-0.1-1.6,0.6-2.9,1.8c-0.1,0.4-0.2,1.1,0.1,1.5c0.3,0.4,1.1,0.5,1.7,0.5
				l0.4,0l0.2,0.4c0.9,1.5,2.2,2.3,3.3,2.5c1.1,0.1,2.2-0.3,3.2-1.3l0.2-0.1c2.6-1.4,14.9-0.2,16.3-0.1c0.1,0,3,0.6,4-1.1
				c1-1.6,1.1-5.7,1-7.2l0-0.1l3.1-11.3c0.2-0.4,3-6.9-4.4-12.2C238.3,787.8,237.5,787.2,236.6,786.6z"/>
			<path class="st0" d="M302.4,950.3c2.4-0.8,5.8-4.6,8.7-8.6c-6.1-4.2-12.6-11.9-18.1-18.4c-7.2-11.7-9.9-16.2-14.4-27.4
				c-1.7-3.4-2.5-6.2-2.9-8.9c-8.9,0.7-16.2,4.9-16.6,5.1l-10.8,9.6c-0.1,0.3-0.1,1.3-0.1,2.2c0,1.1,0,2.3-0.1,3.4
				c2.8,0.6,17.1,3.8,16.8,9.2c-0.3,2.5-0.8,4.3-1.4,6.1c-0.8,2.6-1.5,5-1.1,9.5c0.7,7.7,0.9,9.2,4.6,10.2c4.1,1.1,11,2.9,15.7,5.7
				C288.3,950.5,296.8,952.1,302.4,950.3z"/>
			<path class="st0" d="M255.7,993.4c2.5-2.8,3.6-8.7,3.6-8.7c0.1-0.4,1.3-6.4,4.7-7.5c0.1-3.1,0.7-5.6,1.3-7.6
				c0.9-3.4,1.5-5.4-1.1-8c-4.9-4.9-5.5-8.2-1.9-11.9c0.8-0.9,1.7-1.7,2.6-2.4c1.3-1.1,2.7-2.3,2.6-2.9c0-0.3-0.4-0.6-0.8-0.8
				c-1.9-0.5-3-1.3-3.8-2.4c-0.8,1.4-2.3,2.7-3.5,3.7c-4.2,3.1-10.6,5.5-13.2,5c-3.6-0.7-6.9-0.3-11.1,3.8c-3.7,3.7-8,2.6-12.5,1.4
				c-1.3-0.4-2.8-0.7-4.2-1c-5.4-1-8.1,1-9.8,6.9c-0.4,1.7-0.2,2.8,0.8,3.4c1.4,0.9,4,0.3,5.2-0.8c0.4-0.9,1.3-1.4,2.4-1.2
				c2.4,0.3,5.5,3,6,6.4c0.1,0.8,0.1,1.5,0,2.2c2.1-0.3,7.3-0.7,9.3,3.5c0.6,2,3.2,1.6,3.3,1.6l1.9-0.2l-1.3,1.4
				c-0.4,0.4-1.4,1.7-1.2,2.9c0.2,0.8,0.8,1.4,2,1.9c4.6,1.8,9.2-0.5,10-1.6c0.7-1,3-2.6,4.6-1.9c1.2,0.5,1.6,1.9,1.3,4.2
				c-0.7,4.8-0.1,9.5,1.4,10.5C254.6,993.6,255,993.8,255.7,993.4z"/>
			<path class="st0" d="M240.6,786.2L240.6,786.2c7.9,6,4.5,13.5,4.5,13.5l-3,11.1c0,0.4,0,1.7-0.1,3.2c-0.1,3,4.2,7.1,8.3,9.2
				c1.8,0.9,2.8,1.6,3,2.6c0.1,1-0.7,1.8-2.1,3.1l-0.8,0.8c-1.4,1.4-2.4,3.1-3.6,5.2c-0.2,0.3-0.4,0.7-0.6,1c1.1,0.5,3,1.8,3.5,5.4
				c0.2,0.8,0.5,1.4,1.1,1.6c1.2,0.5,3.4-0.5,4-1c0.3-0.1,4.2-1.7,7.9,1.3c1.2,1,3.6,2.3,6.1,3.6c-2.4-5.5-4.9-11.2-6.7-16.6
				c-3.6-9.9-1.9-22.9,1-32.3l-5-4.6l-0.1-0.2c0,0-0.4-2.1-1.7-2.8c-0.6-0.3-1.4-0.3-2.3,0.1l-0.3,0c-0.1,0-0.2,0-0.3,0
				c-5.1,0-8.2-5-9.3-7C243.5,783.9,242.4,784.8,240.6,786.2z"/>
			<path class="st0" d="M211.1,670.4c2.2,3.6,5.9,8.6,10.1,9.5c5.3,0.4,8.7,2.8,9,4c0.2,0.3,2.8,1.8,7.1,1.2l0.1,0l0.1,0
				c2.8,0.7,5.4,6.2,5.4,7.2c0,0.5,1,5.2,2.9,6.8c0.3,0.3,0.8,0.5,1.2,0.4c0.9-1.4,1.5-2.6,1.9-3.7c1-2.5,1.8-4.3,6.2-3.9
				c5.8,0.4,9.9-2.3,11.5-5.3c1.4-2.5,2.2-4.8,2.5-5.7c-0.5-0.5-1.5-1.8-1.7-4.5c0-4-2.9-8.1-7.5-10.9c-4.6-2.8-4-16.6-3.7-23.2
				l0-0.9c0-0.9,0.1-1.7,0.2-2.5c0.2-4,0.3-6.4-1.5-8.2c-1.2-1.2-2.2-3.7-2.9-6c-4.1,3.3-7.8,5.3-7.8,5.3s-6.7,3.1-10.3,0.5
				c-8.5-8.1-8.1,5.8-8.1,5.8s-3.6,6.7-4.5,15.7c-5,0.9-8.1,6.7-7.2,14.4C214.1,668.1,212.8,669.4,211.1,670.4z"/>
			<path class="st0" d="M246.1,872.4l-0.1-0.2c-2.9-7.3,0.4-11.8,1.3-12.8c-0.1-2-1-14.6-6.5-16.5c-1.4,1-2.8,1.4-4,1.4
				c-1.6,0-3.1-0.6-4.6-1.2c-1.1-0.4-2.2-0.9-3.3-1c-6.9-1.1-8.1-3.8-8-5.9c0.2-2.9-2.5-9.1-3.3-10.9c-0.9-1.5-0.7-2.7-0.5-3.6
				c-0.2,0-0.4,0.1-0.7,0.1c-0.2,0-0.4,0-0.6-0.1c-1.5-0.1-3-1.2-4.1-2.8c-1.1,0-2-0.3-2.4-1c-0.3-0.4-0.4-0.8-0.5-1.2
				c-2,1.5-5.4,3.2-8.8,0.5c-2.2-1.8-4.1-1.4-5.3-0.7c-2.3,1.3-3.9,4.3-3.7,6.2c0.4,3.5-0.9,6.1-2.2,8.7l-0.3,0.6
				c-0.8,1.5-1,3.9-0.1,5.5c0.6,1.1,1.6,1.8,3.2,1.9l0.2,0.1c1.5,0.7,2.7,2.2,3.3,4.3c1,3.2,0.5,7.3-1,10.2
				c-1.2,2.2-2.9,3.5-4.7,3.7c2.8,4.1,10,15,8.3,17.8c-2.1,2.7-4.8,8-0.9,13.9c1.1,1.7,2.2,3.1,3.2,4.5c2.3,3.1,4.3,5.8,5.8,9.7
				c2,2.7,4.6,2.9,6,2.7c2.6-0.3,4.9-1.9,5.8-3.9c0.7-1.8,2-2.9,3.5-3.3c2.1-0.5,4.8,0.6,7.3,2.8c4.9,1.9,16.3,0.4,17.9,0.1
				l11.6-10.2C256.5,889.1,250,877.3,246.1,872.4z"/>
			<path class="st0" d="M252.2,775.7c-4.2,0-6.4,5.2-6.4,5.7c0,0.2-0.1,0.5-0.4,0.9c0.7,1.5,3.6,6.7,8.3,6.7c0,0,0.1,0,0.1,0
				c1.2-0.5,2.4-0.5,3.3,0c1.6,0.8,2.2,2.8,2.4,3.5l4.2,3.9c1-2.8,2-5.3,3-7.1c4.2-5.4,4.8-12.1,4.9-13.9c-1.4-1-2.7-2.1-3.7-3.1
				l-0.7-0.6c-2.7-2.7-3.9-3.8-7.9-1.9c-1.5,0.7-2.5,0.9-3.4,0.8c0.3,1.1,0.1,2.4-0.3,3.4C254.8,775.2,253.5,775.9,252.2,775.7z"/>
		</g>
		<g>
			<path class="st0" d="M823,883.2c-1.9,0.6-4,0.9-4,0.9s-2.8,0.3-2.6,3.8c0.1,3.6-0.1,4.9,4,4.7c4-0.6,3.7-4.9,3.7-6.4
				c0.5-0.9,0.9,0,2.1-0.9C826.6,884.3,824.9,882.6,823,883.2z"/>
			<path class="st0" d="M709.5,787.5c0,0-5.3,3.7-3.7,6.1c1.6,2.5,5.8,0.4,6.1-3C712.4,785.1,709.5,787.5,709.5,787.5z"/>
			<path class="st0" d="M824,877.3c-2.7,3.6,1.2,3.1,1.2,3.1c2.4-0.4,2.1-1.8,1.6-4.1C826.3,874.1,825,875.4,824,877.3z"/>
			<path class="st0" d="M1057.5,712.3c-1-4.7-5.5-3.4-11.8-4.7c-5.5-4-1.8-5,2.4-3.2c4.1,1.8,8.2,2.4,2.9-2.4
				c-5.5-4.5-5-5.3-4.4-13.2c0.5-7.1-3.7-7.4-10-7.4c-6.6,0-5.5-1.6-6.3-6.1c-1.8-6.6-5.3-0.3-5.3-0.3s0.5,2.9-1,3.2
				c-1.9-2-1.9-4-4.5-3.2c-1.6,1.6-1.9,1.8-2.4-3.3c0-5.6-6.1-4.9-5.5,0c-1.3,4.4-7.6,0.4-12.9,1.2c-2.4-2.1-6.9-1.1-9.5,0.8
				c-3.9-2.1-4.2-2.1-8.2-1.6c-3.4,2.1-4.5,3.7-8.6,4.2c-8.2,3.2-4.5,12.4-4.5,12.4c4.2,3.1,4,5.5,2.4,8.3c-2.6,6.6,3.4,7.3,7.7,6.5
				c1.5,2.1,6.3,2.6,8.4,0.5c0.5-3.4,3.4-3.7,5.5-1.3c2.1,2.4,6.3,1.9,12.9,3.2c6.6,1.3,12.1,6.6,17.3,10.8c3.7,5.3,9.5,6.3,9.5,6.3
				c5.8,2.9,4.5,1.9,11.4,2.9c6.8,1.1,10.5-0.8,11-4.2C1057,719.4,1058.6,717.1,1057.5,712.3z"/>
			<path class="st0" d="M897.7,744c-4.9-0.6-4.4,2.2-7.7-2.2c-6-1.6-15.9,9.3-15.9,9.3s-6,4.9-7.1,0c0-2.8,0.5-2.8-3.9-2.8
				c-1.2-4.9-10.3-7.1-12.5-11.4c-2.2-4.4,2.7-6,6.6-9.8c3.3-5.5-3.3-7.1-10.4-3.3c-7.7-0.6-6.6-5.5-3.8-7.6
				c4.4,0.5,7.7-2.8,12.1-6.6c8.2-2.2,9.8-9.8,6.5-10.4c-2.2,2.8-7.1,5.5-19.7,8.2c-12.6-1.1-12,0-18.1,5.5c-4.4-1.1-7.7,0-9.8,2.7
				c-4.4,2.2-6,2.2-15.9,9.3c-11.5,4.9-11,2.7-20.8,13.1c-12.6,6-20.8,18.1-28.5,27.4c-9.8,3.3-15.9,11.5-19.7,15.8
				c-11.5-0.6-12,11.5-12,11.5s-0.5,1.6,0,4.9c2.7,3.3,5.5,5.4,5.5,5.4c5.4,1.5,9.3-3.5,11-1.5c-4.5,5.7-1.6,8.6,2.1,11.4
				c0,6.1,3.3,4.9,8.6,5.3c5.3,0.4,4.5-3.7,5.3-8.6c0.4-4.5-2.1-4.5,1.6-6.5c5.7,2,7.8-3.3,14.3-7.7c6.5-4.5,6.5,2.4,11,5.3
				c6.1,2,9,3.2,7.3,6.9c-5.7,5.3-1.7,13.5-1.7,13.5s-2,1.6,2.9,9.8c4.5,6.1,8.2,7,13.1,6.5c3.7,3.3,2.5,3.7,7.8,1.2
				c5.3-2.4,5.7-2.1,9.4,0c6.5,0,6.1,1.7,9.8,4.1c0,4.9,0.8,6.5,4.9,8.2c0,6.1,0.3,4.5,0.3,4.5c4.4,0,2.7,0,7.1,1.1
				c3.8,2.2,8.8,3.3,9.3-3.8c-0.5-7.1,11-9.3,11-9.3s10.4-3.3,14.7-7.6c1.1-5.5,1.7-7.1,5.5-12c1.1-11,0-14.2,5.5-20.8
				c9.3-6,8.2-5.4,8.2-11.5c4.9-2.7,6-5.5,4.9-11.5c8.8-9.3,8.8-20.8,8.8-20.8s1.6-8.2,0-11.5C901,745.6,902.6,744.5,897.7,744z"/>
			<path class="st0" d="M572,994.2c-3.3,1.4-9.8-0.7-10.9-5.8c-1.1-5.1-2.1-11.2-8-7.3c-0.7,1.4-1.5,3.2,0,5.1
				c-0.3,1.8-5.8-4-5.8-1.1c0,0,0.4,6.9-1.5,10.1c-1.5,4.8-2.5,9.5,0.7,7.6c3.3-1.8,6.6-5.4,8-8.7c1.5-3.3,4.7-4.7,8,0
				c3.2,5.1,6.9,8.3,13.1,5.1c6.2-2.9,5.8-3.6,4.3-6.5C578.5,989.8,575.7,990.9,572,994.2z"/>
			<path class="st0" d="M581.1,912.5c0-10.9,0-12-5.4-12c-4.4-5.8-11.2-1.1-11.2-1.1s-1.5-4-5.8,0c-5.4,6.2-7.2,4-16,6.2
				c-8.7,2.2-13.4,9-14.2,15.2c-0.7,6.2,1.1,7.3-2.5,7.2c-5.8,2.6-10.2,3.6-10.2,10.5c-4,6.9,0,10.5,0,10.5c0,5.1,8.4,2.9,8.4,2.9
				s5.8,4.4,8.3,1.5c1.5-3.3,3.3-2.5,5.8,3.2c2.5,6.2,8.7,3.3,10.7-1.8c0.6-6.9-0.6-8,4.2-12c5.1-1.1,7.3-3.6,7.3-3.6s8-5.1,9.4-9.4
				c-1.4-4.7-0.7-6.2,1.8-8c1.5,0.7,7.3,0.8,9.4-2.9C585.5,916.9,584.4,913.9,581.1,912.5z"/>
		</g>
	</g>
</g>
</svg>
