<?xml version="1.0" encoding="utf-8"?>
<!-- Generator: Adobe Illustrator 24.2.3, SVG Export Plug-In . SVG Version: 6.00 Build 0)  -->
<svg version="1.1" id="Capa_1" xmlns="http://www.w3.org/2000/svg" xmlns:xlink="http://www.w3.org/1999/xlink" x="0px" y="0px"
	 viewBox="0 0 17 17" style="enable-background:new 0 0 17 17;" xml:space="preserve">
<style type="text/css">
	.st0{fill:#FFDB00;}
</style>
<path id="Facebook_1_" class="st0" d="M6.6,4.3c0,0.4,0,2,0,2H5.2v2.4h1.4v6.7h3V8.8h2c0,0,0.2-1.2,0.3-2.5c-0.3,0-2.3,0-2.3,0
	s0-1.4,0-1.7c0-0.2,0.3-0.6,0.6-0.6c0.3,0,1,0,1.6,0c0-0.3,0-1.5,0-2.5c-0.8,0-1.8,0-2.2,0C6.5,1.5,6.6,4,6.6,4.3z"/>
</svg>
