<?xml version="1.0" encoding="utf-8"?>
<!-- Generator: Adobe Illustrator 24.2.3, SVG Export Plug-In . SVG Version: 6.00 Build 0)  -->
<svg version="1.1" id="Capa_1" xmlns="http://www.w3.org/2000/svg" xmlns:xlink="http://www.w3.org/1999/xlink" x="0px" y="0px"
	 viewBox="0 0 17 17" style="enable-background:new 0 0 17 17;" xml:space="preserve">
<style type="text/css">
	.st0{fill:#FFDB00;}
</style>
<g>
	<g>
		<path class="st0" d="M12.1,15.7H4.9c-2,0-3.7-1.6-3.7-3.7V4.9c0-2,1.6-3.7,3.7-3.7h7.1c2,0,3.7,1.6,3.7,3.7v7.2
			C15.7,14.1,14.1,15.7,12.1,15.7z M4.9,2.6c-1.3,0-2.3,1.1-2.3,2.3v7.2c0,1.3,1.1,2.3,2.3,2.3h7.1c1.3,0,2.3-1.1,2.3-2.3V4.9
			c0-1.3-1.1-2.3-2.3-2.3H4.9z"/>
	</g>
	<g>
		<path class="st0" d="M8.5,12.2c-2.1,0-3.7-1.7-3.7-3.7s1.7-3.7,3.7-3.7c2.1,0,3.7,1.7,3.7,3.7S10.6,12.2,8.5,12.2z M8.5,6.1
			c-1.3,0-2.4,1.1-2.4,2.4s1.1,2.4,2.4,2.4c1.3,0,2.4-1.1,2.4-2.4S9.8,6.1,8.5,6.1z"/>
	</g>
	<g>
		<circle class="st0" cx="12.2" cy="4.5" r="0.9"/>
	</g>
</g>
</svg>
