<?xml version="1.0" encoding="utf-8"?>
<!-- Generator: Adobe Illustrator 24.2.3, SVG Export Plug-In . SVG Version: 6.00 Build 0)  -->
<svg version="1.1" id="Capa_1" xmlns="http://www.w3.org/2000/svg" xmlns:xlink="http://www.w3.org/1999/xlink" x="0px" y="0px"
	 viewBox="0 0 127.6 127.6" style="enable-background:new 0 0 127.6 127.6;" xml:space="preserve">
<style type="text/css">
	.st0{fill:#FFDB00;}
	.st1{fill:#1D1E1C;}
	.st2{fill:#DE2553;}
</style>
<g>
	<rect y="-0.1" class="st0" width="127.6" height="127.6"/>
	<path class="st1" d="M74.5,57c0.3-1.9,0.7-3.8,1-5.8c-0.3,0-0.6,0-0.8,0c-2,0-4.1,0-6.1,0c-0.8,0-1,0.3-1.1,1
		c-0.9,5-1.8,9.9-2.7,14.9c-0.4,2.1-0.8,4.2-0.5,6.4c0.5,2.7,1.8,4.8,4.5,5.6c2.6,0.7,5.1,0.5,7.3-1.1c1.1-0.7,2-1.8,2.8-2.6
		c-0.2,0.9-0.4,2-0.6,3.1c0.3,0,0.5,0,0.7,0c2,0,4.1,0,6.1,0c0.5,0,0.8-0.2,0.9-0.7c1.4-7.8,2.9-15.6,4.3-23.4
		c0.2-1,0.4-2.1,0.6-3.2h-0.8c-2.1,0-4.2,0-6.3,0c-0.6,0-0.8,0.2-0.9,0.7c-0.8,4.4-1.6,8.8-2.4,13.2c-0.3,1.7-0.6,3.3-1.4,4.8
		c-0.9,1.6-2.2,2.5-4,2.5c-1.5,0-2.5-0.9-2.6-2.4c0-0.8,0-1.7,0.1-2.5C73.2,64,73.9,60.5,74.5,57z"/>
	<path class="st1" d="M102.6,51.9c-0.7,0.6-1.4,1.3-2.1,1.9c0.1-0.8,0.2-1.6,0.4-2.5c-0.1-0.1-0.1-0.1-0.2-0.1c-2.3,0-4.7,0-7,0
		c-0.2,0-0.4,0.3-0.5,0.5c-0.6,3.3-1.2,6.7-1.8,10.1c-1.2,6.6-2.4,13.2-3.6,19.8c-0.4,2.4-0.9,4.9-1.3,7.4h7.9
		c0.8-4.6,1.6-9.1,2.5-13.9c0.2,0.4,0.4,0.7,0.5,0.9c1,1.6,2.3,2.6,4.2,3.1c1.4,0.3,2.9,0.3,4.3,0c3.2-0.7,5.4-2.6,7.1-5.3
		c2-3.1,2.8-6.6,3-10.2c0.2-2.9-0.1-5.7-1.3-8.4C112.6,50.4,106.7,48.8,102.6,51.9z M106.5,69.6c-0.5,0.9-1.2,1.7-2.2,2.2
		c-2.4,1.3-4.9,0.3-5.6-2.3c-0.6-2.2-0.3-4.4,0.2-6.6c0.4-1.4,0.9-2.8,1.9-3.9c0.8-1,1.8-1.6,3.1-1.7c2-0.1,3.6,1.1,4,3.2
		c0.2,0.8,0.2,1.6,0.3,2.4C108,65.2,107.6,67.5,106.5,69.6z"/>
	<polygon class="st2" points="19.9,60.7 21.9,66.8 28.3,66.8 23.1,70.5 25.1,76.6 19.9,72.8 14.8,76.6 16.7,70.5 11.6,66.8 18,66.8 
			"/>
	<path class="st1" d="M58,51c-5.9-1.9-12.1,0.5-15.3,5.8c-2.6,4.3-3.3,9.1-2.5,14c0.6,3.2,2.2,5.7,5.2,7.3c2.5,1.3,5.1,1.5,7.8,1.2
		c5.9-0.6,9.6-5,10.5-11.1c0,0-0.1-0.1-0.1-0.1c-2.4,0-4.7,0-7.1,0c-0.2,0-0.4,0.3-0.5,0.5c-0.3,0.7-0.6,1.5-1,2.2
		c-0.9,1.4-2.2,2-3.8,1.9c-1.7-0.2-2.6-1.3-3-2.8c-0.6-2.2-0.5-4.4-0.1-6.6c0.3-1.7,0.9-3.4,2.1-4.7c1.3-1.4,3-1.8,4.8-1.2
		c1.6,0.6,2.1,2,2.2,3.5c0,0.1,0,0.2,0,0.3c0.1,0,0.2,0.1,0.2,0.1c2.3,0,4.6,0,6.9,0c0.2,0,0.4-0.3,0.4-0.5c0-0.5,0-1-0.1-1.5
		C64,55.2,62,52.3,58,51z"/>
	<g>
		<g>
			<path class="st2" d="M25.5,61.7l6.3,6.4h5.8c-0.1-2.2,0.1-4.3,0.6-6.4H25.5z"/>
			<path class="st2" d="M39.6,57.6c0.3-0.7,0.7-1.4,1.1-2.1c1-1.7,2.4-3.2,3.9-4.3H15l6.3,6.4H39.6z"/>
			<path class="st2" d="M38.1,72.2h-6.4l-6.3,6.4H42C40.1,77,38.8,74.8,38.1,72.2z"/>
			<polygon class="st2" points="21.3,82.7 15,89.1 83.9,89.1 85.1,82.7 			"/>
		</g>
	</g>
</g>
</svg>
