<?xml version="1.0" encoding="utf-8"?>
<!-- Generator: Adobe Illustrator 24.2.3, SVG Export Plug-In . SVG Version: 6.00 Build 0)  -->
<svg version="1.1" id="Capa_1" xmlns="http://www.w3.org/2000/svg" xmlns:xlink="http://www.w3.org/1999/xlink" x="0px" y="0px"
	 viewBox="0 0 17 17" style="enable-background:new 0 0 17 17;" xml:space="preserve">
<style type="text/css">
	.st0{fill:#FFDB00;}
</style>
<g>
	<path class="st0" d="M6.6,14.1c0.3,0,0.5-0.1,0.6-0.3c0.5-0.4,0.9-0.9,1.4-1.3c0.1-0.1,0.2-0.2,0.3-0.4c0.2,0.2,0.4,0.3,0.6,0.4
		c0.9,0.7,1.9,1.4,2.8,2.1c0.6,0.5,1.2,0.2,1.3-0.5c0.1-0.3,0.1-0.6,0.2-0.9c0.5-2.6,1.1-5.1,1.6-7.7c0.2-0.8,0.4-1.6,0.5-2.4
		c0.1-0.7-0.4-1.1-1-0.8c-3,1.2-6.1,2.3-9.1,3.5C4.5,6.3,3.1,6.8,1.7,7.4C1.5,7.5,1.3,7.6,1.1,7.8c-0.2,0.2-0.2,0.4,0,0.5
		c0.1,0.1,0.2,0.1,0.4,0.2c1.1,0.3,2.2,0.7,3.3,1c0.1,0,0.2,0,0.3,0c2.6-1.6,5.1-3.2,7.7-4.9c0.1-0.1,0.3-0.1,0.4-0.2
		c0.1,0,0.2,0,0.2,0.1c0,0.1,0,0.1-0.1,0.2c0,0-0.1,0.1-0.1,0.1C11.1,6.7,9.1,8.5,7,10.4c-0.1,0.1-0.2,0.2-0.2,0.4
		c0,0.5-0.1,1-0.1,1.6C6.7,12.9,6.7,13.5,6.6,14.1z"/>
	<path class="st0" d="M6.6,14.1c0-0.6,0.1-1.2,0.1-1.8c0-0.5,0.1-1,0.1-1.6c0-0.1,0.1-0.3,0.2-0.4c2.1-1.9,4.1-3.7,6.2-5.6
		c0,0,0.1-0.1,0.1-0.1c0-0.1,0.1-0.1,0.1-0.2c-0.1,0-0.2-0.1-0.2-0.1c-0.1,0-0.3,0.1-0.4,0.2c-2.6,1.6-5.1,3.2-7.7,4.9
		C5,9.6,4.9,9.6,4.7,9.5c-1.1-0.4-2.2-0.7-3.3-1c-0.1,0-0.3-0.1-0.4-0.2c-0.2-0.1-0.2-0.4,0-0.5c0.2-0.2,0.4-0.3,0.6-0.4
		c1.4-0.6,2.8-1.1,4.2-1.6c3-1.2,6.1-2.3,9.1-3.5c0.7-0.3,1.2,0.1,1,0.8c-0.1,0.8-0.3,1.6-0.5,2.4c-0.5,2.6-1.1,5.1-1.6,7.7
		c-0.1,0.3-0.1,0.6-0.2,0.9c-0.2,0.7-0.7,1-1.3,0.5c-1-0.7-1.9-1.4-2.8-2.1c-0.2-0.1-0.4-0.3-0.6-0.4c-0.1,0.1-0.2,0.2-0.3,0.4
		c-0.5,0.5-0.9,0.9-1.4,1.3C7.1,14,6.9,14.1,6.6,14.1z"/>
</g>
</svg>
