<?xml version="1.0" encoding="utf-8"?>
<!-- Generator: Adobe Illustrator 24.2.3, SVG Export Plug-In . SVG Version: 6.00 Build 0)  -->
<svg version="1.1" id="Capa_1" xmlns="http://www.w3.org/2000/svg" xmlns:xlink="http://www.w3.org/1999/xlink" x="0px" y="0px"
	 viewBox="0 0 17 17" style="enable-background:new 0 0 17 17;" xml:space="preserve">
<style type="text/css">
	.st0{fill:#FFDB00;}
</style>
<g>
	<path class="st0" d="M16.2,3.7c-0.6,0.3-1.2,0.4-1.8,0.5c0.6-0.4,1.1-1,1.4-1.8c-0.6,0.4-1.3,0.6-2,0.8c-0.6-0.6-1.4-1-2.3-1
		c-1.7,0-3.1,1.4-3.1,3.2c0,0.3,0,0.5,0.1,0.7C5.8,6,3.5,4.7,1.9,2.7c-0.3,0.5-0.4,1-0.4,1.6C1.5,5.5,2,6.4,2.9,7
		c-0.5,0-1-0.2-1.4-0.4c0,0,0,0,0,0c0,1.6,1.1,2.8,2.5,3.1C3.7,9.9,3.4,9.9,3.2,9.9c-0.2,0-0.4,0-0.6-0.1c0.4,1.3,1.6,2.2,2.9,2.2
		c-1.1,0.9-2.4,1.4-3.9,1.4c-0.3,0-0.5,0-0.7,0c1.4,0.9,3,1.4,4.8,1.4c5.8,0,8.9-4.9,8.9-9.1c0-0.1,0-0.3,0-0.4
		C15.2,4.9,15.7,4.3,16.2,3.7z"/>
</g>
</svg>
