<?xml version="1.0" encoding="utf-8"?>
<!-- Generator: Adobe Illustrator 24.2.3, SVG Export Plug-In . SVG Version: 6.00 Build 0)  -->
<svg version="1.1" id="Capa_1" xmlns="http://www.w3.org/2000/svg" xmlns:xlink="http://www.w3.org/1999/xlink" x="0px" y="0px"
	 viewBox="0 0 17 17" style="enable-background:new 0 0 17 17;" xml:space="preserve">
<style type="text/css">
	.st0{fill:#FFDB00;}
</style>
<g>
	<path class="st0" d="M15.7,5.8c0-1.1-0.9-2.1-2.1-2.1C12,3.6,10.4,3.6,8.8,3.6c-0.1,0-0.2,0-0.3,0c-0.1,0-0.2,0-0.3,0
		c-1.6,0-3.2,0-4.8,0.1c-1.2,0-2.1,0.9-2.1,2.1C1.3,6.7,1.2,7.6,1.2,8.5c0,0.9,0,1.8,0.1,2.7c0,1.1,0.9,2.1,2.1,2.1
		c1.7,0.1,3.4,0.1,5.1,0.1c1.7,0,3.4,0,5.1-0.1c1.2,0,2.1-0.9,2.1-2.1c0.1-0.9,0.1-1.8,0.1-2.7C15.8,7.6,15.8,6.7,15.7,5.8z
		 M10.7,8.9l-4,2.3c-0.4,0.2-0.8,0-0.8-0.4l0-4.6c0-0.5,0.3-0.7,0.8-0.4l4,2.3C11.2,8.3,11.2,8.7,10.7,8.9z"/>
</g>
</svg>
